<svg width="131" height="107" viewBox="0 0 131 107" fill="none" xmlns="http://www.w3.org/2000/svg">
<path d="M66.893 101.187C66.2772 102.993 63.7228 102.993 63.107 101.187L48.5814 58.5802C48.139 57.2826 49.1035 55.9348 50.4744 55.9348L79.5256 55.9348C80.8965 55.9348 81.861 57.2826 81.4186 58.5802L66.893 101.187Z" fill="#E98B8A"/>
<circle cx="65" cy="103" r="3" fill="white"/>
<g filter="url(#filter0_diiiii_30_45)">
<rect x="3" y="1" width="125" height="61" rx="30.5" fill="url(#paint0_linear_30_45)" shape-rendering="crispEdges"/>
<rect x="3.5" y="1.5" width="124" height="60" rx="30" stroke="#431134" shape-rendering="crispEdges"/>
<path d="M41.006 24.822C39.4987 24.822 38.5537 25.186 38.171 25.914C37.8863 26.46 37.3263 28.294 36.491 31.416C35.6557 34.538 35.238 36.379 35.238 36.939C35.238 37.1817 35.3197 37.3917 35.483 37.569C35.651 37.7463 35.8633 37.877 36.12 37.961C36.3813 38.0497 36.6333 38.1127 36.876 38.15C37.1187 38.192 37.352 38.213 37.576 38.213C38.7147 38.213 39.4287 37.9097 39.718 37.303C39.8487 37.0323 39.942 36.6567 39.998 36.176C40.0587 35.7 40.1077 35.245 40.145 34.811C40.187 34.377 40.2477 34.0737 40.327 33.901C40.4017 33.7377 40.4973 33.6303 40.614 33.579C40.7307 33.523 40.8893 33.495 41.09 33.495C41.286 33.495 41.4423 33.523 41.559 33.579C41.6757 33.6303 41.7737 33.7377 41.853 33.901C41.881 33.957 41.9253 34.2183 41.986 34.685C41.9907 34.7177 42.0093 34.8693 42.042 35.14C42.0793 35.4107 42.1097 35.63 42.133 35.798C42.161 35.9707 42.1937 36.1783 42.231 36.421C42.273 36.6683 42.315 36.8783 42.357 37.051C42.4037 37.2237 42.448 37.3543 42.49 37.443C42.644 37.7603 42.8843 37.9727 43.211 38.08C43.5377 38.192 43.9203 38.248 44.359 38.248C44.5317 38.248 44.7207 38.234 44.926 38.206C45.136 38.1827 45.36 38.136 45.598 38.066C45.8407 38.0007 46.0577 37.919 46.249 37.821C46.445 37.7277 46.6083 37.5993 46.739 37.436C46.8697 37.2727 46.935 37.093 46.935 36.897C46.935 36.4397 46.4917 34.6103 45.605 31.409C44.723 28.203 44.1607 26.3713 43.918 25.914C43.8013 25.6947 43.6287 25.508 43.4 25.354C43.1713 25.2 42.9123 25.088 42.623 25.018C42.3337 24.9433 42.0607 24.892 41.804 24.864C41.5473 24.836 41.2813 24.822 41.006 24.822ZM40.516 31.038C40.516 30.7533 40.5323 30.4523 40.565 30.135C40.5977 29.8177 40.642 29.463 40.698 29.071C40.7587 28.6743 40.8007 28.3733 40.824 28.168C40.866 28.1073 40.936 28.077 41.034 28.077C41.1087 28.077 41.174 28.1073 41.23 28.168C41.2393 28.182 41.2907 28.6393 41.384 29.54C41.482 30.436 41.531 30.9447 41.531 31.066C41.531 31.136 41.468 31.1873 41.342 31.22C41.2207 31.248 41.1087 31.262 41.006 31.262C40.6793 31.262 40.516 31.1873 40.516 31.038ZM41.006 24.115C42.3407 24.115 43.337 24.3857 43.995 24.927L44.702 25.417C45.0053 25.6317 45.2363 25.8883 45.395 26.187C45.5537 26.481 45.885 27.4937 46.389 29.225C46.8977 30.9563 47.376 32.6923 47.824 34.433C48.272 36.1737 48.496 37.1957 48.496 37.499C48.496 37.849 48.3817 38.1617 48.153 38.437C47.929 38.717 47.642 38.934 47.292 39.088C46.9467 39.242 46.5943 39.3563 46.235 39.431C45.8803 39.5103 45.542 39.55 45.22 39.55C44.4173 39.55 43.7943 39.3937 43.351 39.081L42.63 38.577C42.2893 38.381 42.0513 38.143 41.916 37.863C41.7807 37.5877 41.6687 37.212 41.58 36.736C41.496 37.3753 41.3723 37.8653 41.209 38.206C40.803 39.0787 39.879 39.515 38.437 39.515C38.059 39.515 37.6577 39.466 37.233 39.368C36.8083 39.27 36.442 39.1113 36.134 38.892L35.42 38.395C34.8273 38.045 34.531 37.5597 34.531 36.939C34.531 36.3603 34.9603 34.4633 35.819 31.248C36.6777 28.0327 37.254 26.145 37.548 25.585C38.0613 24.605 39.214 24.115 41.006 24.115ZM54.616 30.926C54.616 30.8607 54.7116 30.7673 54.903 30.646C55.099 30.5247 55.3206 30.4033 55.568 30.282C55.82 30.156 55.967 30.0767 56.009 30.044C56.6716 29.5633 57.003 28.8213 57.003 27.818C57.003 27.4447 56.9353 27.1063 56.8 26.803C56.6693 26.4997 56.4966 26.2453 56.282 26.04C56.072 25.83 55.8106 25.648 55.498 25.494C55.19 25.3353 54.8796 25.2117 54.567 25.123C54.2543 25.0343 53.909 24.9643 53.531 24.913C53.1576 24.857 52.8193 24.822 52.516 24.808C52.2173 24.7893 51.9046 24.78 51.578 24.78C51.4053 24.78 51.2583 24.7823 51.137 24.787C51.0203 24.787 50.8663 24.794 50.675 24.808C50.4836 24.8173 50.318 24.8337 50.178 24.857C50.0426 24.8803 49.8886 24.913 49.716 24.955C49.5433 24.9923 49.3916 25.046 49.261 25.116C49.135 25.1813 49.0113 25.2583 48.89 25.347C48.7686 25.4357 48.6636 25.5453 48.575 25.676C48.491 25.802 48.428 25.942 48.386 26.096C48.3066 26.3807 48.2483 26.677 48.211 26.985C48.1736 27.293 48.1456 27.6943 48.127 28.189C48.113 28.6837 48.1013 28.9847 48.092 29.092C47.9426 31.3693 47.868 33.6117 47.868 35.819C47.868 36.1317 47.8726 36.3977 47.882 36.617C47.896 36.841 47.9286 37.0417 47.98 37.219C48.0313 37.401 48.078 37.548 48.12 37.66C48.1666 37.772 48.2506 37.8677 48.372 37.947C48.498 38.031 48.6076 38.094 48.701 38.136C48.799 38.178 48.9553 38.2083 49.17 38.227C49.3846 38.2503 49.5736 38.2643 49.737 38.269C49.9003 38.2737 50.143 38.276 50.465 38.276C55.449 38.276 57.941 36.925 57.941 34.223C57.941 32.963 57.388 32.095 56.282 31.619C56.2446 31.605 56.072 31.5537 55.764 31.465C55.4606 31.3717 55.1923 31.2783 54.959 31.185C54.7303 31.087 54.616 31.0007 54.616 30.926ZM53.44 27.195C53.678 27.3863 53.797 27.608 53.797 27.86C53.797 28.112 53.7293 28.3407 53.594 28.546C53.4633 28.7467 53.2836 28.8983 53.055 29.001C52.9243 29.0663 52.8356 29.099 52.789 29.099C52.7376 29.099 52.7026 29.092 52.684 29.078C52.67 29.064 52.656 29.0313 52.642 28.98C52.5766 28.7793 52.544 28.1377 52.544 27.055C52.544 26.957 52.5976 26.908 52.705 26.908C52.9616 26.908 53.2066 27.0037 53.44 27.195ZM52.635 35.616C52.635 35.3827 52.642 35.035 52.656 34.573C52.6746 34.111 52.684 33.7633 52.684 33.53C52.684 33.3713 52.7726 33.292 52.95 33.292C53.2906 33.292 53.5846 33.4017 53.832 33.621C54.0793 33.8403 54.203 34.118 54.203 34.454C54.203 34.846 54.084 35.182 53.846 35.462C53.6126 35.742 53.3046 35.882 52.922 35.882C52.7306 35.882 52.635 35.7933 52.635 35.616ZM47.994 38.696C47.6766 38.5233 47.4573 38.2223 47.336 37.793C47.2193 37.3683 47.161 36.7103 47.161 35.819C47.161 33.579 47.2356 31.3203 47.385 29.043C47.4036 28.721 47.4153 28.4807 47.42 28.322C47.4573 27.2533 47.553 26.4483 47.707 25.907C47.777 25.6597 47.8796 25.438 48.015 25.242C48.155 25.046 48.3043 24.885 48.463 24.759C48.6216 24.633 48.8153 24.5257 49.044 24.437C49.2726 24.3437 49.4803 24.276 49.667 24.234C49.8536 24.1873 50.0776 24.1523 50.339 24.129C50.605 24.101 50.8173 24.0847 50.976 24.08C51.1393 24.0753 51.34 24.073 51.578 24.073C53.8553 24.073 55.512 24.4837 56.548 25.305L57.22 25.774C58.116 26.404 58.564 27.286 58.564 28.42C58.564 29.6613 58.1346 30.5923 57.276 31.213C57.2713 31.2177 57.234 31.2433 57.164 31.29C57.2573 31.3507 57.353 31.4183 57.451 31.493L58.13 31.969C59.0446 32.6083 59.502 33.5603 59.502 34.825C59.502 35.287 59.4436 35.714 59.327 36.106C59.2103 36.498 59.0516 36.841 58.851 37.135C58.6503 37.4337 58.4006 37.702 58.102 37.94C57.808 38.1827 57.4976 38.388 57.171 38.556C56.849 38.724 56.485 38.8687 56.079 38.99C55.673 39.116 55.281 39.2163 54.903 39.291C54.525 39.3657 54.1143 39.424 53.671 39.466C53.2323 39.5127 52.831 39.543 52.467 39.557C52.103 39.571 51.7203 39.578 51.319 39.578C50.5676 39.578 50.0053 39.557 49.632 39.515C49.2633 39.4777 48.9646 39.3797 48.736 39.221L47.994 38.696ZM53.629 28.994H53.636H53.629ZM64.4982 24.759C62.7436 24.759 61.4182 25.4427 60.5222 26.81C60.0042 27.5987 59.5726 28.5973 59.2272 29.806C58.8819 31.01 58.7092 32.0927 58.7092 33.054C58.7092 33.7867 58.8026 34.4447 58.9892 35.028C59.1759 35.6113 59.4396 36.106 59.7802 36.512C60.1209 36.918 60.5362 37.2563 61.0262 37.527C61.5162 37.7977 62.0576 37.9937 62.6502 38.115C63.2429 38.241 63.8916 38.304 64.5962 38.304C65.3149 38.304 65.9729 38.2387 66.5702 38.108C67.1676 37.9773 67.7112 37.772 68.2012 37.492C68.6912 37.212 69.1066 36.862 69.4472 36.442C69.7879 36.0267 70.0492 35.5227 70.2312 34.93C70.4179 34.3373 70.5112 33.6723 70.5112 32.935C70.5112 31.9877 70.3456 30.9377 70.0142 29.785C69.6876 28.6277 69.2699 27.6757 68.7612 26.929C68.2759 26.2197 67.6646 25.6807 66.9272 25.312C66.1899 24.9433 65.3802 24.759 64.4982 24.759ZM64.5682 35.203C64.4096 35.203 64.2672 35.147 64.1412 35.035C64.0199 34.923 63.9219 34.769 63.8472 34.573C63.7772 34.377 63.7166 34.1787 63.6652 33.978C63.6186 33.7727 63.5859 33.544 63.5672 33.292C63.5486 33.04 63.5346 32.837 63.5252 32.683C63.5206 32.529 63.5182 32.3727 63.5182 32.214C63.5182 31.99 63.5369 31.6517 63.5742 31.199C63.6116 30.7417 63.6676 30.233 63.7422 29.673C63.8169 29.113 63.9266 28.63 64.0712 28.224C64.2159 27.818 64.3792 27.615 64.5612 27.615C64.7479 27.615 64.9112 27.8133 65.0512 28.21C65.1959 28.6067 65.3032 29.0827 65.3732 29.638C65.4432 30.1887 65.4946 30.6857 65.5272 31.129C65.5646 31.5677 65.5832 31.9013 65.5832 32.13C65.5832 32.284 65.5786 32.4403 65.5692 32.599C65.5646 32.753 65.5529 32.9583 65.5342 33.215C65.5156 33.4717 65.4829 33.7073 65.4362 33.922C65.3896 34.1367 65.3312 34.3467 65.2612 34.552C65.1912 34.7527 65.0956 34.9113 64.9742 35.028C64.8576 35.1447 64.7222 35.203 64.5682 35.203ZM64.4982 24.052C65.9076 24.052 67.1209 24.4487 68.1382 25.242L68.7752 25.69C69.3259 26.0727 69.7996 26.5557 70.1962 27.139C70.7422 27.937 71.1902 28.952 71.5402 30.184C71.8949 31.4113 72.0722 32.529 72.0722 33.537C72.0722 34.5543 71.9182 35.4503 71.6102 36.225C71.3069 36.9997 70.8659 37.632 70.2872 38.122C69.7086 38.6167 69.0156 38.9877 68.2082 39.235C67.4009 39.4823 66.4839 39.606 65.4572 39.606C63.6046 39.606 62.1229 39.221 61.0122 38.451L60.3682 37.996C58.7909 37.016 58.0022 35.3687 58.0022 33.054C58.0022 32.032 58.1866 30.8817 58.5552 29.603C58.9239 28.3243 59.3836 27.265 59.9342 26.425C60.9656 24.843 62.4869 24.052 64.4982 24.052ZM65.3172 35.028C65.3546 35.0793 65.3919 35.105 65.4292 35.105L65.3172 35.028ZM74.0173 24.724C73.7047 24.724 73.4083 24.7613 73.1283 24.836C72.8483 24.906 72.587 25.039 72.3443 25.235C72.1063 25.431 71.9523 25.676 71.8823 25.97C71.845 26.1333 71.8123 26.32 71.7843 26.53C71.7563 26.7353 71.7353 26.908 71.7213 27.048C71.712 27.1833 71.698 27.3793 71.6793 27.636C71.6653 27.888 71.6537 28.0653 71.6443 28.168C71.509 29.9647 71.4413 32.011 71.4413 34.307C71.4413 34.8343 71.4483 35.1843 71.4623 35.357C71.4903 35.7537 71.579 36.1083 71.7283 36.421C71.8777 36.7383 72.055 36.9973 72.2603 37.198C72.4703 37.4033 72.7363 37.5807 73.0583 37.73C73.3803 37.8793 73.6837 37.9913 73.9683 38.066C74.2577 38.1453 74.603 38.206 75.0043 38.248C75.4103 38.29 75.751 38.3157 76.0263 38.325C76.3063 38.3343 76.6423 38.339 77.0343 38.339C77.1323 38.339 77.3213 38.339 77.6013 38.339C77.8813 38.3437 78.0913 38.3437 78.2313 38.339C78.376 38.339 78.5627 38.3343 78.7913 38.325C79.02 38.3157 79.23 38.297 79.4213 38.269C79.6127 38.241 79.797 38.2037 79.9743 38.157C80.6837 37.9703 81.2903 37.6273 81.7943 37.128C82.2983 36.6287 82.5993 36.0313 82.6973 35.336C82.7673 34.832 82.8023 34.0223 82.8023 32.907C82.8023 30.6997 82.7627 28.9263 82.6833 27.587C82.6787 27.4983 82.6717 27.3677 82.6623 27.195C82.653 27.0177 82.646 26.8753 82.6413 26.768C82.6367 26.6607 82.625 26.5323 82.6063 26.383C82.5877 26.2337 82.5643 26.0983 82.5363 25.977C82.4383 25.5337 82.2167 25.214 81.8713 25.018C81.526 24.822 81.106 24.724 80.6113 24.724C80.1167 24.724 79.664 24.8243 79.2533 25.025C78.8427 25.2257 78.5837 25.5407 78.4763 25.97C78.4343 26.1427 78.4017 26.3177 78.3783 26.495C78.355 26.6677 78.334 26.9033 78.3153 27.202C78.2967 27.496 78.285 27.671 78.2803 27.727C78.0937 29.995 78.0003 31.6213 78.0003 32.606C78.0003 32.6573 78.0003 32.7577 78.0003 32.907C78.005 33.0563 78.0073 33.173 78.0073 33.257C78.0073 33.341 78.0027 33.4577 77.9933 33.607C77.984 33.7517 77.9677 33.8683 77.9443 33.957C77.921 34.0457 77.886 34.146 77.8393 34.258C77.7973 34.37 77.7437 34.4587 77.6783 34.524C77.613 34.5847 77.5267 34.6383 77.4193 34.685C77.3167 34.727 77.2 34.748 77.0693 34.748C76.8173 34.748 76.6027 34.6593 76.4253 34.482C76.2527 34.3047 76.1663 34.09 76.1663 33.838C76.1663 31.1033 76.1407 29.1317 76.0893 27.923C76.0847 27.8343 76.0777 27.678 76.0683 27.454C76.0637 27.2253 76.059 27.0503 76.0543 26.929C76.0497 26.8077 76.0357 26.656 76.0123 26.474C75.9937 26.292 75.968 26.1263 75.9353 25.977C75.8373 25.5337 75.6157 25.214 75.2703 25.018C74.9297 24.822 74.512 24.724 74.0173 24.724ZM74.0173 24.017C74.8013 24.017 75.4267 24.2107 75.8933 24.598L76.6143 25.102C76.969 25.3493 77.2117 25.6527 77.3423 26.012C77.4777 26.3667 77.564 26.8053 77.6013 27.328C77.6013 27.2953 77.6037 27.2697 77.6083 27.251C77.6457 26.6257 77.7063 26.1427 77.7903 25.802C77.8743 25.4893 78.0167 25.214 78.2173 24.976C78.4227 24.738 78.6583 24.5513 78.9243 24.416C79.1903 24.2807 79.4657 24.1803 79.7503 24.115C80.035 24.0497 80.322 24.017 80.6113 24.017C81.4233 24.017 82.058 24.2083 82.5153 24.591L83.2363 25.095C83.4463 25.2397 83.6167 25.4123 83.7473 25.613C83.8827 25.809 83.9807 26.0423 84.0413 26.313C84.1067 26.579 84.1487 26.803 84.1673 26.985C84.186 27.167 84.2047 27.4213 84.2233 27.748C84.2373 28 84.2443 28.133 84.2443 28.147C84.3237 29.477 84.3633 31.3553 84.3633 33.782C84.3633 34.7433 84.326 35.4947 84.2513 36.036C84.13 36.876 83.7707 37.597 83.1733 38.199C82.5807 38.801 81.8597 39.214 81.0103 39.438C80.4783 39.578 79.7737 39.648 78.8963 39.648H78.3783C78.271 39.6433 78.11 39.641 77.8953 39.641C77.4053 39.641 76.983 39.6317 76.6283 39.613C76.2737 39.599 75.8607 39.5617 75.3893 39.501C74.9227 39.4403 74.4887 39.34 74.0873 39.2C73.6907 39.06 73.336 38.8803 73.0233 38.661L72.3513 38.192C71.3807 37.5993 70.8487 36.6707 70.7553 35.406V35.413C70.7413 35.1797 70.7343 34.9277 70.7343 34.657C70.7343 31.801 70.8137 29.463 70.9723 27.643C71.019 26.8497 71.0937 26.2383 71.1963 25.809C71.271 25.487 71.4087 25.2047 71.6093 24.962C71.81 24.7193 72.0457 24.5327 72.3163 24.402C72.587 24.2713 72.8623 24.1757 73.1423 24.115C73.427 24.0497 73.7187 24.017 74.0173 24.017ZM94.4038 28.833C94.5858 28.833 94.7398 28.812 94.8658 28.77C95.0478 28.7093 95.2018 28.5437 95.3278 28.273C95.4538 27.9977 95.5354 27.7293 95.5728 27.468C95.6148 27.2067 95.6358 26.964 95.6358 26.74C95.6358 25.83 95.3698 25.2653 94.8378 25.046C94.4691 24.8967 92.9058 24.822 90.1478 24.822H88.8878C86.2698 24.822 84.7741 24.8967 84.4008 25.046C83.7988 25.2933 83.4978 25.928 83.4978 26.95C83.4978 27.1367 83.5141 27.328 83.5468 27.524C83.5794 27.7153 83.6331 27.9137 83.7078 28.119C83.7824 28.3197 83.8921 28.483 84.0368 28.609C84.1861 28.735 84.3611 28.798 84.5618 28.798C84.8558 28.798 85.2944 28.7537 85.8778 28.665C86.4658 28.5717 86.9068 28.525 87.2007 28.525C87.2801 28.525 87.3431 28.5507 87.3898 28.602C87.4364 28.6487 87.4597 28.7093 87.4597 28.784C87.4597 29.0687 87.4364 29.4723 87.3898 29.995C87.3431 30.5177 87.3151 30.849 87.3058 30.989C87.2171 32.4497 87.1728 34.1833 87.1728 36.19C87.1728 36.596 87.1868 36.8993 87.2148 37.1C87.2474 37.3333 87.3361 37.5317 87.4808 37.695C87.6254 37.8583 87.8051 37.9773 88.0198 38.052C88.2391 38.1313 88.4514 38.1873 88.6568 38.22C88.8668 38.2527 89.0884 38.269 89.3218 38.269C89.5551 38.269 89.7931 38.2503 90.0358 38.213C90.2831 38.1757 90.5398 38.115 90.8058 38.031C91.0764 37.9517 91.3074 37.828 91.4988 37.66C91.6901 37.4967 91.8091 37.303 91.8558 37.079C91.9538 36.631 92.0028 35.9357 92.0028 34.993C92.0028 34.3023 91.9888 33.2663 91.9608 31.885C91.9328 30.499 91.9188 29.4607 91.9188 28.77C91.9188 28.6067 92.0098 28.525 92.1918 28.525C92.4438 28.525 92.8124 28.5763 93.2978 28.679C93.7831 28.7817 94.1518 28.833 94.4038 28.833ZM83.8198 29.323C83.5724 29.183 83.3671 28.9637 83.2037 28.665C83.0404 28.3663 82.9307 28.077 82.8747 27.797C82.8187 27.5123 82.7907 27.23 82.7907 26.95C82.7907 26.6933 82.8117 26.4483 82.8537 26.215C82.8911 25.9817 82.9564 25.7437 83.0497 25.501C83.1431 25.2537 83.2807 25.0343 83.4628 24.843C83.6494 24.647 83.8734 24.4953 84.1348 24.388C84.5921 24.206 86.1251 24.115 88.7338 24.115H90.1478C92.9991 24.115 94.6511 24.206 95.1038 24.388C95.2904 24.4673 95.4631 24.57 95.6218 24.696L96.3498 25.207C96.9144 25.6037 97.1968 26.3153 97.1968 27.342C97.1968 27.6593 97.1478 28.028 97.0498 28.448C96.9518 28.868 96.8024 29.2227 96.6018 29.512C96.4431 29.7453 96.2564 29.9087 96.0418 30.002C95.8318 30.0907 95.5728 30.135 95.2648 30.135C94.9708 30.135 94.5531 30.079 94.0118 29.967C93.6804 29.9017 93.5031 29.8667 93.4798 29.862C93.4844 30.7253 93.4984 31.5957 93.5218 32.473C93.5498 33.8543 93.5638 34.895 93.5638 35.595C93.5638 36.5657 93.5101 37.31 93.4028 37.828C93.3234 38.136 93.1648 38.4067 92.9268 38.64C92.6888 38.878 92.4111 39.06 92.0938 39.186C91.7811 39.3167 91.4614 39.4123 91.1348 39.473C90.8128 39.5383 90.4954 39.571 90.1828 39.571C89.3101 39.571 88.6288 39.3983 88.1388 39.053L87.4178 38.549C87.2358 38.4417 87.0818 38.3157 86.9558 38.171C86.8344 38.031 86.7411 37.8957 86.6758 37.765C86.6104 37.6343 86.5614 37.4663 86.5288 37.261C86.4961 37.0603 86.4774 36.8923 86.4728 36.757C86.4681 36.6217 86.4658 36.4327 86.4658 36.19C86.4658 34.1553 86.5101 32.4077 86.5988 30.947C86.6034 30.8397 86.6151 30.681 86.6338 30.471C86.6524 30.2563 86.6641 30.1233 86.6688 30.072C86.6734 30.0627 86.6758 30.0487 86.6758 30.03C86.6804 30.0067 86.6828 29.9903 86.6828 29.981C86.1648 30.0603 85.7448 30.1 85.4228 30.1C85.1008 30.1 84.8161 30.0137 84.5688 29.841L83.8198 29.323Z" fill="white"/>
</g>
<defs>
<filter id="filter0_diiiii_30_45" x="0.5" y="-1" width="130" height="67.5" filterUnits="userSpaceOnUse" color-interpolation-filters="sRGB">
<feFlood flood-opacity="0" result="BackgroundImageFix"/>
<feColorMatrix in="SourceAlpha" type="matrix" values="0 0 0 0 0 0 0 0 0 0 0 0 0 0 0 0 0 0 127 0" result="hardAlpha"/>
<feOffset dy="2"/>
<feGaussianBlur stdDeviation="1.25"/>
<feComposite in2="hardAlpha" operator="out"/>
<feColorMatrix type="matrix" values="0 0 0 0 0.745833 0 0 0 0 0.0559375 0 0 0 0 0.538864 0 0 0 0.25 0"/>
<feBlend mode="normal" in2="BackgroundImageFix" result="effect1_dropShadow_30_45"/>
<feBlend mode="normal" in="SourceGraphic" in2="effect1_dropShadow_30_45" result="shape"/>
<feColorMatrix in="SourceAlpha" type="matrix" values="0 0 0 0 0 0 0 0 0 0 0 0 0 0 0 0 0 0 127 0" result="hardAlpha"/>
<feMorphology radius="1" operator="erode" in="SourceAlpha" result="effect2_innerShadow_30_45"/>
<feOffset dy="-2"/>
<feGaussianBlur stdDeviation="1"/>
<feComposite in2="hardAlpha" operator="arithmetic" k2="-1" k3="1"/>
<feColorMatrix type="matrix" values="0 0 0 0 0.262745 0 0 0 0 0.0666667 0 0 0 0 0.203922 0 0 0 1 0"/>
<feBlend mode="normal" in2="shape" result="effect2_innerShadow_30_45"/>
<feColorMatrix in="SourceAlpha" type="matrix" values="0 0 0 0 0 0 0 0 0 0 0 0 0 0 0 0 0 0 127 0" result="hardAlpha"/>
<feMorphology radius="1" operator="erode" in="SourceAlpha" result="effect3_innerShadow_30_45"/>
<feOffset dy="2"/>
<feGaussianBlur stdDeviation="1"/>
<feComposite in2="hardAlpha" operator="arithmetic" k2="-1" k3="1"/>
<feColorMatrix type="matrix" values="0 0 0 0 1 0 0 0 0 1 0 0 0 0 1 0 0 0 0.5 0"/>
<feBlend mode="normal" in2="effect2_innerShadow_30_45" result="effect3_innerShadow_30_45"/>
<feColorMatrix in="SourceAlpha" type="matrix" values="0 0 0 0 0 0 0 0 0 0 0 0 0 0 0 0 0 0 127 0" result="hardAlpha"/>
<feMorphology radius="1" operator="erode" in="SourceAlpha" result="effect4_innerShadow_30_45"/>
<feOffset dy="2"/>
<feComposite in2="hardAlpha" operator="arithmetic" k2="-1" k3="1"/>
<feColorMatrix type="matrix" values="0 0 0 0 0.262745 0 0 0 0 0.0666667 0 0 0 0 0.203922 0 0 0 1 0"/>
<feBlend mode="normal" in2="effect3_innerShadow_30_45" result="effect4_innerShadow_30_45"/>
<feColorMatrix in="SourceAlpha" type="matrix" values="0 0 0 0 0 0 0 0 0 0 0 0 0 0 0 0 0 0 127 0" result="hardAlpha"/>
<feOffset dx="2"/>
<feGaussianBlur stdDeviation="0.5"/>
<feComposite in2="hardAlpha" operator="arithmetic" k2="-1" k3="1"/>
<feColorMatrix type="matrix" values="0 0 0 0 0.262745 0 0 0 0 0.0666667 0 0 0 0 0.203922 0 0 0 1 0"/>
<feBlend mode="normal" in2="effect4_innerShadow_30_45" result="effect5_innerShadow_30_45"/>
<feColorMatrix in="SourceAlpha" type="matrix" values="0 0 0 0 0 0 0 0 0 0 0 0 0 0 0 0 0 0 127 0" result="hardAlpha"/>
<feOffset dx="-2"/>
<feGaussianBlur stdDeviation="0.5"/>
<feComposite in2="hardAlpha" operator="arithmetic" k2="-1" k3="1"/>
<feColorMatrix type="matrix" values="0 0 0 0 0.262745 0 0 0 0 0.0666667 0 0 0 0 0.203922 0 0 0 1 0"/>
<feBlend mode="normal" in2="effect5_innerShadow_30_45" result="effect6_innerShadow_30_45"/>
</filter>
<linearGradient id="paint0_linear_30_45" x1="18.3571" y1="49.6094" x2="163.6" y2="25.5784" gradientUnits="userSpaceOnUse">
<stop stop-color="#DA5476"/>
<stop offset="1" stop-color="#FBCAA2"/>
</linearGradient>
</defs>
</svg>
