<svg width="167" height="107" viewBox="0 0 167 107" fill="none" xmlns="http://www.w3.org/2000/svg">
<path d="M85.893 101.187C85.2772 102.993 82.7228 102.993 82.107 101.187L67.5814 58.5802C67.139 57.2826 68.1035 55.9348 69.4744 55.9348L98.5256 55.9348C99.8965 55.9348 100.861 57.2826 100.419 58.5802L85.893 101.187Z" fill="#E98B8A"/>
<circle cx="84" cy="103" r="3" fill="white"/>
<g filter="url(#filter0_diiiii_30_62)">
<rect x="3" y="1" width="161" height="61" rx="30.5" fill="url(#paint0_linear_30_62)" shape-rendering="crispEdges"/>
<rect x="3.5" y="1.5" width="160" height="60" rx="30" stroke="#431134" shape-rendering="crispEdges"/>
<path d="M41.328 35.882C41.1693 35.882 41.027 35.8143 40.901 35.679C40.775 35.5437 40.6747 35.357 40.6 35.119C40.53 34.8857 40.4717 34.6477 40.425 34.405C40.3783 34.1623 40.3457 33.894 40.327 33.6C40.3083 33.3013 40.2943 33.068 40.285 32.9C40.2803 32.7273 40.278 32.557 40.278 32.389C40.278 32.1323 40.2967 31.738 40.334 31.206C40.3713 30.674 40.4273 30.079 40.502 29.421C40.5767 28.763 40.6863 28.196 40.831 27.72C40.9757 27.2393 41.139 26.999 41.321 26.999C41.3863 26.999 41.4517 27.0363 41.517 27.111C41.5823 27.1857 41.6383 27.286 41.685 27.412C41.7363 27.5333 41.7807 27.6523 41.818 27.769C41.8553 27.881 41.8903 28 41.923 28.126C41.9603 28.252 41.986 28.3337 42 28.371C42.1493 28.7863 42.3617 29.0617 42.637 29.197C42.917 29.3323 43.302 29.4 43.792 29.4C43.9833 29.4 44.1817 29.386 44.387 29.358C44.5923 29.33 44.8093 29.2833 45.038 29.218C45.2667 29.148 45.4533 29.0407 45.598 28.896C45.7473 28.7467 45.822 28.5717 45.822 28.371C45.822 28.1237 45.7287 27.7947 45.542 27.384C45.36 26.9687 45.1757 26.628 44.989 26.362C44.7323 25.9887 44.3917 25.6807 43.967 25.438C43.547 25.1953 43.1177 25.0273 42.679 24.934C42.2403 24.836 41.7783 24.787 41.293 24.787C40.4157 24.787 39.5897 24.9573 38.815 25.298C38.045 25.634 37.4173 26.1333 36.932 26.796C36.4327 27.4773 36.05 28.2707 35.784 29.176C35.5227 30.0767 35.392 30.9773 35.392 31.878C35.392 32.802 35.525 33.656 35.791 34.44C36.057 35.2193 36.4373 35.8937 36.932 36.463C37.4313 37.0323 38.059 37.4757 38.815 37.793C39.5757 38.115 40.4273 38.276 41.37 38.276C42.0327 38.276 42.6837 38.1687 43.323 37.954C43.9623 37.7393 44.5457 37.408 45.073 36.96C45.605 36.512 45.9877 35.9823 46.221 35.371C46.2957 35.1843 46.333 35.0023 46.333 34.825C46.333 34.125 45.5653 33.775 44.03 33.775C43.4047 33.775 42.966 33.8637 42.714 34.041C42.5507 34.153 42.4223 34.293 42.329 34.461C42.2357 34.6243 42.1493 34.811 42.07 35.021C41.9953 35.231 41.9183 35.3967 41.839 35.518C41.6803 35.7607 41.51 35.882 41.328 35.882ZM37.625 37.989C36.673 37.3917 35.945 36.5633 35.441 35.504C34.937 34.4447 34.685 33.236 34.685 31.878C34.685 30.9213 34.8297 29.9507 35.119 28.966C35.413 27.9813 35.8283 27.118 36.365 26.376C36.925 25.634 37.646 25.067 38.528 24.675C39.41 24.2783 40.3317 24.08 41.293 24.08C41.9323 24.08 42.5623 24.171 43.183 24.353C43.8037 24.535 44.3497 24.8127 44.821 25.186L45.486 25.648C45.8547 25.9093 46.1673 26.215 46.424 26.565C46.6387 26.873 46.851 27.2743 47.061 27.769C47.2757 28.2637 47.383 28.665 47.383 28.973C47.383 29.2903 47.292 29.568 47.11 29.806C46.9327 30.044 46.6993 30.226 46.41 30.352C46.1253 30.4733 45.836 30.562 45.542 30.618C45.248 30.674 44.9517 30.702 44.653 30.702C43.8877 30.702 43.3277 30.5783 42.973 30.331L42.238 29.813C42.14 29.757 42.0467 29.6917 41.958 29.617C41.8787 30.779 41.839 31.9037 41.839 32.991C41.839 33.3363 41.8437 33.6373 41.853 33.894C42.1003 33.572 42.4013 33.355 42.756 33.243C43.1153 33.1263 43.54 33.068 44.03 33.068C45.2247 33.068 46.06 33.2687 46.536 33.67L47.271 34.181C47.6863 34.4703 47.894 34.8857 47.894 35.427C47.894 35.6883 47.8403 35.9567 47.733 36.232C47.4623 36.9273 47.0283 37.5317 46.431 38.045C45.8383 38.563 45.178 38.948 44.45 39.2C43.7267 39.452 42.987 39.578 42.231 39.578C40.6723 39.578 39.347 39.1953 38.255 38.43L37.625 37.989ZM52.7404 24.759C50.9857 24.759 49.6604 25.4427 48.7644 26.81C48.2464 27.5987 47.8147 28.5973 47.4694 29.806C47.1241 31.01 46.9514 32.0927 46.9514 33.054C46.9514 33.7867 47.0447 34.4447 47.2314 35.028C47.4181 35.6113 47.6817 36.106 48.0224 36.512C48.3631 36.918 48.7784 37.2563 49.2684 37.527C49.7584 37.7977 50.2997 37.9937 50.8924 38.115C51.4851 38.241 52.1337 38.304 52.8384 38.304C53.5571 38.304 54.2151 38.2387 54.8124 38.108C55.4097 37.9773 55.9534 37.772 56.4434 37.492C56.9334 37.212 57.3487 36.862 57.6894 36.442C58.0301 36.0267 58.2914 35.5227 58.4734 34.93C58.6601 34.3373 58.7534 33.6723 58.7534 32.935C58.7534 31.9877 58.5877 30.9377 58.2564 29.785C57.9297 28.6277 57.5121 27.6757 57.0034 26.929C56.5181 26.2197 55.9067 25.6807 55.1694 25.312C54.4321 24.9433 53.6224 24.759 52.7404 24.759ZM52.8104 35.203C52.6517 35.203 52.5094 35.147 52.3834 35.035C52.2621 34.923 52.1641 34.769 52.0894 34.573C52.0194 34.377 51.9587 34.1787 51.9074 33.978C51.8607 33.7727 51.8281 33.544 51.8094 33.292C51.7907 33.04 51.7767 32.837 51.7674 32.683C51.7627 32.529 51.7604 32.3727 51.7604 32.214C51.7604 31.99 51.7791 31.6517 51.8164 31.199C51.8537 30.7417 51.9097 30.233 51.9844 29.673C52.0591 29.113 52.1687 28.63 52.3134 28.224C52.4581 27.818 52.6214 27.615 52.8034 27.615C52.9901 27.615 53.1534 27.8133 53.2934 28.21C53.4381 28.6067 53.5454 29.0827 53.6154 29.638C53.6854 30.1887 53.7367 30.6857 53.7694 31.129C53.8067 31.5677 53.8254 31.9013 53.8254 32.13C53.8254 32.284 53.8207 32.4403 53.8114 32.599C53.8067 32.753 53.7951 32.9583 53.7764 33.215C53.7577 33.4717 53.7251 33.7073 53.6784 33.922C53.6317 34.1367 53.5734 34.3467 53.5034 34.552C53.4334 34.7527 53.3377 34.9113 53.2164 35.028C53.0997 35.1447 52.9644 35.203 52.8104 35.203ZM52.7404 24.052C54.1497 24.052 55.3631 24.4487 56.3804 25.242L57.0174 25.69C57.5681 26.0727 58.0417 26.5557 58.4384 27.139C58.9844 27.937 59.4324 28.952 59.7824 30.184C60.1371 31.4113 60.3144 32.529 60.3144 33.537C60.3144 34.5543 60.1604 35.4503 59.8524 36.225C59.5491 36.9997 59.1081 37.632 58.5294 38.122C57.9507 38.6167 57.2577 38.9877 56.4504 39.235C55.6431 39.4823 54.7261 39.606 53.6994 39.606C51.8467 39.606 50.3651 39.221 49.2544 38.451L48.6104 37.996C47.0331 37.016 46.2444 35.3687 46.2444 33.054C46.2444 32.032 46.4287 30.8817 46.7974 29.603C47.1661 28.3243 47.6257 27.265 48.1764 26.425C49.2077 24.843 50.7291 24.052 52.7404 24.052ZM53.5594 35.028C53.5967 35.0793 53.6341 35.105 53.6714 35.105L53.5594 35.028ZM64.9405 25.256C65.0105 25.3073 65.0759 25.3587 65.1365 25.41C65.1972 25.4613 65.2555 25.5243 65.3115 25.599C65.3675 25.669 65.4119 25.725 65.4445 25.767C65.4772 25.809 65.5192 25.879 65.5705 25.977C65.6265 26.0703 65.6639 26.1333 65.6825 26.166C65.7059 26.1987 65.7479 26.2757 65.8085 26.397C65.8692 26.5137 65.9065 26.5883 65.9205 26.621C65.9252 26.3877 65.9532 26.1473 66.0045 25.9C66.0745 25.5687 66.2332 25.2817 66.4805 25.039C66.7279 24.7963 67.0195 24.6143 67.3555 24.493C67.6915 24.3717 68.0135 24.2853 68.3215 24.234C68.6342 24.178 68.9352 24.15 69.2245 24.15C70.1859 24.15 70.9092 24.353 71.3945 24.759L72.1155 25.263C72.5355 25.557 72.7899 25.9723 72.8785 26.509C72.9579 26.957 72.9975 27.5823 72.9975 28.385V28.791C72.9975 31.759 72.9509 33.9757 72.8575 35.441C72.8482 35.553 72.8389 35.7117 72.8295 35.917C72.7829 36.743 72.7129 37.3637 72.6195 37.779C72.5589 38.0823 72.4329 38.353 72.2415 38.591C72.0549 38.829 71.8262 39.0157 71.5555 39.151C71.2895 39.291 71.0095 39.396 70.7155 39.466C70.4215 39.536 70.1205 39.571 69.8125 39.571C69.0939 39.571 68.5199 39.4193 68.0905 39.116L67.3695 38.612C66.9775 38.3833 66.6719 38.0403 66.4525 37.583C66.3965 37.4663 66.3125 37.2867 66.2005 37.044C66.1912 37.3287 66.1655 37.5853 66.1235 37.814C66.0675 38.1267 65.9205 38.402 65.6825 38.64C65.4492 38.878 65.1669 39.06 64.8355 39.186C64.5089 39.3167 64.1799 39.4123 63.8485 39.473C63.5219 39.5383 63.2045 39.571 62.8965 39.571C61.9445 39.571 61.2492 39.417 60.8105 39.109L60.0755 38.598C59.9029 38.5 59.7582 38.3763 59.6415 38.227C59.5249 38.0823 59.4315 37.9307 59.3615 37.772C59.2962 37.618 59.2449 37.4243 59.2075 37.191C59.1749 36.9577 59.1539 36.7407 59.1445 36.54C59.1352 36.3393 59.1305 36.085 59.1305 35.777C59.1305 32.445 59.1772 29.9483 59.2705 28.287C59.2799 28.091 59.2869 27.9417 59.2915 27.839C59.3289 26.9897 59.3989 26.355 59.5015 25.935C59.5762 25.6177 59.7115 25.3377 59.9075 25.095C60.1082 24.8523 60.3439 24.6657 60.6145 24.535C60.8899 24.3997 61.1699 24.3017 61.4545 24.241C61.7392 24.1757 62.0285 24.143 62.3225 24.143C63.0879 24.143 63.7272 24.3507 64.2405 24.766L64.9405 25.256ZM68.9515 38.269C69.1755 38.269 69.3949 38.2457 69.6095 38.199C69.8289 38.157 70.0412 38.0893 70.2465 37.996C70.4565 37.9073 70.6339 37.779 70.7785 37.611C70.9279 37.443 71.0282 37.247 71.0795 37.023C71.1169 36.855 71.1472 36.666 71.1705 36.456C71.1985 36.246 71.2172 36.0687 71.2265 35.924C71.2405 35.784 71.2545 35.5857 71.2685 35.329C71.2825 35.0723 71.2919 34.8927 71.2965 34.79C71.3899 33.3247 71.4365 31.1243 71.4365 28.189C71.4365 27.1623 71.4015 26.4413 71.3315 26.026C71.2009 25.2467 70.4985 24.857 69.2245 24.857C68.9912 24.857 68.7509 24.8757 68.5035 24.913C68.2609 24.9503 68.0065 25.011 67.7405 25.095C67.4745 25.1743 67.2459 25.298 67.0545 25.466C66.8632 25.6293 66.7442 25.823 66.6975 26.047C66.6742 26.1637 66.6555 26.2943 66.6415 26.439C66.6275 26.579 66.6182 26.7003 66.6135 26.803C66.6135 26.9057 66.6112 27.041 66.6065 27.209C66.6065 27.377 66.6065 27.5007 66.6065 27.58C66.5692 28.9987 66.5505 30.065 66.5505 30.779C66.5505 30.8443 66.5179 30.877 66.4525 30.877C66.4152 30.877 66.3545 30.779 66.2705 30.583C66.1912 30.387 66.1002 30.149 65.9975 29.869C65.8995 29.5843 65.8482 29.4397 65.8435 29.435C65.6522 28.945 65.3255 28.196 64.8635 27.188C64.4015 26.18 64.0982 25.6037 63.9535 25.459C63.5522 25.053 63.0085 24.85 62.3225 24.85C62.0145 24.85 61.7182 24.8873 61.4335 24.962C61.1535 25.0367 60.8922 25.172 60.6495 25.368C60.4115 25.5593 60.2575 25.802 60.1875 26.096C60.1502 26.264 60.1175 26.4553 60.0895 26.67C60.0615 26.88 60.0429 27.0527 60.0335 27.188C60.0242 27.3233 60.0125 27.5263 59.9985 27.797C59.9892 28.063 59.9822 28.2403 59.9775 28.329C59.8842 30.0183 59.8375 32.3003 59.8375 35.175C59.8375 35.245 59.8375 35.35 59.8375 35.49C59.8329 35.6627 59.8305 35.826 59.8305 35.98C59.8352 36.1387 59.8399 36.2903 59.8445 36.435C59.8539 36.5797 59.8679 36.715 59.8865 36.841C59.9099 36.9717 59.9379 37.093 59.9705 37.205C60.0032 37.317 60.0475 37.422 60.1035 37.52C60.1595 37.618 60.2249 37.7043 60.2995 37.779C60.3789 37.8583 60.4722 37.9283 60.5795 37.989C60.6915 38.0497 60.8175 38.101 60.9575 38.143C61.0975 38.185 61.2562 38.2153 61.4335 38.234C61.6155 38.2573 61.8162 38.269 62.0355 38.269C62.2595 38.269 62.4952 38.2503 62.7425 38.213C62.9945 38.1757 63.2535 38.115 63.5195 38.031C63.7902 37.947 64.0212 37.8233 64.2125 37.66C64.4085 37.4967 64.5299 37.303 64.5765 37.079C64.5999 36.9483 64.6162 36.8177 64.6255 36.687C64.6395 36.5563 64.6465 36.3813 64.6465 36.162C64.6512 35.9473 64.6535 35.8167 64.6535 35.77C64.6909 34.3047 64.7095 33.2057 64.7095 32.473C64.7095 32.4637 64.7072 32.4357 64.7025 32.389C64.6979 32.3377 64.6955 32.2933 64.6955 32.256C64.6955 32.214 64.6979 32.172 64.7025 32.13C64.7072 32.0833 64.7189 32.046 64.7375 32.018C64.7562 31.99 64.7795 31.976 64.8075 31.976C64.8495 31.976 64.8822 31.997 64.9055 32.039C65.0829 32.3937 65.2975 32.914 65.5495 33.6C65.8015 34.286 65.9742 34.7387 66.0675 34.958C66.5249 36.0313 66.8655 36.8037 67.0895 37.275C67.4069 37.9377 68.0275 38.269 68.9515 38.269ZM83.1791 28.833C83.3611 28.833 83.5151 28.812 83.6411 28.77C83.8231 28.7093 83.9771 28.5437 84.1031 28.273C84.2291 27.9977 84.3108 27.7293 84.3481 27.468C84.3901 27.2067 84.4111 26.964 84.4111 26.74C84.4111 25.83 84.1451 25.2653 83.6131 25.046C83.2445 24.8967 81.6811 24.822 78.9231 24.822H77.6631C75.0451 24.822 73.5495 24.8967 73.1761 25.046C72.5741 25.2933 72.2731 25.928 72.2731 26.95C72.2731 27.1367 72.2895 27.328 72.3221 27.524C72.3548 27.7153 72.4085 27.9137 72.4831 28.119C72.5578 28.3197 72.6675 28.483 72.8121 28.609C72.9615 28.735 73.1365 28.798 73.3371 28.798C73.6311 28.798 74.0698 28.7537 74.6531 28.665C75.2411 28.5717 75.6821 28.525 75.9761 28.525C76.0555 28.525 76.1185 28.5507 76.1651 28.602C76.2118 28.6487 76.2351 28.7093 76.2351 28.784C76.2351 29.0687 76.2118 29.4723 76.1651 29.995C76.1185 30.5177 76.0905 30.849 76.0811 30.989C75.9925 32.4497 75.9481 34.1833 75.9481 36.19C75.9481 36.596 75.9621 36.8993 75.9901 37.1C76.0228 37.3333 76.1115 37.5317 76.2561 37.695C76.4008 37.8583 76.5805 37.9773 76.7951 38.052C77.0145 38.1313 77.2268 38.1873 77.4321 38.22C77.6421 38.2527 77.8638 38.269 78.0971 38.269C78.3305 38.269 78.5685 38.2503 78.8111 38.213C79.0585 38.1757 79.3151 38.115 79.5811 38.031C79.8518 37.9517 80.0828 37.828 80.2741 37.66C80.4655 37.4967 80.5845 37.303 80.6311 37.079C80.7291 36.631 80.7781 35.9357 80.7781 34.993C80.7781 34.3023 80.7641 33.2663 80.7361 31.885C80.7081 30.499 80.6941 29.4607 80.6941 28.77C80.6941 28.6067 80.7851 28.525 80.9671 28.525C81.2191 28.525 81.5878 28.5763 82.0731 28.679C82.5585 28.7817 82.9271 28.833 83.1791 28.833ZM72.5951 29.323C72.3478 29.183 72.1425 28.9637 71.9791 28.665C71.8158 28.3663 71.7061 28.077 71.6501 27.797C71.5941 27.5123 71.5661 27.23 71.5661 26.95C71.5661 26.6933 71.5871 26.4483 71.6291 26.215C71.6665 25.9817 71.7318 25.7437 71.8251 25.501C71.9185 25.2537 72.0561 25.0343 72.2381 24.843C72.4248 24.647 72.6488 24.4953 72.9101 24.388C73.3675 24.206 74.9005 24.115 77.5091 24.115H78.9231C81.7745 24.115 83.4265 24.206 83.8791 24.388C84.0658 24.4673 84.2385 24.57 84.3971 24.696L85.1251 25.207C85.6898 25.6037 85.9721 26.3153 85.9721 27.342C85.9721 27.6593 85.9231 28.028 85.8251 28.448C85.7271 28.868 85.5778 29.2227 85.3771 29.512C85.2185 29.7453 85.0318 29.9087 84.8171 30.002C84.6071 30.0907 84.3481 30.135 84.0401 30.135C83.7461 30.135 83.3285 30.079 82.7871 29.967C82.4558 29.9017 82.2785 29.8667 82.2551 29.862C82.2598 30.7253 82.2738 31.5957 82.2971 32.473C82.3251 33.8543 82.3391 34.895 82.3391 35.595C82.3391 36.5657 82.2855 37.31 82.1781 37.828C82.0988 38.136 81.9401 38.4067 81.7021 38.64C81.4641 38.878 81.1865 39.06 80.8691 39.186C80.5565 39.3167 80.2368 39.4123 79.9101 39.473C79.5881 39.5383 79.2708 39.571 78.9581 39.571C78.0855 39.571 77.4041 39.3983 76.9141 39.053L76.1931 38.549C76.0111 38.4417 75.8571 38.3157 75.7311 38.171C75.6098 38.031 75.5165 37.8957 75.4511 37.765C75.3858 37.6343 75.3368 37.4663 75.3041 37.261C75.2715 37.0603 75.2528 36.8923 75.2481 36.757C75.2435 36.6217 75.2411 36.4327 75.2411 36.19C75.2411 34.1553 75.2855 32.4077 75.3741 30.947C75.3788 30.8397 75.3905 30.681 75.4091 30.471C75.4278 30.2563 75.4395 30.1233 75.4441 30.072C75.4488 30.0627 75.4511 30.0487 75.4511 30.03C75.4558 30.0067 75.4581 29.9903 75.4581 29.981C74.9401 30.0603 74.5201 30.1 74.1981 30.1C73.8761 30.1 73.5915 30.0137 73.3441 29.841L72.5951 29.323ZM89.5822 24.822C88.0748 24.822 87.1298 25.186 86.7472 25.914C86.4625 26.46 85.9025 28.294 85.0672 31.416C84.2318 34.538 83.8142 36.379 83.8142 36.939C83.8142 37.1817 83.8958 37.3917 84.0592 37.569C84.2272 37.7463 84.4395 37.877 84.6962 37.961C84.9575 38.0497 85.2095 38.1127 85.4522 38.15C85.6948 38.192 85.9282 38.213 86.1522 38.213C87.2908 38.213 88.0048 37.9097 88.2942 37.303C88.4248 37.0323 88.5182 36.6567 88.5742 36.176C88.6348 35.7 88.6838 35.245 88.7212 34.811C88.7632 34.377 88.8238 34.0737 88.9032 33.901C88.9778 33.7377 89.0735 33.6303 89.1902 33.579C89.3068 33.523 89.4655 33.495 89.6662 33.495C89.8622 33.495 90.0185 33.523 90.1352 33.579C90.2518 33.6303 90.3498 33.7377 90.4292 33.901C90.4572 33.957 90.5015 34.2183 90.5622 34.685C90.5668 34.7177 90.5855 34.8693 90.6182 35.14C90.6555 35.4107 90.6858 35.63 90.7092 35.798C90.7372 35.9707 90.7698 36.1783 90.8072 36.421C90.8492 36.6683 90.8912 36.8783 90.9332 37.051C90.9798 37.2237 91.0242 37.3543 91.0662 37.443C91.2202 37.7603 91.4605 37.9727 91.7872 38.08C92.1138 38.192 92.4965 38.248 92.9352 38.248C93.1078 38.248 93.2968 38.234 93.5022 38.206C93.7122 38.1827 93.9362 38.136 94.1742 38.066C94.4168 38.0007 94.6338 37.919 94.8252 37.821C95.0212 37.7277 95.1845 37.5993 95.3152 37.436C95.4458 37.2727 95.5112 37.093 95.5112 36.897C95.5112 36.4397 95.0678 34.6103 94.1812 31.409C93.2992 28.203 92.7368 26.3713 92.4942 25.914C92.3775 25.6947 92.2048 25.508 91.9762 25.354C91.7475 25.2 91.4885 25.088 91.1992 25.018C90.9098 24.9433 90.6368 24.892 90.3802 24.864C90.1235 24.836 89.8575 24.822 89.5822 24.822ZM89.0922 31.038C89.0922 30.7533 89.1085 30.4523 89.1412 30.135C89.1738 29.8177 89.2182 29.463 89.2742 29.071C89.3348 28.6743 89.3768 28.3733 89.4002 28.168C89.4422 28.1073 89.5122 28.077 89.6102 28.077C89.6848 28.077 89.7502 28.1073 89.8062 28.168C89.8155 28.182 89.8668 28.6393 89.9602 29.54C90.0582 30.436 90.1072 30.9447 90.1072 31.066C90.1072 31.136 90.0442 31.1873 89.9182 31.22C89.7968 31.248 89.6848 31.262 89.5822 31.262C89.2555 31.262 89.0922 31.1873 89.0922 31.038ZM89.5822 24.115C90.9168 24.115 91.9132 24.3857 92.5712 24.927L93.2782 25.417C93.5815 25.6317 93.8125 25.8883 93.9712 26.187C94.1298 26.481 94.4612 27.4937 94.9652 29.225C95.4738 30.9563 95.9522 32.6923 96.4002 34.433C96.8482 36.1737 97.0722 37.1957 97.0722 37.499C97.0722 37.849 96.9578 38.1617 96.7292 38.437C96.5052 38.717 96.2182 38.934 95.8682 39.088C95.5228 39.242 95.1705 39.3563 94.8112 39.431C94.4565 39.5103 94.1182 39.55 93.7962 39.55C92.9935 39.55 92.3705 39.3937 91.9272 39.081L91.2062 38.577C90.8655 38.381 90.6275 38.143 90.4922 37.863C90.3568 37.5877 90.2448 37.212 90.1562 36.736C90.0722 37.3753 89.9485 37.8653 89.7852 38.206C89.3792 39.0787 88.4552 39.515 87.0132 39.515C86.6352 39.515 86.2338 39.466 85.8092 39.368C85.3845 39.27 85.0182 39.1113 84.7102 38.892L83.9962 38.395C83.4035 38.045 83.1072 37.5597 83.1072 36.939C83.1072 36.3603 83.5365 34.4633 84.3952 31.248C85.2538 28.0327 85.8302 26.145 86.1242 25.585C86.6375 24.605 87.7902 24.115 89.5822 24.115ZM101.84 35.882C101.681 35.882 101.539 35.8143 101.413 35.679C101.287 35.5437 101.186 35.357 101.112 35.119C101.042 34.8857 100.983 34.6477 100.937 34.405C100.89 34.1623 100.857 33.894 100.839 33.6C100.82 33.3013 100.806 33.068 100.797 32.9C100.792 32.7273 100.79 32.557 100.79 32.389C100.79 32.1323 100.808 31.738 100.846 31.206C100.883 30.674 100.939 30.079 101.014 29.421C101.088 28.763 101.198 28.196 101.343 27.72C101.487 27.2393 101.651 26.999 101.833 26.999C101.898 26.999 101.963 27.0363 102.029 27.111C102.094 27.1857 102.15 27.286 102.197 27.412C102.248 27.5333 102.292 27.6523 102.33 27.769C102.367 27.881 102.402 28 102.435 28.126C102.472 28.252 102.498 28.3337 102.512 28.371C102.661 28.7863 102.873 29.0617 103.149 29.197C103.429 29.3323 103.814 29.4 104.304 29.4C104.495 29.4 104.693 29.386 104.899 29.358C105.104 29.33 105.321 29.2833 105.55 29.218C105.778 29.148 105.965 29.0407 106.11 28.896C106.259 28.7467 106.334 28.5717 106.334 28.371C106.334 28.1237 106.24 27.7947 106.054 27.384C105.872 26.9687 105.687 26.628 105.501 26.362C105.244 25.9887 104.903 25.6807 104.479 25.438C104.059 25.1953 103.629 25.0273 103.191 24.934C102.752 24.836 102.29 24.787 101.805 24.787C100.927 24.787 100.101 24.9573 99.3267 25.298C98.5567 25.634 97.9291 26.1333 97.4437 26.796C96.9444 27.4773 96.5617 28.2707 96.2957 29.176C96.0344 30.0767 95.9037 30.9773 95.9037 31.878C95.9037 32.802 96.0367 33.656 96.3027 34.44C96.5687 35.2193 96.9491 35.8937 97.4437 36.463C97.9431 37.0323 98.5707 37.4757 99.3267 37.793C100.087 38.115 100.939 38.276 101.882 38.276C102.544 38.276 103.195 38.1687 103.835 37.954C104.474 37.7393 105.057 37.408 105.585 36.96C106.117 36.512 106.499 35.9823 106.733 35.371C106.807 35.1843 106.845 35.0023 106.845 34.825C106.845 34.125 106.077 33.775 104.542 33.775C103.916 33.775 103.478 33.8637 103.226 34.041C103.062 34.153 102.934 34.293 102.841 34.461C102.747 34.6243 102.661 34.811 102.582 35.021C102.507 35.231 102.43 35.3967 102.351 35.518C102.192 35.7607 102.022 35.882 101.84 35.882ZM98.1367 37.989C97.1847 37.3917 96.4567 36.5633 95.9527 35.504C95.4487 34.4447 95.1967 33.236 95.1967 31.878C95.1967 30.9213 95.3414 29.9507 95.6307 28.966C95.9247 27.9813 96.3401 27.118 96.8767 26.376C97.4367 25.634 98.1577 25.067 99.0397 24.675C99.9217 24.2783 100.843 24.08 101.805 24.08C102.444 24.08 103.074 24.171 103.695 24.353C104.315 24.535 104.861 24.8127 105.333 25.186L105.998 25.648C106.366 25.9093 106.679 26.215 106.936 26.565C107.15 26.873 107.363 27.2743 107.573 27.769C107.787 28.2637 107.895 28.665 107.895 28.973C107.895 29.2903 107.804 29.568 107.622 29.806C107.444 30.044 107.211 30.226 106.922 30.352C106.637 30.4733 106.348 30.562 106.054 30.618C105.76 30.674 105.463 30.702 105.165 30.702C104.399 30.702 103.839 30.5783 103.485 30.331L102.75 29.813C102.652 29.757 102.558 29.6917 102.47 29.617C102.39 30.779 102.351 31.9037 102.351 32.991C102.351 33.3363 102.355 33.6373 102.365 33.894C102.612 33.572 102.913 33.355 103.268 33.243C103.627 33.1263 104.052 33.068 104.542 33.068C105.736 33.068 106.572 33.2687 107.048 33.67L107.783 34.181C108.198 34.4703 108.406 34.8857 108.406 35.427C108.406 35.6883 108.352 35.9567 108.245 36.232C107.974 36.9273 107.54 37.5317 106.943 38.045C106.35 38.563 105.69 38.948 104.962 39.2C104.238 39.452 103.499 39.578 102.743 39.578C101.184 39.578 99.8587 39.1953 98.7667 38.43L98.1367 37.989ZM117.892 28.833C118.074 28.833 118.228 28.812 118.354 28.77C118.536 28.7093 118.69 28.5437 118.816 28.273C118.942 27.9977 119.024 27.7293 119.061 27.468C119.103 27.2067 119.124 26.964 119.124 26.74C119.124 25.83 118.858 25.2653 118.326 25.046C117.957 24.8967 116.394 24.822 113.636 24.822H112.376C109.758 24.822 108.262 24.8967 107.889 25.046C107.287 25.2933 106.986 25.928 106.986 26.95C106.986 27.1367 107.002 27.328 107.035 27.524C107.068 27.7153 107.121 27.9137 107.196 28.119C107.271 28.3197 107.38 28.483 107.525 28.609C107.674 28.735 107.849 28.798 108.05 28.798C108.344 28.798 108.783 28.7537 109.366 28.665C109.954 28.5717 110.395 28.525 110.689 28.525C110.768 28.525 110.831 28.5507 110.878 28.602C110.925 28.6487 110.948 28.7093 110.948 28.784C110.948 29.0687 110.925 29.4723 110.878 29.995C110.831 30.5177 110.803 30.849 110.794 30.989C110.705 32.4497 110.661 34.1833 110.661 36.19C110.661 36.596 110.675 36.8993 110.703 37.1C110.736 37.3333 110.824 37.5317 110.969 37.695C111.114 37.8583 111.293 37.9773 111.508 38.052C111.727 38.1313 111.94 38.1873 112.145 38.22C112.355 38.2527 112.577 38.269 112.81 38.269C113.043 38.269 113.281 38.2503 113.524 38.213C113.771 38.1757 114.028 38.115 114.294 38.031C114.565 37.9517 114.796 37.828 114.987 37.66C115.178 37.4967 115.297 37.303 115.344 37.079C115.442 36.631 115.491 35.9357 115.491 34.993C115.491 34.3023 115.477 33.2663 115.449 31.885C115.421 30.499 115.407 29.4607 115.407 28.77C115.407 28.6067 115.498 28.525 115.68 28.525C115.932 28.525 116.301 28.5763 116.786 28.679C117.271 28.7817 117.64 28.833 117.892 28.833ZM107.308 29.323C107.061 29.183 106.855 28.9637 106.692 28.665C106.529 28.3663 106.419 28.077 106.363 27.797C106.307 27.5123 106.279 27.23 106.279 26.95C106.279 26.6933 106.3 26.4483 106.342 26.215C106.379 25.9817 106.445 25.7437 106.538 25.501C106.631 25.2537 106.769 25.0343 106.951 24.843C107.138 24.647 107.362 24.4953 107.623 24.388C108.08 24.206 109.613 24.115 112.222 24.115H113.636C116.487 24.115 118.139 24.206 118.592 24.388C118.779 24.4673 118.951 24.57 119.11 24.696L119.838 25.207C120.403 25.6037 120.685 26.3153 120.685 27.342C120.685 27.6593 120.636 28.028 120.538 28.448C120.44 28.868 120.291 29.2227 120.09 29.512C119.931 29.7453 119.745 29.9087 119.53 30.002C119.32 30.0907 119.061 30.135 118.753 30.135C118.459 30.135 118.041 30.079 117.5 29.967C117.169 29.9017 116.991 29.8667 116.968 29.862C116.973 30.7253 116.987 31.5957 117.01 32.473C117.038 33.8543 117.052 34.895 117.052 35.595C117.052 36.5657 116.998 37.31 116.891 37.828C116.812 38.136 116.653 38.4067 116.415 38.64C116.177 38.878 115.899 39.06 115.582 39.186C115.269 39.3167 114.95 39.4123 114.623 39.473C114.301 39.5383 113.984 39.571 113.671 39.571C112.798 39.571 112.117 39.3983 111.627 39.053L110.906 38.549C110.724 38.4417 110.57 38.3157 110.444 38.171C110.323 38.031 110.229 37.8957 110.164 37.765C110.099 37.6343 110.05 37.4663 110.017 37.261C109.984 37.0603 109.966 36.8923 109.961 36.757C109.956 36.6217 109.954 36.4327 109.954 36.19C109.954 34.1553 109.998 32.4077 110.087 30.947C110.092 30.8397 110.103 30.681 110.122 30.471C110.141 30.2563 110.152 30.1233 110.157 30.072C110.162 30.0627 110.164 30.0487 110.164 30.03C110.169 30.0067 110.171 29.9903 110.171 29.981C109.653 30.0603 109.233 30.1 108.911 30.1C108.589 30.1 108.304 30.0137 108.057 29.841L107.308 29.323ZM125.517 38.332C126.077 38.332 126.612 38.2923 127.12 38.213C127.634 38.1383 128.145 38.003 128.653 37.807C129.162 37.6157 129.601 37.3707 129.969 37.072C130.343 36.7733 130.644 36.3837 130.872 35.903C131.106 35.427 131.222 34.8833 131.222 34.272C131.222 33.8707 131.176 33.5067 131.082 33.18C130.994 32.8533 130.877 32.5757 130.732 32.347C130.588 32.1183 130.396 31.913 130.158 31.731C129.925 31.5443 129.694 31.395 129.465 31.283C129.237 31.1663 128.957 31.0567 128.625 30.954C128.294 30.8467 127.998 30.7627 127.736 30.702C127.48 30.6413 127.167 30.5667 126.798 30.478C126.434 30.3893 126.131 30.31 125.888 30.24C125.51 30.128 125.221 29.9787 125.02 29.792C124.824 29.6007 124.726 29.3253 124.726 28.966C124.726 28.6627 124.817 28.364 124.999 28.07C125.186 27.7713 125.422 27.622 125.706 27.622C125.874 27.622 126.012 27.6803 126.119 27.797C126.227 27.9137 126.322 28.0537 126.406 28.217C126.495 28.3803 126.602 28.546 126.728 28.714C126.859 28.8773 127.067 29.0173 127.351 29.134C127.636 29.2507 127.993 29.309 128.422 29.309C128.637 29.309 128.859 29.281 129.087 29.225C129.321 29.1643 129.547 29.078 129.766 28.966C129.986 28.8493 130.182 28.714 130.354 28.56C130.532 28.406 130.672 28.224 130.774 28.014C130.882 27.7993 130.935 27.5777 130.935 27.349C130.935 27.1203 130.849 26.8753 130.676 26.614C130.438 26.2593 130.144 25.9537 129.794 25.697C129.449 25.4357 129.071 25.2327 128.66 25.088C128.254 24.9433 127.844 24.8383 127.428 24.773C127.018 24.7077 126.591 24.675 126.147 24.675C125.377 24.675 124.6 24.766 123.816 24.948C123.037 25.13 122.349 25.4007 121.751 25.76C121.145 26.124 120.648 26.6163 120.26 27.237C119.878 27.853 119.686 28.5017 119.686 29.183C119.686 29.869 119.896 30.4523 120.316 30.933C120.736 31.4137 121.292 31.7753 121.982 32.018C122.188 32.0927 122.519 32.1603 122.976 32.221C123.434 32.2817 123.875 32.3447 124.299 32.41C124.729 32.4707 125.153 32.5617 125.573 32.683C125.998 32.7997 126.339 32.9817 126.595 33.229C126.857 33.4763 126.987 33.782 126.987 34.146C126.987 34.4773 126.861 34.7317 126.609 34.909C126.357 35.0863 126.061 35.175 125.72 35.175C125.529 35.175 125.368 35.147 125.237 35.091C125.111 35.035 125.018 34.9627 124.957 34.874C124.901 34.7807 124.843 34.678 124.782 34.566C124.726 34.4493 124.673 34.3303 124.621 34.209C124.575 34.0877 124.491 33.971 124.369 33.859C124.253 33.7423 124.11 33.6397 123.942 33.551C123.774 33.4577 123.536 33.383 123.228 33.327C122.92 33.271 122.559 33.243 122.143 33.243C121.341 33.243 120.727 33.4017 120.302 33.719C119.878 34.0363 119.665 34.5823 119.665 35.357C119.665 35.7163 119.74 36.0453 119.889 36.344C120.043 36.6427 120.242 36.8923 120.484 37.093C120.732 37.2937 121.026 37.471 121.366 37.625C121.712 37.779 122.057 37.898 122.402 37.982C122.752 38.0707 123.126 38.143 123.522 38.199C123.919 38.255 124.271 38.29 124.579 38.304C124.892 38.3227 125.205 38.332 125.517 38.332ZM132.496 27.951C132.496 28.301 132.412 28.6347 132.244 28.952C132.076 29.2647 131.855 29.5307 131.579 29.75C131.309 29.9693 131.008 30.1513 130.676 30.296C130.35 30.4407 130.018 30.5363 129.682 30.583C130.056 30.7463 130.378 30.9377 130.648 31.157L131.313 31.626C132.293 32.312 132.783 33.3947 132.783 34.874C132.783 35.4573 132.699 35.9893 132.531 36.47C132.363 36.9553 132.125 37.3683 131.817 37.709C131.514 38.0497 131.164 38.346 130.767 38.598C130.371 38.85 129.927 39.0507 129.437 39.2C128.952 39.3493 128.457 39.459 127.953 39.529C127.449 39.599 126.924 39.634 126.378 39.634C125.972 39.634 125.564 39.6177 125.153 39.585C124.747 39.5523 124.297 39.494 123.802 39.41C123.312 39.3307 122.832 39.2047 122.36 39.032C121.894 38.864 121.485 38.6587 121.135 38.416L120.47 37.947C119.462 37.3217 118.958 36.4583 118.958 35.357C118.958 34.475 119.159 33.817 119.56 33.383C119.962 32.949 120.54 32.683 121.296 32.585L120.75 32.2C120.204 31.8593 119.773 31.437 119.455 30.933C119.138 30.4243 118.979 29.841 118.979 29.183C118.979 28.3897 119.206 27.629 119.658 26.901C120.111 26.1683 120.687 25.585 121.387 25.151C122.041 24.7637 122.794 24.4697 123.648 24.269C124.502 24.0683 125.335 23.968 126.147 23.968C127.883 23.968 129.274 24.3787 130.319 25.2L130.97 25.655C131.376 25.9397 131.731 26.2897 132.034 26.705C132.342 27.1203 132.496 27.5357 132.496 27.951ZM126.28 34.146C126.28 34.0853 126.269 34.02 126.245 33.95C126.054 33.8893 125.83 33.8333 125.573 33.782C125.769 33.9453 125.935 34.153 126.07 34.405C126.21 34.349 126.28 34.2627 126.28 34.146ZM126.315 29.316C126.297 29.3813 126.287 29.4817 126.287 29.617C126.376 29.6403 126.593 29.6963 126.938 29.785L126.735 29.645C126.591 29.561 126.451 29.4513 126.315 29.316Z" fill="white"/>
</g>
<defs>
<filter id="filter0_diiiii_30_62" x="0.5" y="-1" width="166" height="67.5" filterUnits="userSpaceOnUse" color-interpolation-filters="sRGB">
<feFlood flood-opacity="0" result="BackgroundImageFix"/>
<feColorMatrix in="SourceAlpha" type="matrix" values="0 0 0 0 0 0 0 0 0 0 0 0 0 0 0 0 0 0 127 0" result="hardAlpha"/>
<feOffset dy="2"/>
<feGaussianBlur stdDeviation="1.25"/>
<feComposite in2="hardAlpha" operator="out"/>
<feColorMatrix type="matrix" values="0 0 0 0 0.745833 0 0 0 0 0.0559375 0 0 0 0 0.538864 0 0 0 0.25 0"/>
<feBlend mode="normal" in2="BackgroundImageFix" result="effect1_dropShadow_30_62"/>
<feBlend mode="normal" in="SourceGraphic" in2="effect1_dropShadow_30_62" result="shape"/>
<feColorMatrix in="SourceAlpha" type="matrix" values="0 0 0 0 0 0 0 0 0 0 0 0 0 0 0 0 0 0 127 0" result="hardAlpha"/>
<feMorphology radius="1" operator="erode" in="SourceAlpha" result="effect2_innerShadow_30_62"/>
<feOffset dy="-2"/>
<feGaussianBlur stdDeviation="1"/>
<feComposite in2="hardAlpha" operator="arithmetic" k2="-1" k3="1"/>
<feColorMatrix type="matrix" values="0 0 0 0 0.262745 0 0 0 0 0.0666667 0 0 0 0 0.203922 0 0 0 1 0"/>
<feBlend mode="normal" in2="shape" result="effect2_innerShadow_30_62"/>
<feColorMatrix in="SourceAlpha" type="matrix" values="0 0 0 0 0 0 0 0 0 0 0 0 0 0 0 0 0 0 127 0" result="hardAlpha"/>
<feMorphology radius="1" operator="erode" in="SourceAlpha" result="effect3_innerShadow_30_62"/>
<feOffset dy="2"/>
<feGaussianBlur stdDeviation="1"/>
<feComposite in2="hardAlpha" operator="arithmetic" k2="-1" k3="1"/>
<feColorMatrix type="matrix" values="0 0 0 0 1 0 0 0 0 1 0 0 0 0 1 0 0 0 0.5 0"/>
<feBlend mode="normal" in2="effect2_innerShadow_30_62" result="effect3_innerShadow_30_62"/>
<feColorMatrix in="SourceAlpha" type="matrix" values="0 0 0 0 0 0 0 0 0 0 0 0 0 0 0 0 0 0 127 0" result="hardAlpha"/>
<feMorphology radius="1" operator="erode" in="SourceAlpha" result="effect4_innerShadow_30_62"/>
<feOffset dy="2"/>
<feComposite in2="hardAlpha" operator="arithmetic" k2="-1" k3="1"/>
<feColorMatrix type="matrix" values="0 0 0 0 0.262745 0 0 0 0 0.0666667 0 0 0 0 0.203922 0 0 0 1 0"/>
<feBlend mode="normal" in2="effect3_innerShadow_30_62" result="effect4_innerShadow_30_62"/>
<feColorMatrix in="SourceAlpha" type="matrix" values="0 0 0 0 0 0 0 0 0 0 0 0 0 0 0 0 0 0 127 0" result="hardAlpha"/>
<feOffset dx="2"/>
<feGaussianBlur stdDeviation="0.5"/>
<feComposite in2="hardAlpha" operator="arithmetic" k2="-1" k3="1"/>
<feColorMatrix type="matrix" values="0 0 0 0 0.262745 0 0 0 0 0.0666667 0 0 0 0 0.203922 0 0 0 1 0"/>
<feBlend mode="normal" in2="effect4_innerShadow_30_62" result="effect5_innerShadow_30_62"/>
<feColorMatrix in="SourceAlpha" type="matrix" values="0 0 0 0 0 0 0 0 0 0 0 0 0 0 0 0 0 0 127 0" result="hardAlpha"/>
<feOffset dx="-2"/>
<feGaussianBlur stdDeviation="0.5"/>
<feComposite in2="hardAlpha" operator="arithmetic" k2="-1" k3="1"/>
<feColorMatrix type="matrix" values="0 0 0 0 0.262745 0 0 0 0 0.0666667 0 0 0 0 0.203922 0 0 0 1 0"/>
<feBlend mode="normal" in2="effect5_innerShadow_30_62" result="effect6_innerShadow_30_62"/>
</filter>
<linearGradient id="paint0_linear_30_62" x1="22.78" y1="49.6094" x2="206.625" y2="10.4312" gradientUnits="userSpaceOnUse">
<stop stop-color="#DA5476"/>
<stop offset="1" stop-color="#FBCAA2"/>
</linearGradient>
</defs>
</svg>
