<svg width="176" height="107" viewBox="0 0 176 107" fill="none" xmlns="http://www.w3.org/2000/svg">
<path d="M89.893 101.187C89.2772 102.993 86.7228 102.993 86.107 101.187L71.5814 58.5802C71.139 57.2826 72.1035 55.9348 73.4744 55.9348L102.526 55.9348C103.896 55.9348 104.861 57.2826 104.419 58.5802L89.893 101.187Z" fill="#E98B8A"/>
<circle cx="88" cy="103" r="3" fill="white"/>
<g filter="url(#filter0_diiiii_30_71)">
<rect x="3" y="1" width="170" height="61" rx="30.5" fill="url(#paint0_linear_30_71)" shape-rendering="crispEdges"/>
<rect x="3.5" y="1.5" width="169" height="60" rx="30" stroke="#431134" shape-rendering="crispEdges"/>
<path d="M49.119 38.269C49.3523 38.269 49.5717 38.2527 49.777 38.22C49.987 38.1873 50.1993 38.1313 50.414 38.052C50.6287 37.9773 50.8083 37.8583 50.953 37.695C51.0977 37.5317 51.1887 37.3333 51.226 37.1C51.254 36.9133 51.268 36.6263 51.268 36.239C51.268 33.6817 51.1933 31.2993 51.044 29.092C51.0347 28.952 51.0183 28.7117 50.995 28.371C50.9763 28.0257 50.96 27.7573 50.946 27.566C50.932 27.3747 50.9063 27.139 50.869 26.859C50.8363 26.579 50.7943 26.3247 50.743 26.096C50.6917 25.8767 50.5913 25.683 50.442 25.515C50.2927 25.347 50.1153 25.2163 49.91 25.123C49.7047 25.0297 49.4923 24.962 49.273 24.92C49.0583 24.8733 48.839 24.85 48.615 24.85C47.8917 24.85 47.3457 25.053 46.977 25.459C46.8043 25.6457 46.4217 26.4437 45.829 27.853C45.2363 29.2577 44.7627 30.415 44.408 31.325C44.3613 31.451 44.2983 31.633 44.219 31.871C44.1443 32.109 44.0697 32.3237 43.995 32.515C43.9203 32.7063 43.8387 32.879 43.75 33.033C43.6893 33.1497 43.6077 33.208 43.505 33.208C43.407 33.208 43.323 33.1497 43.253 33.033C43.1783 32.9023 43.1083 32.7577 43.043 32.599C42.9823 32.4357 42.9193 32.256 42.854 32.06C42.7933 31.8593 42.742 31.7053 42.7 31.598C42.364 30.7347 41.8717 29.5447 41.223 28.028C40.5743 26.5067 40.1637 25.6503 39.991 25.459C39.6223 25.053 39.0763 24.85 38.353 24.85C38.129 24.85 37.9073 24.8733 37.688 24.92C37.4733 24.962 37.2633 25.0297 37.058 25.123C36.8527 25.2163 36.6753 25.347 36.526 25.515C36.3767 25.683 36.2763 25.8767 36.225 26.096C36.1737 26.3247 36.1293 26.579 36.092 26.859C36.0593 27.139 36.036 27.3747 36.022 27.566C36.008 27.7573 35.9893 28.0257 35.966 28.371C35.9473 28.7117 35.9333 28.952 35.924 29.092C35.7747 31.2993 35.7 33.6817 35.7 36.239C35.7 36.6263 35.714 36.9133 35.742 37.1C35.7793 37.3333 35.8703 37.5317 36.015 37.695C36.1597 37.8583 36.3393 37.9773 36.554 38.052C36.7687 38.1313 36.9787 38.1873 37.184 38.22C37.394 38.2527 37.6157 38.269 37.849 38.269C38.0777 38.269 38.3157 38.2503 38.563 38.213C38.8103 38.1757 39.067 38.115 39.333 38.031C39.6037 37.947 39.8347 37.8233 40.026 37.66C40.2173 37.4967 40.3363 37.303 40.383 37.079C40.411 36.939 40.4297 36.7967 40.439 36.652C40.453 36.5073 40.46 36.316 40.46 36.078C40.4647 35.84 40.467 35.6953 40.467 35.644C40.5043 34.2067 40.523 33.131 40.523 32.417C40.523 32.4077 40.5207 32.382 40.516 32.34C40.516 32.2933 40.516 32.2513 40.516 32.214C40.516 32.1767 40.516 32.137 40.516 32.095C40.5207 32.053 40.5323 32.0203 40.551 31.997C40.5697 31.9737 40.593 31.962 40.621 31.962C40.6583 31.962 40.6887 31.983 40.712 32.025C40.9267 32.4543 41.195 33.082 41.517 33.908C41.839 34.734 42.0607 35.2847 42.182 35.56C42.2147 35.6347 42.2707 35.7653 42.35 35.952C42.4293 36.1433 42.4993 36.3043 42.56 36.435C42.6253 36.5703 42.6953 36.6963 42.77 36.813C43.0033 37.191 43.246 37.38 43.498 37.38C43.652 37.38 43.7827 37.3287 43.89 37.226C43.9973 37.1233 44.1 36.9857 44.198 36.813C44.254 36.715 44.3077 36.6123 44.359 36.505C44.4103 36.3977 44.4687 36.2647 44.534 36.106C44.604 35.9473 44.6507 35.8423 44.674 35.791C45.2387 34.5123 45.5957 33.6863 45.745 33.313C45.7823 33.2197 45.8593 33.0213 45.976 32.718C46.0927 32.4147 46.186 32.1837 46.256 32.025L46.347 31.962C46.417 31.9667 46.452 32.046 46.452 32.2C46.452 33.4227 46.4683 34.5707 46.501 35.644C46.5057 35.7233 46.508 35.84 46.508 35.994C46.508 36.1527 46.508 36.2787 46.508 36.372C46.5127 36.47 46.5197 36.5843 46.529 36.715C46.543 36.8503 46.5617 36.9717 46.585 37.079C46.6317 37.303 46.7507 37.4967 46.942 37.66C47.1333 37.8233 47.362 37.947 47.628 38.031C47.8987 38.115 48.1577 38.1757 48.405 38.213C48.6523 38.2503 48.8903 38.269 49.119 38.269ZM41.37 25.592C41.678 25.9373 42.49 27.7177 43.806 30.933C44.198 29.9297 44.6857 28.7513 45.269 27.398C45.8523 26.04 46.249 25.235 46.459 24.983C46.9817 24.423 47.7003 24.143 48.615 24.143C48.993 24.143 49.371 24.199 49.749 24.311C50.127 24.4183 50.456 24.5863 50.736 24.815L51.443 25.312C51.8957 25.6293 52.1757 26.04 52.283 26.544C52.4043 27.0807 52.4977 27.8973 52.563 28.994C52.7403 31.7567 52.829 34.3723 52.829 36.841C52.829 37.261 52.8127 37.583 52.78 37.807C52.7193 38.143 52.6003 38.43 52.423 38.668C52.2457 38.906 52.024 39.088 51.758 39.214C51.492 39.34 51.2143 39.431 50.925 39.487C50.6357 39.543 50.3207 39.571 49.98 39.571C49.5833 39.571 49.154 39.5173 48.692 39.41C48.2347 39.3027 47.8403 39.1323 47.509 38.899L46.802 38.402C46.3213 38.122 46.0227 37.751 45.906 37.289C45.8127 37.4897 45.7263 37.6577 45.647 37.793C45.5677 37.933 45.465 38.0777 45.339 38.227C45.213 38.3763 45.0683 38.4883 44.905 38.563C44.7417 38.6423 44.5597 38.682 44.359 38.682C44.0883 38.682 43.841 38.605 43.617 38.451L42.875 37.926C42.707 37.8373 42.546 37.6973 42.392 37.506C42.2427 37.3193 42.119 37.1233 42.021 36.918C42.0117 37.2633 41.9813 37.5643 41.93 37.821C41.86 38.1383 41.7083 38.416 41.475 38.654C41.2417 38.892 40.964 39.074 40.642 39.2C40.32 39.326 39.9957 39.4193 39.669 39.48C39.347 39.5407 39.0273 39.571 38.71 39.571C37.8373 39.571 37.1583 39.4007 36.673 39.06L35.952 38.556C35.7327 38.4253 35.553 38.276 35.413 38.108C35.2777 37.9447 35.1797 37.751 35.119 37.527C35.063 37.3077 35.028 37.1093 35.014 36.932C35 36.7593 34.993 36.5283 34.993 36.239C34.993 33.7703 35.0817 31.1547 35.259 28.392C35.3243 27.2953 35.4153 26.4787 35.532 25.942C35.6067 25.6247 35.7443 25.3447 35.945 25.102C36.1457 24.8593 36.3813 24.6727 36.652 24.542C36.9227 24.4067 37.2003 24.3063 37.485 24.241C37.7697 24.1757 38.059 24.143 38.353 24.143C39.137 24.143 39.7763 24.346 40.271 24.752L40.985 25.249C41.125 25.347 41.2533 25.4613 41.37 25.592ZM55.2428 24.871C54.9301 24.871 54.6408 24.9083 54.3748 24.983C54.1135 25.053 53.8708 25.1837 53.6468 25.375C53.4275 25.5617 53.2758 25.802 53.1918 26.096C53.1265 26.32 53.0751 26.5697 53.0378 26.845C53.0005 27.1203 52.9748 27.3607 52.9608 27.566C52.9515 27.7667 52.9398 28.0327 52.9258 28.364C52.9118 28.6907 52.9001 28.9333 52.8908 29.092C52.7368 31.598 52.6598 33.9943 52.6598 36.281C52.6598 36.6497 52.6761 36.9227 52.7088 37.1C52.8581 37.8793 53.5605 38.269 54.8158 38.269C55.0585 38.269 55.3011 38.2503 55.5438 38.213C55.7865 38.1803 56.0361 38.122 56.2928 38.038C56.5541 37.9587 56.7805 37.835 56.9718 37.667C57.1631 37.5037 57.2891 37.3077 57.3498 37.079C57.4291 36.7757 57.4688 36.2717 57.4688 35.567C57.4688 33.1823 57.4245 30.8583 57.3358 28.595C57.3311 28.4643 57.3241 28.266 57.3148 28C57.3101 27.7293 57.3055 27.5123 57.3008 27.349C57.2961 27.181 57.2798 26.985 57.2518 26.761C57.2285 26.5323 57.1935 26.3247 57.1468 26.138C56.9368 25.2933 56.3021 24.871 55.2428 24.871ZM55.2428 24.164C56.0408 24.164 56.6591 24.3483 57.0978 24.717L57.8258 25.221C58.0218 25.361 58.1875 25.5407 58.3228 25.76C58.4628 25.9747 58.5655 26.18 58.6308 26.376C58.7008 26.572 58.7545 26.824 58.7918 27.132C58.8291 27.44 58.8501 27.6803 58.8548 27.853C58.8641 28.021 58.8711 28.2637 58.8758 28.581C58.9785 31.6703 59.0298 34.1997 59.0298 36.169C59.0298 36.9297 58.9831 37.4943 58.8898 37.863C58.7965 38.1803 58.6331 38.4557 58.3998 38.689C58.1711 38.9223 57.9005 39.0997 57.5878 39.221C57.2798 39.3423 56.9671 39.431 56.6498 39.487C56.3325 39.543 56.0081 39.571 55.6768 39.571C54.8041 39.571 54.1298 39.4053 53.6538 39.074L52.9328 38.57C52.5315 38.3367 52.2678 38.0357 52.1418 37.667C52.0158 37.2983 51.9528 36.8363 51.9528 36.281C51.9528 33.9663 52.0298 31.556 52.1838 29.05C52.2025 28.7093 52.2141 28.469 52.2188 28.329C52.2561 27.265 52.3541 26.4553 52.5128 25.9C52.6901 25.2933 53.0285 24.8523 53.5278 24.577C54.0271 24.3017 54.5988 24.164 55.2428 24.164ZM63.9425 25.256C64.0125 25.3073 64.0778 25.3587 64.1385 25.41C64.1992 25.4613 64.2575 25.5243 64.3135 25.599C64.3695 25.669 64.4138 25.725 64.4465 25.767C64.4792 25.809 64.5212 25.879 64.5725 25.977C64.6285 26.0703 64.6658 26.1333 64.6845 26.166C64.7078 26.1987 64.7498 26.2757 64.8105 26.397C64.8712 26.5137 64.9085 26.5883 64.9225 26.621C64.9272 26.3877 64.9552 26.1473 65.0065 25.9C65.0765 25.5687 65.2352 25.2817 65.4825 25.039C65.7298 24.7963 66.0215 24.6143 66.3575 24.493C66.6935 24.3717 67.0155 24.2853 67.3235 24.234C67.6362 24.178 67.9372 24.15 68.2265 24.15C69.1878 24.15 69.9112 24.353 70.3965 24.759L71.1175 25.263C71.5375 25.557 71.7918 25.9723 71.8805 26.509C71.9598 26.957 71.9995 27.5823 71.9995 28.385V28.791C71.9995 31.759 71.9528 33.9757 71.8595 35.441C71.8502 35.553 71.8408 35.7117 71.8315 35.917C71.7848 36.743 71.7148 37.3637 71.6215 37.779C71.5608 38.0823 71.4348 38.353 71.2435 38.591C71.0568 38.829 70.8282 39.0157 70.5575 39.151C70.2915 39.291 70.0115 39.396 69.7175 39.466C69.4235 39.536 69.1225 39.571 68.8145 39.571C68.0958 39.571 67.5218 39.4193 67.0925 39.116L66.3715 38.612C65.9795 38.3833 65.6738 38.0403 65.4545 37.583C65.3985 37.4663 65.3145 37.2867 65.2025 37.044C65.1932 37.3287 65.1675 37.5853 65.1255 37.814C65.0695 38.1267 64.9225 38.402 64.6845 38.64C64.4512 38.878 64.1688 39.06 63.8375 39.186C63.5108 39.3167 63.1818 39.4123 62.8505 39.473C62.5238 39.5383 62.2065 39.571 61.8985 39.571C60.9465 39.571 60.2512 39.417 59.8125 39.109L59.0775 38.598C58.9048 38.5 58.7602 38.3763 58.6435 38.227C58.5268 38.0823 58.4335 37.9307 58.3635 37.772C58.2982 37.618 58.2468 37.4243 58.2095 37.191C58.1768 36.9577 58.1558 36.7407 58.1465 36.54C58.1372 36.3393 58.1325 36.085 58.1325 35.777C58.1325 32.445 58.1792 29.9483 58.2725 28.287C58.2818 28.091 58.2888 27.9417 58.2935 27.839C58.3308 26.9897 58.4008 26.355 58.5035 25.935C58.5782 25.6177 58.7135 25.3377 58.9095 25.095C59.1102 24.8523 59.3458 24.6657 59.6165 24.535C59.8918 24.3997 60.1718 24.3017 60.4565 24.241C60.7412 24.1757 61.0305 24.143 61.3245 24.143C62.0898 24.143 62.7292 24.3507 63.2425 24.766L63.9425 25.256ZM67.9535 38.269C68.1775 38.269 68.3968 38.2457 68.6115 38.199C68.8308 38.157 69.0432 38.0893 69.2485 37.996C69.4585 37.9073 69.6358 37.779 69.7805 37.611C69.9298 37.443 70.0302 37.247 70.0815 37.023C70.1188 36.855 70.1492 36.666 70.1725 36.456C70.2005 36.246 70.2192 36.0687 70.2285 35.924C70.2425 35.784 70.2565 35.5857 70.2705 35.329C70.2845 35.0723 70.2938 34.8927 70.2985 34.79C70.3918 33.3247 70.4385 31.1243 70.4385 28.189C70.4385 27.1623 70.4035 26.4413 70.3335 26.026C70.2028 25.2467 69.5005 24.857 68.2265 24.857C67.9932 24.857 67.7528 24.8757 67.5055 24.913C67.2628 24.9503 67.0085 25.011 66.7425 25.095C66.4765 25.1743 66.2478 25.298 66.0565 25.466C65.8652 25.6293 65.7462 25.823 65.6995 26.047C65.6762 26.1637 65.6575 26.2943 65.6435 26.439C65.6295 26.579 65.6202 26.7003 65.6155 26.803C65.6155 26.9057 65.6132 27.041 65.6085 27.209C65.6085 27.377 65.6085 27.5007 65.6085 27.58C65.5712 28.9987 65.5525 30.065 65.5525 30.779C65.5525 30.8443 65.5198 30.877 65.4545 30.877C65.4172 30.877 65.3565 30.779 65.2725 30.583C65.1932 30.387 65.1022 30.149 64.9995 29.869C64.9015 29.5843 64.8502 29.4397 64.8455 29.435C64.6542 28.945 64.3275 28.196 63.8655 27.188C63.4035 26.18 63.1002 25.6037 62.9555 25.459C62.5542 25.053 62.0105 24.85 61.3245 24.85C61.0165 24.85 60.7202 24.8873 60.4355 24.962C60.1555 25.0367 59.8942 25.172 59.6515 25.368C59.4135 25.5593 59.2595 25.802 59.1895 26.096C59.1522 26.264 59.1195 26.4553 59.0915 26.67C59.0635 26.88 59.0448 27.0527 59.0355 27.188C59.0262 27.3233 59.0145 27.5263 59.0005 27.797C58.9912 28.063 58.9842 28.2403 58.9795 28.329C58.8862 30.0183 58.8395 32.3003 58.8395 35.175C58.8395 35.245 58.8395 35.35 58.8395 35.49C58.8348 35.6627 58.8325 35.826 58.8325 35.98C58.8372 36.1387 58.8418 36.2903 58.8465 36.435C58.8558 36.5797 58.8698 36.715 58.8885 36.841C58.9118 36.9717 58.9398 37.093 58.9725 37.205C59.0052 37.317 59.0495 37.422 59.1055 37.52C59.1615 37.618 59.2268 37.7043 59.3015 37.779C59.3808 37.8583 59.4742 37.9283 59.5815 37.989C59.6935 38.0497 59.8195 38.101 59.9595 38.143C60.0995 38.185 60.2582 38.2153 60.4355 38.234C60.6175 38.2573 60.8182 38.269 61.0375 38.269C61.2615 38.269 61.4972 38.2503 61.7445 38.213C61.9965 38.1757 62.2555 38.115 62.5215 38.031C62.7922 37.947 63.0232 37.8233 63.2145 37.66C63.4105 37.4967 63.5318 37.303 63.5785 37.079C63.6018 36.9483 63.6182 36.8177 63.6275 36.687C63.6415 36.5563 63.6485 36.3813 63.6485 36.162C63.6532 35.9473 63.6555 35.8167 63.6555 35.77C63.6928 34.3047 63.7115 33.2057 63.7115 32.473C63.7115 32.4637 63.7092 32.4357 63.7045 32.389C63.6998 32.3377 63.6975 32.2933 63.6975 32.256C63.6975 32.214 63.6998 32.172 63.7045 32.13C63.7092 32.0833 63.7208 32.046 63.7395 32.018C63.7582 31.99 63.7815 31.976 63.8095 31.976C63.8515 31.976 63.8842 31.997 63.9075 32.039C64.0848 32.3937 64.2995 32.914 64.5515 33.6C64.8035 34.286 64.9762 34.7387 65.0695 34.958C65.5268 36.0313 65.8675 36.8037 66.0915 37.275C66.4088 37.9377 67.0295 38.269 67.9535 38.269ZM74.3971 24.871C74.0844 24.871 73.7951 24.9083 73.5291 24.983C73.2678 25.053 73.0251 25.1837 72.8011 25.375C72.5818 25.5617 72.4301 25.802 72.3461 26.096C72.2808 26.32 72.2294 26.5697 72.1921 26.845C72.1548 27.1203 72.1291 27.3607 72.1151 27.566C72.1058 27.7667 72.0941 28.0327 72.0801 28.364C72.0661 28.6907 72.0544 28.9333 72.0451 29.092C71.8911 31.598 71.8141 33.9943 71.8141 36.281C71.8141 36.6497 71.8304 36.9227 71.8631 37.1C72.0124 37.8793 72.7148 38.269 73.9701 38.269C74.2128 38.269 74.4554 38.2503 74.6981 38.213C74.9408 38.1803 75.1904 38.122 75.4471 38.038C75.7084 37.9587 75.9348 37.835 76.1261 37.667C76.3174 37.5037 76.4434 37.3077 76.5041 37.079C76.5834 36.7757 76.6231 36.2717 76.6231 35.567C76.6231 33.1823 76.5788 30.8583 76.4901 28.595C76.4854 28.4643 76.4784 28.266 76.4691 28C76.4644 27.7293 76.4598 27.5123 76.4551 27.349C76.4504 27.181 76.4341 26.985 76.4061 26.761C76.3828 26.5323 76.3478 26.3247 76.3011 26.138C76.0911 25.2933 75.4564 24.871 74.3971 24.871ZM74.3971 24.164C75.1951 24.164 75.8134 24.3483 76.2521 24.717L76.9801 25.221C77.1761 25.361 77.3418 25.5407 77.4771 25.76C77.6171 25.9747 77.7198 26.18 77.7851 26.376C77.8551 26.572 77.9088 26.824 77.9461 27.132C77.9834 27.44 78.0044 27.6803 78.0091 27.853C78.0184 28.021 78.0254 28.2637 78.0301 28.581C78.1328 31.6703 78.1841 34.1997 78.1841 36.169C78.1841 36.9297 78.1374 37.4943 78.0441 37.863C77.9508 38.1803 77.7874 38.4557 77.5541 38.689C77.3254 38.9223 77.0548 39.0997 76.7421 39.221C76.4341 39.3423 76.1214 39.431 75.8041 39.487C75.4868 39.543 75.1624 39.571 74.8311 39.571C73.9584 39.571 73.2841 39.4053 72.8081 39.074L72.0871 38.57C71.6858 38.3367 71.4221 38.0357 71.2961 37.667C71.1701 37.2983 71.1071 36.8363 71.1071 36.281C71.1071 33.9663 71.1841 31.556 71.3381 29.05C71.3568 28.7093 71.3684 28.469 71.3731 28.329C71.4104 27.265 71.5084 26.4553 71.6671 25.9C71.8444 25.2933 72.1828 24.8523 72.6821 24.577C73.1814 24.3017 73.7531 24.164 74.3971 24.164ZM83.5028 38.276C84.5761 38.276 85.4814 38.0777 86.2188 37.681C86.9608 37.289 87.6048 36.6427 88.1508 35.742C88.6361 34.9393 88.8788 34.195 88.8788 33.509C88.8788 33.173 88.8274 32.8813 88.7248 32.634C88.6268 32.382 88.4961 32.1813 88.3328 32.032C88.1694 31.8827 87.9641 31.7637 87.7168 31.675C87.4694 31.5817 87.2198 31.5187 86.9678 31.486C86.7158 31.4533 86.4334 31.437 86.1208 31.437C85.7708 31.437 85.3064 31.472 84.7278 31.542C84.1538 31.612 83.7991 31.7053 83.6638 31.822C83.5378 31.934 83.4538 32.0553 83.4118 32.186C83.3698 32.3167 83.3488 32.48 83.3488 32.676C83.3488 32.774 83.3511 32.8557 83.3558 32.921C83.3604 32.9863 83.3744 33.0587 83.3978 33.138C83.4211 33.2127 83.4514 33.2733 83.4888 33.32C83.5261 33.3667 83.5798 33.4063 83.6498 33.439C83.7244 33.467 83.8108 33.481 83.9088 33.481C83.9414 33.481 84.0114 33.4787 84.1188 33.474C84.2308 33.4647 84.3194 33.46 84.3848 33.46C84.7674 33.46 84.9588 33.5673 84.9588 33.782C84.9588 33.922 84.8654 34.195 84.6788 34.601C84.4968 35.0023 84.3498 35.28 84.2378 35.434C84.1118 35.602 83.9974 35.7187 83.8948 35.784C83.7968 35.8493 83.6544 35.882 83.4678 35.882C83.3278 35.882 83.2018 35.8283 83.0898 35.721C82.9778 35.6137 82.8844 35.4783 82.8098 35.315C82.7398 35.1563 82.6768 34.9603 82.6208 34.727C82.5694 34.489 82.5298 34.2673 82.5018 34.062C82.4784 33.8567 82.4598 33.6303 82.4458 33.383C82.4318 33.131 82.4224 32.9373 82.4178 32.802C82.4178 32.6667 82.4178 32.5267 82.4178 32.382C82.4178 32.1253 82.4364 31.731 82.4738 31.199C82.5111 30.667 82.5671 30.0743 82.6418 29.421C82.7164 28.763 82.8261 28.196 82.9708 27.72C83.1154 27.2393 83.2788 26.999 83.4608 26.999C83.5448 26.999 83.6241 27.055 83.6988 27.167C83.7734 27.279 83.8294 27.3957 83.8668 27.517C83.9088 27.6383 83.9508 27.783 83.9928 27.951C84.0394 28.1143 84.0674 28.2123 84.0768 28.245C84.1421 28.4317 84.2261 28.5927 84.3288 28.728C84.4361 28.8587 84.5458 28.9613 84.6578 29.036C84.7698 29.106 84.9098 29.1597 85.0778 29.197C85.2504 29.2343 85.4044 29.2577 85.5398 29.267C85.6798 29.2763 85.8571 29.281 86.0718 29.281C87.3504 29.281 87.9898 28.9683 87.9898 28.343L87.9828 28.245C87.8661 27.6757 87.6514 27.1693 87.3388 26.726C87.0308 26.278 86.6551 25.9163 86.2118 25.641C85.7731 25.361 85.2924 25.1487 84.7698 25.004C84.2471 24.8593 83.7011 24.787 83.1318 24.787C82.3618 24.787 81.6664 24.9177 81.0458 25.179C80.4251 25.4357 79.9094 25.781 79.4988 26.215C79.0881 26.649 78.7451 27.1647 78.4698 27.762C78.1944 28.3593 77.9961 28.9847 77.8748 29.638C77.7534 30.2867 77.6928 30.9703 77.6928 31.689C77.6928 32.431 77.7674 33.1287 77.9168 33.782C78.0661 34.4353 78.2948 35.0373 78.6028 35.588C78.9154 36.1387 79.2981 36.6123 79.7508 37.009C80.2034 37.4103 80.7494 37.7207 81.3888 37.94C82.0281 38.164 82.7328 38.276 83.5028 38.276ZM84.1048 29.512C84.0814 29.792 84.0558 30.2797 84.0278 30.975C84.3638 30.9003 84.7418 30.842 85.1618 30.8C85.5818 30.7533 85.9014 30.73 86.1208 30.73C87.3341 30.73 88.2161 30.9587 88.7668 31.416L89.4808 31.92C90.1201 32.3633 90.4398 33.0937 90.4398 34.111C90.4398 34.9183 90.1621 35.784 89.6068 36.708C88.9908 37.7253 88.2674 38.458 87.4368 38.906C86.6061 39.354 85.5818 39.578 84.3638 39.578C82.8658 39.578 81.5988 39.214 80.5628 38.486L79.9258 38.038C78.9598 37.4313 78.2271 36.5727 77.7278 35.462C77.2331 34.3513 76.9858 33.0937 76.9858 31.689C76.9858 30.8957 77.0534 30.142 77.1888 29.428C77.3241 28.7093 77.5481 28.021 77.8608 27.363C78.1734 26.7003 78.5608 26.131 79.0228 25.655C79.4894 25.1743 80.0728 24.7917 80.7728 24.507C81.4774 24.2223 82.2638 24.08 83.1318 24.08C84.6344 24.08 85.9038 24.4837 86.9398 25.291L87.5838 25.739C88.6244 26.467 89.2754 27.4703 89.5368 28.749L89.5508 28.917C89.5508 30.0277 88.6781 30.583 86.9328 30.583C86.0694 30.583 85.4418 30.4453 85.0498 30.17L84.3218 29.659C84.2518 29.6217 84.1794 29.5727 84.1048 29.512ZM95.1193 24.822C93.6119 24.822 92.6669 25.186 92.2843 25.914C91.9996 26.46 91.4396 28.294 90.6043 31.416C89.7689 34.538 89.3513 36.379 89.3513 36.939C89.3513 37.1817 89.4329 37.3917 89.5963 37.569C89.7643 37.7463 89.9766 37.877 90.2333 37.961C90.4946 38.0497 90.7466 38.1127 90.9893 38.15C91.2319 38.192 91.4653 38.213 91.6893 38.213C92.8279 38.213 93.5419 37.9097 93.8313 37.303C93.9619 37.0323 94.0553 36.6567 94.1113 36.176C94.1719 35.7 94.2209 35.245 94.2583 34.811C94.3003 34.377 94.3609 34.0737 94.4403 33.901C94.5149 33.7377 94.6106 33.6303 94.7273 33.579C94.8439 33.523 95.0026 33.495 95.2033 33.495C95.3993 33.495 95.5556 33.523 95.6723 33.579C95.7889 33.6303 95.8869 33.7377 95.9663 33.901C95.9943 33.957 96.0386 34.2183 96.0993 34.685C96.1039 34.7177 96.1226 34.8693 96.1553 35.14C96.1926 35.4107 96.2229 35.63 96.2463 35.798C96.2743 35.9707 96.3069 36.1783 96.3443 36.421C96.3863 36.6683 96.4283 36.8783 96.4703 37.051C96.5169 37.2237 96.5613 37.3543 96.6033 37.443C96.7573 37.7603 96.9976 37.9727 97.3243 38.08C97.6509 38.192 98.0336 38.248 98.4723 38.248C98.6449 38.248 98.8339 38.234 99.0393 38.206C99.2493 38.1827 99.4733 38.136 99.7113 38.066C99.9539 38.0007 100.171 37.919 100.362 37.821C100.558 37.7277 100.722 37.5993 100.852 37.436C100.983 37.2727 101.048 37.093 101.048 36.897C101.048 36.4397 100.605 34.6103 99.7183 31.409C98.8363 28.203 98.2739 26.3713 98.0313 25.914C97.9146 25.6947 97.7419 25.508 97.5133 25.354C97.2846 25.2 97.0256 25.088 96.7363 25.018C96.4469 24.9433 96.1739 24.892 95.9173 24.864C95.6606 24.836 95.3946 24.822 95.1193 24.822ZM94.6293 31.038C94.6293 30.7533 94.6456 30.4523 94.6783 30.135C94.7109 29.8177 94.7553 29.463 94.8113 29.071C94.8719 28.6743 94.9139 28.3733 94.9373 28.168C94.9793 28.1073 95.0493 28.077 95.1473 28.077C95.2219 28.077 95.2873 28.1073 95.3433 28.168C95.3526 28.182 95.4039 28.6393 95.4973 29.54C95.5953 30.436 95.6443 30.9447 95.6443 31.066C95.6443 31.136 95.5813 31.1873 95.4553 31.22C95.3339 31.248 95.2219 31.262 95.1193 31.262C94.7926 31.262 94.6293 31.1873 94.6293 31.038ZM95.1193 24.115C96.4539 24.115 97.4503 24.3857 98.1083 24.927L98.8153 25.417C99.1186 25.6317 99.3496 25.8883 99.5083 26.187C99.6669 26.481 99.9983 27.4937 100.502 29.225C101.011 30.9563 101.489 32.6923 101.937 34.433C102.385 36.1737 102.609 37.1957 102.609 37.499C102.609 37.849 102.495 38.1617 102.266 38.437C102.042 38.717 101.755 38.934 101.405 39.088C101.06 39.242 100.708 39.3563 100.348 39.431C99.9936 39.5103 99.6553 39.55 99.3333 39.55C98.5306 39.55 97.9076 39.3937 97.4643 39.081L96.7433 38.577C96.4026 38.381 96.1646 38.143 96.0293 37.863C95.8939 37.5877 95.7819 37.212 95.6933 36.736C95.6093 37.3753 95.4856 37.8653 95.3223 38.206C94.9163 39.0787 93.9923 39.515 92.5503 39.515C92.1723 39.515 91.7709 39.466 91.3463 39.368C90.9216 39.27 90.5553 39.1113 90.2473 38.892L89.5333 38.395C88.9406 38.045 88.6443 37.5597 88.6443 36.939C88.6443 36.3603 89.0736 34.4633 89.9323 31.248C90.7909 28.0327 91.3673 26.145 91.6613 25.585C92.1746 24.605 93.3273 24.115 95.1193 24.115ZM115.4 38.269C115.634 38.269 115.853 38.2527 116.058 38.22C116.268 38.1873 116.481 38.1313 116.695 38.052C116.91 37.9773 117.09 37.8583 117.234 37.695C117.379 37.5317 117.47 37.3333 117.507 37.1C117.535 36.9133 117.549 36.6263 117.549 36.239C117.549 33.6817 117.475 31.2993 117.325 29.092C117.316 28.952 117.3 28.7117 117.276 28.371C117.258 28.0257 117.241 27.7573 117.227 27.566C117.213 27.3747 117.188 27.139 117.15 26.859C117.118 26.579 117.076 26.3247 117.024 26.096C116.973 25.8767 116.873 25.683 116.723 25.515C116.574 25.347 116.397 25.2163 116.191 25.123C115.986 25.0297 115.774 24.962 115.554 24.92C115.34 24.8733 115.12 24.85 114.896 24.85C114.173 24.85 113.627 25.053 113.258 25.459C113.086 25.6457 112.703 26.4437 112.11 27.853C111.518 29.2577 111.044 30.415 110.689 31.325C110.643 31.451 110.58 31.633 110.5 31.871C110.426 32.109 110.351 32.3237 110.276 32.515C110.202 32.7063 110.12 32.879 110.031 33.033C109.971 33.1497 109.889 33.208 109.786 33.208C109.688 33.208 109.604 33.1497 109.534 33.033C109.46 32.9023 109.39 32.7577 109.324 32.599C109.264 32.4357 109.201 32.256 109.135 32.06C109.075 31.8593 109.023 31.7053 108.981 31.598C108.645 30.7347 108.153 29.5447 107.504 28.028C106.856 26.5067 106.445 25.6503 106.272 25.459C105.904 25.053 105.358 24.85 104.634 24.85C104.41 24.85 104.189 24.8733 103.969 24.92C103.755 24.962 103.545 25.0297 103.339 25.123C103.134 25.2163 102.957 25.347 102.807 25.515C102.658 25.683 102.558 25.8767 102.506 26.096C102.455 26.3247 102.411 26.579 102.373 26.859C102.341 27.139 102.317 27.3747 102.303 27.566C102.289 27.7573 102.271 28.0257 102.247 28.371C102.229 28.7117 102.215 28.952 102.205 29.092C102.056 31.2993 101.981 33.6817 101.981 36.239C101.981 36.6263 101.995 36.9133 102.023 37.1C102.061 37.3333 102.152 37.5317 102.296 37.695C102.441 37.8583 102.621 37.9773 102.835 38.052C103.05 38.1313 103.26 38.1873 103.465 38.22C103.675 38.2527 103.897 38.269 104.13 38.269C104.359 38.269 104.597 38.2503 104.844 38.213C105.092 38.1757 105.348 38.115 105.614 38.031C105.885 37.947 106.116 37.8233 106.307 37.66C106.499 37.4967 106.618 37.303 106.664 37.079C106.692 36.939 106.711 36.7967 106.72 36.652C106.734 36.5073 106.741 36.316 106.741 36.078C106.746 35.84 106.748 35.6953 106.748 35.644C106.786 34.2067 106.804 33.131 106.804 32.417C106.804 32.4077 106.802 32.382 106.797 32.34C106.797 32.2933 106.797 32.2513 106.797 32.214C106.797 32.1767 106.797 32.137 106.797 32.095C106.802 32.053 106.814 32.0203 106.832 31.997C106.851 31.9737 106.874 31.962 106.902 31.962C106.94 31.962 106.97 31.983 106.993 32.025C107.208 32.4543 107.476 33.082 107.798 33.908C108.12 34.734 108.342 35.2847 108.463 35.56C108.496 35.6347 108.552 35.7653 108.631 35.952C108.711 36.1433 108.781 36.3043 108.841 36.435C108.907 36.5703 108.977 36.6963 109.051 36.813C109.285 37.191 109.527 37.38 109.779 37.38C109.933 37.38 110.064 37.3287 110.171 37.226C110.279 37.1233 110.381 36.9857 110.479 36.813C110.535 36.715 110.589 36.6123 110.64 36.505C110.692 36.3977 110.75 36.2647 110.815 36.106C110.885 35.9473 110.932 35.8423 110.955 35.791C111.52 34.5123 111.877 33.6863 112.026 33.313C112.064 33.2197 112.141 33.0213 112.257 32.718C112.374 32.4147 112.467 32.1837 112.537 32.025L112.628 31.962C112.698 31.9667 112.733 32.046 112.733 32.2C112.733 33.4227 112.75 34.5707 112.782 35.644C112.787 35.7233 112.789 35.84 112.789 35.994C112.789 36.1527 112.789 36.2787 112.789 36.372C112.794 36.47 112.801 36.5843 112.81 36.715C112.824 36.8503 112.843 36.9717 112.866 37.079C112.913 37.303 113.032 37.4967 113.223 37.66C113.415 37.8233 113.643 37.947 113.909 38.031C114.18 38.115 114.439 38.1757 114.686 38.213C114.934 38.2503 115.172 38.269 115.4 38.269ZM107.651 25.592C107.959 25.9373 108.771 27.7177 110.087 30.933C110.479 29.9297 110.967 28.7513 111.55 27.398C112.134 26.04 112.53 25.235 112.74 24.983C113.263 24.423 113.982 24.143 114.896 24.143C115.274 24.143 115.652 24.199 116.03 24.311C116.408 24.4183 116.737 24.5863 117.017 24.815L117.724 25.312C118.177 25.6293 118.457 26.04 118.564 26.544C118.686 27.0807 118.779 27.8973 118.844 28.994C119.022 31.7567 119.11 34.3723 119.11 36.841C119.11 37.261 119.094 37.583 119.061 37.807C119.001 38.143 118.882 38.43 118.704 38.668C118.527 38.906 118.305 39.088 118.039 39.214C117.773 39.34 117.496 39.431 117.206 39.487C116.917 39.543 116.602 39.571 116.261 39.571C115.865 39.571 115.435 39.5173 114.973 39.41C114.516 39.3027 114.122 39.1323 113.79 38.899L113.083 38.402C112.603 38.122 112.304 37.751 112.187 37.289C112.094 37.4897 112.008 37.6577 111.928 37.793C111.849 37.933 111.746 38.0777 111.62 38.227C111.494 38.3763 111.35 38.4883 111.186 38.563C111.023 38.6423 110.841 38.682 110.64 38.682C110.37 38.682 110.122 38.605 109.898 38.451L109.156 37.926C108.988 37.8373 108.827 37.6973 108.673 37.506C108.524 37.3193 108.4 37.1233 108.302 36.918C108.293 37.2633 108.263 37.5643 108.211 37.821C108.141 38.1383 107.99 38.416 107.756 38.654C107.523 38.892 107.245 39.074 106.923 39.2C106.601 39.326 106.277 39.4193 105.95 39.48C105.628 39.5407 105.309 39.571 104.991 39.571C104.119 39.571 103.44 39.4007 102.954 39.06L102.233 38.556C102.014 38.4253 101.834 38.276 101.694 38.108C101.559 37.9447 101.461 37.751 101.4 37.527C101.344 37.3077 101.309 37.1093 101.295 36.932C101.281 36.7593 101.274 36.5283 101.274 36.239C101.274 33.7703 101.363 31.1547 101.54 28.392C101.606 27.2953 101.697 26.4787 101.813 25.942C101.888 25.6247 102.026 25.3447 102.226 25.102C102.427 24.8593 102.663 24.6727 102.933 24.542C103.204 24.4067 103.482 24.3063 103.766 24.241C104.051 24.1757 104.34 24.143 104.634 24.143C105.418 24.143 106.058 24.346 106.552 24.752L107.266 25.249C107.406 25.347 107.535 25.4613 107.651 25.592ZM128.062 36.246C128.062 35.9613 128.015 35.6393 127.922 35.28C127.829 34.9207 127.705 34.6547 127.551 34.482C127.439 34.356 127.283 34.2603 127.082 34.195C126.886 34.125 126.713 34.0853 126.564 34.076C126.415 34.062 126.226 34.055 125.997 34.055C125.773 34.055 125.437 34.076 124.989 34.118C124.546 34.1553 124.212 34.174 123.988 34.174C123.848 34.174 123.762 34.1553 123.729 34.118C123.682 34.0713 123.659 33.6817 123.659 32.949C123.659 32.8323 123.685 32.7553 123.736 32.718C123.792 32.676 123.881 32.655 124.002 32.655C124.226 32.655 124.562 32.6783 125.01 32.725C125.458 32.767 125.796 32.788 126.025 32.788C126.459 32.788 126.753 32.6947 126.907 32.508C127.061 32.3167 127.138 31.9993 127.138 31.556C127.138 31.094 127.063 30.765 126.914 30.569C126.769 30.373 126.473 30.275 126.025 30.275C125.796 30.275 125.458 30.2983 125.01 30.345C124.562 30.387 124.226 30.408 124.002 30.408C123.876 30.408 123.787 30.3893 123.736 30.352C123.685 30.3147 123.659 30.2353 123.659 30.114C123.659 30.0813 123.654 30.009 123.645 29.897C123.64 29.785 123.638 29.694 123.638 29.624C123.643 29.554 123.652 29.4747 123.666 29.386C123.685 29.2973 123.722 29.232 123.778 29.19C123.834 29.1433 123.906 29.12 123.995 29.12C124.219 29.12 124.553 29.141 124.996 29.183C125.439 29.2203 125.773 29.239 125.997 29.239C126.221 29.239 126.408 29.2343 126.557 29.225C126.711 29.211 126.886 29.169 127.082 29.099C127.283 29.029 127.439 28.931 127.551 28.805C127.7 28.6323 127.815 28.3687 127.894 28.014C127.973 27.6593 128.013 27.3327 128.013 27.034C128.013 26.334 127.84 25.8183 127.495 25.487C127.322 25.319 126.961 25.179 126.41 25.067C125.859 24.955 125.341 24.8803 124.856 24.843C124.371 24.8057 123.951 24.787 123.596 24.787C120.992 24.787 119.576 25.452 119.347 26.782C119.286 27.146 119.235 27.5543 119.193 28.007C119.156 28.4597 119.13 28.826 119.116 29.106C119.102 29.386 119.086 29.8153 119.067 30.394C119.053 30.9727 119.044 31.353 119.039 31.535C118.974 33.4857 118.941 34.9487 118.941 35.924C118.941 36.3767 118.96 36.7103 118.997 36.925C119.039 37.1677 119.193 37.38 119.459 37.562C119.73 37.7487 120.035 37.891 120.376 37.989C120.721 38.087 121.111 38.1663 121.545 38.227C121.984 38.2877 122.355 38.325 122.658 38.339C122.961 38.3577 123.244 38.367 123.505 38.367C124.21 38.367 124.954 38.304 125.738 38.178C126.527 38.0567 127.112 37.856 127.495 37.576C127.873 37.3007 128.062 36.8573 128.062 36.246ZM119.193 38.192C118.68 37.8747 118.383 37.4943 118.304 37.051C118.257 36.7943 118.234 36.4187 118.234 35.924C118.234 34.9347 118.267 33.4647 118.332 31.514C118.341 31.2947 118.351 30.975 118.36 30.555C118.407 28.8143 118.502 27.517 118.647 26.663C118.703 26.341 118.808 26.0517 118.962 25.795C119.116 25.5337 119.296 25.3143 119.501 25.137C119.711 24.9597 119.956 24.8057 120.236 24.675C120.521 24.5443 120.798 24.4417 121.069 24.367C121.34 24.2923 121.636 24.234 121.958 24.192C122.28 24.1453 122.565 24.115 122.812 24.101C123.064 24.087 123.325 24.08 123.596 24.08C124.021 24.08 124.504 24.1057 125.045 24.157C125.586 24.2037 126.16 24.3017 126.767 24.451C127.378 24.6003 127.794 24.7847 128.013 25.004L128.839 25.585C129.329 26.0563 129.574 26.74 129.574 27.636C129.574 28 129.518 28.406 129.406 28.854C129.299 29.2973 129.142 29.6357 128.937 29.869C128.718 30.121 128.428 30.3007 128.069 30.408L128.153 30.464C128.363 30.6087 128.505 30.8163 128.58 31.087C128.659 31.3577 128.699 31.7147 128.699 32.158C128.699 32.3633 128.692 32.536 128.678 32.676C128.664 32.816 128.634 32.9723 128.587 33.145C128.545 33.3177 128.473 33.467 128.37 33.593C128.267 33.719 128.137 33.8217 127.978 33.901L128.65 34.37C128.958 34.5753 129.196 34.93 129.364 35.434C129.537 35.938 129.623 36.4093 129.623 36.848C129.623 37.674 129.338 38.3063 128.769 38.745C128.312 39.0623 127.647 39.2957 126.774 39.445C125.906 39.5943 125.103 39.669 124.366 39.669C123.965 39.669 123.533 39.648 123.071 39.606C122.609 39.5687 122.056 39.4707 121.412 39.312C120.773 39.1533 120.269 38.9433 119.9 38.682L119.193 38.192ZM128.839 25.585C128.76 25.5103 128.664 25.4427 128.552 25.382L128.839 25.585ZM134.924 38.332C135.484 38.332 136.018 38.2923 136.527 38.213C137.04 38.1383 137.551 38.003 138.06 37.807C138.568 37.6157 139.007 37.3707 139.376 37.072C139.749 36.7733 140.05 36.3837 140.279 35.903C140.512 35.427 140.629 34.8833 140.629 34.272C140.629 33.8707 140.582 33.5067 140.489 33.18C140.4 32.8533 140.283 32.5757 140.139 32.347C139.994 32.1183 139.803 31.913 139.565 31.731C139.331 31.5443 139.1 31.395 138.872 31.283C138.643 31.1663 138.363 31.0567 138.032 30.954C137.7 30.8467 137.404 30.7627 137.143 30.702C136.886 30.6413 136.573 30.5667 136.205 30.478C135.841 30.3893 135.537 30.31 135.295 30.24C134.917 30.128 134.627 29.9787 134.427 29.792C134.231 29.6007 134.133 29.3253 134.133 28.966C134.133 28.6627 134.224 28.364 134.406 28.07C134.592 27.7713 134.828 27.622 135.113 27.622C135.281 27.622 135.418 27.6803 135.526 27.797C135.633 27.9137 135.729 28.0537 135.813 28.217C135.901 28.3803 136.009 28.546 136.135 28.714C136.265 28.8773 136.473 29.0173 136.758 29.134C137.042 29.2507 137.399 29.309 137.829 29.309C138.043 29.309 138.265 29.281 138.494 29.225C138.727 29.1643 138.953 29.078 139.173 28.966C139.392 28.8493 139.588 28.714 139.761 28.56C139.938 28.406 140.078 28.224 140.181 28.014C140.288 27.7993 140.342 27.5777 140.342 27.349C140.342 27.1203 140.255 26.8753 140.083 26.614C139.845 26.2593 139.551 25.9537 139.201 25.697C138.855 25.4357 138.477 25.2327 138.067 25.088C137.661 24.9433 137.25 24.8383 136.835 24.773C136.424 24.7077 135.997 24.675 135.554 24.675C134.784 24.675 134.007 24.766 133.223 24.948C132.443 25.13 131.755 25.4007 131.158 25.76C130.551 26.124 130.054 26.6163 129.667 27.237C129.284 27.853 129.093 28.5017 129.093 29.183C129.093 29.869 129.303 30.4523 129.723 30.933C130.143 31.4137 130.698 31.7753 131.389 32.018C131.594 32.0927 131.925 32.1603 132.383 32.221C132.84 32.2817 133.281 32.3447 133.706 32.41C134.135 32.4707 134.56 32.5617 134.98 32.683C135.404 32.7997 135.745 32.9817 136.002 33.229C136.263 33.4763 136.394 33.782 136.394 34.146C136.394 34.4773 136.268 34.7317 136.016 34.909C135.764 35.0863 135.467 35.175 135.127 35.175C134.935 35.175 134.774 35.147 134.644 35.091C134.518 35.035 134.424 34.9627 134.364 34.874C134.308 34.7807 134.249 34.678 134.189 34.566C134.133 34.4493 134.079 34.3303 134.028 34.209C133.981 34.0877 133.897 33.971 133.776 33.859C133.659 33.7423 133.517 33.6397 133.349 33.551C133.181 33.4577 132.943 33.383 132.635 33.327C132.327 33.271 131.965 33.243 131.55 33.243C130.747 33.243 130.133 33.4017 129.709 33.719C129.284 34.0363 129.072 34.5823 129.072 35.357C129.072 35.7163 129.146 36.0453 129.296 36.344C129.45 36.6427 129.648 36.8923 129.891 37.093C130.138 37.2937 130.432 37.471 130.773 37.625C131.118 37.779 131.463 37.898 131.809 37.982C132.159 38.0707 132.532 38.143 132.929 38.199C133.325 38.255 133.678 38.29 133.986 38.304C134.298 38.3227 134.611 38.332 134.924 38.332ZM141.903 27.951C141.903 28.301 141.819 28.6347 141.651 28.952C141.483 29.2647 141.261 29.5307 140.986 29.75C140.715 29.9693 140.414 30.1513 140.083 30.296C139.756 30.4407 139.425 30.5363 139.089 30.583C139.462 30.7463 139.784 30.9377 140.055 31.157L140.72 31.626C141.7 32.312 142.19 33.3947 142.19 34.874C142.19 35.4573 142.106 35.9893 141.938 36.47C141.77 36.9553 141.532 37.3683 141.224 37.709C140.92 38.0497 140.57 38.346 140.174 38.598C139.777 38.85 139.334 39.0507 138.844 39.2C138.358 39.3493 137.864 39.459 137.36 39.529C136.856 39.599 136.331 39.634 135.785 39.634C135.379 39.634 134.97 39.6177 134.56 39.585C134.154 39.5523 133.703 39.494 133.209 39.41C132.719 39.3307 132.238 39.2047 131.767 39.032C131.3 38.864 130.892 38.6587 130.542 38.416L129.877 37.947C128.869 37.3217 128.365 36.4583 128.365 35.357C128.365 34.475 128.565 33.817 128.967 33.383C129.368 32.949 129.947 32.683 130.703 32.585L130.157 32.2C129.611 31.8593 129.179 31.437 128.862 30.933C128.544 30.4243 128.386 29.841 128.386 29.183C128.386 28.3897 128.612 27.629 129.065 26.901C129.517 26.1683 130.094 25.585 130.794 25.151C131.447 24.7637 132.201 24.4697 133.055 24.269C133.909 24.0683 134.742 23.968 135.554 23.968C137.29 23.968 138.68 24.3787 139.726 25.2L140.377 25.655C140.783 25.9397 141.137 26.2897 141.441 26.705C141.749 27.1203 141.903 27.5357 141.903 27.951ZM135.687 34.146C135.687 34.0853 135.675 34.02 135.652 33.95C135.46 33.8893 135.236 33.8333 134.98 33.782C135.176 33.9453 135.341 34.153 135.477 34.405C135.617 34.349 135.687 34.2627 135.687 34.146ZM135.722 29.316C135.703 29.3813 135.694 29.4817 135.694 29.617C135.782 29.6403 135.999 29.6963 136.345 29.785L136.142 29.645C135.997 29.561 135.857 29.4513 135.722 29.316Z" fill="white"/>
</g>
<defs>
<filter id="filter0_diiiii_30_71" x="0.5" y="-1" width="175" height="67.5" filterUnits="userSpaceOnUse" color-interpolation-filters="sRGB">
<feFlood flood-opacity="0" result="BackgroundImageFix"/>
<feColorMatrix in="SourceAlpha" type="matrix" values="0 0 0 0 0 0 0 0 0 0 0 0 0 0 0 0 0 0 127 0" result="hardAlpha"/>
<feOffset dy="2"/>
<feGaussianBlur stdDeviation="1.25"/>
<feComposite in2="hardAlpha" operator="out"/>
<feColorMatrix type="matrix" values="0 0 0 0 0.745833 0 0 0 0 0.0559375 0 0 0 0 0.538864 0 0 0 0.25 0"/>
<feBlend mode="normal" in2="BackgroundImageFix" result="effect1_dropShadow_30_71"/>
<feBlend mode="normal" in="SourceGraphic" in2="effect1_dropShadow_30_71" result="shape"/>
<feColorMatrix in="SourceAlpha" type="matrix" values="0 0 0 0 0 0 0 0 0 0 0 0 0 0 0 0 0 0 127 0" result="hardAlpha"/>
<feMorphology radius="1" operator="erode" in="SourceAlpha" result="effect2_innerShadow_30_71"/>
<feOffset dy="-2"/>
<feGaussianBlur stdDeviation="1"/>
<feComposite in2="hardAlpha" operator="arithmetic" k2="-1" k3="1"/>
<feColorMatrix type="matrix" values="0 0 0 0 0.262745 0 0 0 0 0.0666667 0 0 0 0 0.203922 0 0 0 1 0"/>
<feBlend mode="normal" in2="shape" result="effect2_innerShadow_30_71"/>
<feColorMatrix in="SourceAlpha" type="matrix" values="0 0 0 0 0 0 0 0 0 0 0 0 0 0 0 0 0 0 127 0" result="hardAlpha"/>
<feMorphology radius="1" operator="erode" in="SourceAlpha" result="effect3_innerShadow_30_71"/>
<feOffset dy="2"/>
<feGaussianBlur stdDeviation="1"/>
<feComposite in2="hardAlpha" operator="arithmetic" k2="-1" k3="1"/>
<feColorMatrix type="matrix" values="0 0 0 0 1 0 0 0 0 1 0 0 0 0 1 0 0 0 0.5 0"/>
<feBlend mode="normal" in2="effect2_innerShadow_30_71" result="effect3_innerShadow_30_71"/>
<feColorMatrix in="SourceAlpha" type="matrix" values="0 0 0 0 0 0 0 0 0 0 0 0 0 0 0 0 0 0 127 0" result="hardAlpha"/>
<feMorphology radius="1" operator="erode" in="SourceAlpha" result="effect4_innerShadow_30_71"/>
<feOffset dy="2"/>
<feComposite in2="hardAlpha" operator="arithmetic" k2="-1" k3="1"/>
<feColorMatrix type="matrix" values="0 0 0 0 0.262745 0 0 0 0 0.0666667 0 0 0 0 0.203922 0 0 0 1 0"/>
<feBlend mode="normal" in2="effect3_innerShadow_30_71" result="effect4_innerShadow_30_71"/>
<feColorMatrix in="SourceAlpha" type="matrix" values="0 0 0 0 0 0 0 0 0 0 0 0 0 0 0 0 0 0 127 0" result="hardAlpha"/>
<feOffset dx="2"/>
<feGaussianBlur stdDeviation="0.5"/>
<feComposite in2="hardAlpha" operator="arithmetic" k2="-1" k3="1"/>
<feColorMatrix type="matrix" values="0 0 0 0 0.262745 0 0 0 0 0.0666667 0 0 0 0 0.203922 0 0 0 1 0"/>
<feBlend mode="normal" in2="effect4_innerShadow_30_71" result="effect5_innerShadow_30_71"/>
<feColorMatrix in="SourceAlpha" type="matrix" values="0 0 0 0 0 0 0 0 0 0 0 0 0 0 0 0 0 0 127 0" result="hardAlpha"/>
<feOffset dx="-2"/>
<feGaussianBlur stdDeviation="0.5"/>
<feComposite in2="hardAlpha" operator="arithmetic" k2="-1" k3="1"/>
<feColorMatrix type="matrix" values="0 0 0 0 0.262745 0 0 0 0 0.0666667 0 0 0 0 0.203922 0 0 0 1 0"/>
<feBlend mode="normal" in2="effect5_innerShadow_30_71" result="effect6_innerShadow_30_71"/>
</filter>
<linearGradient id="paint0_linear_30_71" x1="23.8857" y1="49.6094" x2="217.043" y2="6.14554" gradientUnits="userSpaceOnUse">
<stop stop-color="#DA5476"/>
<stop offset="1" stop-color="#FBCAA2"/>
</linearGradient>
</defs>
</svg>
