<svg width="106" height="107" viewBox="0 0 106 107" fill="none" xmlns="http://www.w3.org/2000/svg">
<path d="M54.893 101.187C54.2772 102.993 51.7228 102.993 51.107 101.187L36.5814 58.5802C36.139 57.2826 37.1035 55.9348 38.4744 55.9348L67.5256 55.9348C68.8965 55.9348 69.861 57.2826 69.4186 58.5802L54.893 101.187Z" fill="#E98B8A"/>
<circle cx="53" cy="103" r="3" fill="white"/>
<g filter="url(#filter0_diiiii_30_56)">
<rect x="3" y="1" width="100" height="61" rx="30.5" fill="url(#paint0_linear_30_56)" shape-rendering="crispEdges"/>
<rect x="3.5" y="1.5" width="99" height="60" rx="30" stroke="#431134" shape-rendering="crispEdges"/>
<path d="M40.796 25.256C40.866 25.3073 40.9313 25.3587 40.992 25.41C41.0527 25.4613 41.111 25.5243 41.167 25.599C41.223 25.669 41.2673 25.725 41.3 25.767C41.3327 25.809 41.3747 25.879 41.426 25.977C41.482 26.0703 41.5193 26.1333 41.538 26.166C41.5613 26.1987 41.6033 26.2757 41.664 26.397C41.7247 26.5137 41.762 26.5883 41.776 26.621C41.7807 26.3877 41.8087 26.1473 41.86 25.9C41.93 25.5687 42.0887 25.2817 42.336 25.039C42.5833 24.7963 42.875 24.6143 43.211 24.493C43.547 24.3717 43.869 24.2853 44.177 24.234C44.4897 24.178 44.7907 24.15 45.08 24.15C46.0413 24.15 46.7647 24.353 47.25 24.759L47.971 25.263C48.391 25.557 48.6453 25.9723 48.734 26.509C48.8133 26.957 48.853 27.5823 48.853 28.385V28.791C48.853 31.759 48.8063 33.9757 48.713 35.441C48.7037 35.553 48.6943 35.7117 48.685 35.917C48.6383 36.743 48.5683 37.3637 48.475 37.779C48.4143 38.0823 48.2883 38.353 48.097 38.591C47.9103 38.829 47.6817 39.0157 47.411 39.151C47.145 39.291 46.865 39.396 46.571 39.466C46.277 39.536 45.976 39.571 45.668 39.571C44.9493 39.571 44.3753 39.4193 43.946 39.116L43.225 38.612C42.833 38.3833 42.5273 38.0403 42.308 37.583C42.252 37.4663 42.168 37.2867 42.056 37.044C42.0467 37.3287 42.021 37.5853 41.979 37.814C41.923 38.1267 41.776 38.402 41.538 38.64C41.3047 38.878 41.0223 39.06 40.691 39.186C40.3643 39.3167 40.0353 39.4123 39.704 39.473C39.3773 39.5383 39.06 39.571 38.752 39.571C37.8 39.571 37.1047 39.417 36.666 39.109L35.931 38.598C35.7583 38.5 35.6137 38.3763 35.497 38.227C35.3803 38.0823 35.287 37.9307 35.217 37.772C35.1517 37.618 35.1003 37.4243 35.063 37.191C35.0303 36.9577 35.0093 36.7407 35 36.54C34.9907 36.3393 34.986 36.085 34.986 35.777C34.986 32.445 35.0327 29.9483 35.126 28.287C35.1353 28.091 35.1423 27.9417 35.147 27.839C35.1843 26.9897 35.2543 26.355 35.357 25.935C35.4317 25.6177 35.567 25.3377 35.763 25.095C35.9637 24.8523 36.1993 24.6657 36.47 24.535C36.7453 24.3997 37.0253 24.3017 37.31 24.241C37.5947 24.1757 37.884 24.143 38.178 24.143C38.9433 24.143 39.5827 24.3507 40.096 24.766L40.796 25.256ZM44.807 38.269C45.031 38.269 45.2503 38.2457 45.465 38.199C45.6843 38.157 45.8967 38.0893 46.102 37.996C46.312 37.9073 46.4893 37.779 46.634 37.611C46.7833 37.443 46.8837 37.247 46.935 37.023C46.9723 36.855 47.0027 36.666 47.026 36.456C47.054 36.246 47.0727 36.0687 47.082 35.924C47.096 35.784 47.11 35.5857 47.124 35.329C47.138 35.0723 47.1473 34.8927 47.152 34.79C47.2453 33.3247 47.292 31.1243 47.292 28.189C47.292 27.1623 47.257 26.4413 47.187 26.026C47.0563 25.2467 46.354 24.857 45.08 24.857C44.8467 24.857 44.6063 24.8757 44.359 24.913C44.1163 24.9503 43.862 25.011 43.596 25.095C43.33 25.1743 43.1013 25.298 42.91 25.466C42.7187 25.6293 42.5997 25.823 42.553 26.047C42.5297 26.1637 42.511 26.2943 42.497 26.439C42.483 26.579 42.4737 26.7003 42.469 26.803C42.469 26.9057 42.4667 27.041 42.462 27.209C42.462 27.377 42.462 27.5007 42.462 27.58C42.4247 28.9987 42.406 30.065 42.406 30.779C42.406 30.8443 42.3733 30.877 42.308 30.877C42.2707 30.877 42.21 30.779 42.126 30.583C42.0467 30.387 41.9557 30.149 41.853 29.869C41.755 29.5843 41.7037 29.4397 41.699 29.435C41.5077 28.945 41.181 28.196 40.719 27.188C40.257 26.18 39.9537 25.6037 39.809 25.459C39.4077 25.053 38.864 24.85 38.178 24.85C37.87 24.85 37.5737 24.8873 37.289 24.962C37.009 25.0367 36.7477 25.172 36.505 25.368C36.267 25.5593 36.113 25.802 36.043 26.096C36.0057 26.264 35.973 26.4553 35.945 26.67C35.917 26.88 35.8983 27.0527 35.889 27.188C35.8797 27.3233 35.868 27.5263 35.854 27.797C35.8447 28.063 35.8377 28.2403 35.833 28.329C35.7397 30.0183 35.693 32.3003 35.693 35.175C35.693 35.245 35.693 35.35 35.693 35.49C35.6883 35.6627 35.686 35.826 35.686 35.98C35.6907 36.1387 35.6953 36.2903 35.7 36.435C35.7093 36.5797 35.7233 36.715 35.742 36.841C35.7653 36.9717 35.7933 37.093 35.826 37.205C35.8587 37.317 35.903 37.422 35.959 37.52C36.015 37.618 36.0803 37.7043 36.155 37.779C36.2343 37.8583 36.3277 37.9283 36.435 37.989C36.547 38.0497 36.673 38.101 36.813 38.143C36.953 38.185 37.1117 38.2153 37.289 38.234C37.471 38.2573 37.6717 38.269 37.891 38.269C38.115 38.269 38.3507 38.2503 38.598 38.213C38.85 38.1757 39.109 38.115 39.375 38.031C39.6457 37.947 39.8767 37.8233 40.068 37.66C40.264 37.4967 40.3853 37.303 40.432 37.079C40.4553 36.9483 40.4717 36.8177 40.481 36.687C40.495 36.5563 40.502 36.3813 40.502 36.162C40.5067 35.9473 40.509 35.8167 40.509 35.77C40.5463 34.3047 40.565 33.2057 40.565 32.473C40.565 32.4637 40.5627 32.4357 40.558 32.389C40.5533 32.3377 40.551 32.2933 40.551 32.256C40.551 32.214 40.5533 32.172 40.558 32.13C40.5627 32.0833 40.5743 32.046 40.593 32.018C40.6117 31.99 40.635 31.976 40.663 31.976C40.705 31.976 40.7377 31.997 40.761 32.039C40.9383 32.3937 41.153 32.914 41.405 33.6C41.657 34.286 41.8297 34.7387 41.923 34.958C42.3803 36.0313 42.721 36.8037 42.945 37.275C43.2623 37.9377 43.883 38.269 44.807 38.269ZM53.5186 24.08C53.9339 24.08 54.3983 24.1057 54.9116 24.157C55.4249 24.2037 55.9686 24.3017 56.5426 24.451C57.1166 24.6003 57.5133 24.7847 57.7326 25.004L58.5586 25.585C59.0439 26.0517 59.2866 26.733 59.2866 27.629C59.2866 27.9883 59.2329 28.392 59.1256 28.84C59.0183 29.288 58.8619 29.631 58.6566 29.869C58.4046 30.1583 58.0639 30.352 57.6346 30.45L57.8516 30.611C58.2296 30.8677 58.4186 31.3833 58.4186 32.158C58.4186 32.8533 58.2879 33.3503 58.0266 33.649C57.7699 33.9477 57.2939 34.097 56.5986 34.097C56.3466 34.097 55.9873 34.0737 55.5206 34.027C55.2406 33.999 55.0329 33.9803 54.8976 33.971C54.9069 34.041 54.9116 34.1273 54.9116 34.23C54.9116 34.79 54.9139 35.21 54.9186 35.49C54.9186 35.63 54.9186 35.8423 54.9186 36.127C54.9233 36.4117 54.9256 36.624 54.9256 36.764V37.177C54.9256 37.4337 54.9163 37.6297 54.8976 37.765C54.8649 38.0917 54.7296 38.3787 54.4916 38.626C54.2583 38.8733 53.9713 39.0623 53.6306 39.193C53.2946 39.3237 52.9586 39.4193 52.6226 39.48C52.2913 39.5453 51.9693 39.578 51.6566 39.578C50.7653 39.578 50.0746 39.4077 49.5846 39.067L48.8636 38.556C48.3643 38.2713 48.0796 37.842 48.0096 37.268C47.9816 37.0393 47.9676 36.7057 47.9676 36.267C47.9676 33.789 48.0189 31.619 48.1216 29.757C48.1403 29.4117 48.1519 29.162 48.1566 29.008C48.1939 28.0093 48.2639 27.2253 48.3666 26.656C48.4599 26.2313 48.6489 25.858 48.9336 25.536C49.2229 25.2093 49.5473 24.9573 49.9066 24.78C50.2706 24.6027 50.6836 24.458 51.1456 24.346C51.6076 24.234 52.0229 24.1617 52.3916 24.129C52.7649 24.0963 53.1406 24.08 53.5186 24.08ZM53.5186 24.787C53.2339 24.787 52.9609 24.7963 52.6996 24.815C52.4383 24.829 52.1373 24.8593 51.7966 24.906C51.4559 24.948 51.1433 25.018 50.8586 25.116C50.5786 25.2093 50.3079 25.326 50.0466 25.466C49.7853 25.606 49.5683 25.7903 49.3956 26.019C49.2229 26.243 49.1109 26.4973 49.0596 26.782C49.0036 27.076 48.9616 27.377 48.9336 27.685C48.9103 27.993 48.8869 28.392 48.8636 28.882C48.8449 29.372 48.8333 29.6777 48.8286 29.799C48.7259 31.661 48.6746 33.817 48.6746 36.267C48.6746 36.6777 48.6863 36.9833 48.7096 37.184C48.7376 37.4033 48.8239 37.59 48.9686 37.744C49.1179 37.898 49.3023 38.01 49.5216 38.08C49.7456 38.1547 49.9579 38.206 50.1586 38.234C50.3593 38.262 50.5716 38.276 50.7956 38.276C51.0196 38.276 51.2576 38.2573 51.5096 38.22C51.7616 38.1827 52.0276 38.122 52.3076 38.038C52.5876 37.9587 52.8233 37.835 53.0146 37.667C53.2106 37.5037 53.3203 37.3077 53.3436 37.079C53.3576 36.9577 53.3646 36.652 53.3646 36.162C53.3646 35.882 53.3623 35.4597 53.3576 34.895C53.3529 34.3303 53.3506 33.908 53.3506 33.628C53.3506 33.0727 53.3809 32.767 53.4416 32.711C53.4789 32.6783 53.5699 32.662 53.7146 32.662C53.9386 32.662 54.2746 32.6853 54.7226 32.732C55.1706 32.774 55.5089 32.795 55.7376 32.795C56.1716 32.795 56.4656 32.6993 56.6196 32.508C56.7783 32.3167 56.8576 31.9993 56.8576 31.556C56.8576 31.2153 56.7993 30.947 56.6826 30.751C56.5706 30.555 56.3559 30.457 56.0386 30.457C55.7773 30.457 55.3899 30.492 54.8766 30.562C54.3633 30.6273 53.9759 30.66 53.7146 30.66C53.5979 30.66 53.5209 30.6437 53.4836 30.611C53.4089 30.5363 53.3716 30.1677 53.3716 29.505C53.3716 29.3743 53.3949 29.2787 53.4416 29.218C53.4929 29.1527 53.5816 29.12 53.7076 29.12C53.9316 29.12 54.2653 29.141 54.7086 29.183C55.1519 29.2203 55.4856 29.239 55.7096 29.239C55.9383 29.239 56.1273 29.2343 56.2766 29.225C56.4259 29.211 56.5986 29.1713 56.7946 29.106C56.9953 29.036 57.1516 28.938 57.2636 28.812C57.4129 28.6393 57.5273 28.3733 57.6066 28.014C57.6859 27.6547 57.7256 27.3257 57.7256 27.027C57.7256 26.3317 57.5553 25.8183 57.2146 25.487C57.0419 25.319 56.6966 25.179 56.1786 25.067C55.6606 24.9503 55.1753 24.8757 54.7226 24.843C54.2699 24.8057 53.8686 24.787 53.5186 24.787ZM58.5586 25.585C58.4839 25.5103 58.3789 25.4357 58.2436 25.361L58.5586 25.585ZM68.8647 28.833C69.0467 28.833 69.2007 28.812 69.3267 28.77C69.5087 28.7093 69.6627 28.5437 69.7887 28.273C69.9147 27.9977 69.9964 27.7293 70.0337 27.468C70.0757 27.2067 70.0967 26.964 70.0967 26.74C70.0967 25.83 69.8307 25.2653 69.2987 25.046C68.93 24.8967 67.3667 24.822 64.6087 24.822H63.3487C60.7307 24.822 59.235 24.8967 58.8617 25.046C58.2597 25.2933 57.9587 25.928 57.9587 26.95C57.9587 27.1367 57.975 27.328 58.0077 27.524C58.0404 27.7153 58.094 27.9137 58.1687 28.119C58.2434 28.3197 58.353 28.483 58.4977 28.609C58.647 28.735 58.822 28.798 59.0227 28.798C59.3167 28.798 59.7554 28.7537 60.3387 28.665C60.9267 28.5717 61.3677 28.525 61.6617 28.525C61.741 28.525 61.804 28.5507 61.8507 28.602C61.8974 28.6487 61.9207 28.7093 61.9207 28.784C61.9207 29.0687 61.8974 29.4723 61.8507 29.995C61.804 30.5177 61.776 30.849 61.7667 30.989C61.678 32.4497 61.6337 34.1833 61.6337 36.19C61.6337 36.596 61.6477 36.8993 61.6757 37.1C61.7084 37.3333 61.797 37.5317 61.9417 37.695C62.0864 37.8583 62.266 37.9773 62.4807 38.052C62.7 38.1313 62.9124 38.1873 63.1177 38.22C63.3277 38.2527 63.5494 38.269 63.7827 38.269C64.016 38.269 64.254 38.2503 64.4967 38.213C64.744 38.1757 65.0007 38.115 65.2667 38.031C65.5374 37.9517 65.7684 37.828 65.9597 37.66C66.151 37.4967 66.27 37.303 66.3167 37.079C66.4147 36.631 66.4637 35.9357 66.4637 34.993C66.4637 34.3023 66.4497 33.2663 66.4217 31.885C66.3937 30.499 66.3797 29.4607 66.3797 28.77C66.3797 28.6067 66.4707 28.525 66.6527 28.525C66.9047 28.525 67.2734 28.5763 67.7587 28.679C68.244 28.7817 68.6127 28.833 68.8647 28.833ZM58.2807 29.323C58.0334 29.183 57.828 28.9637 57.6647 28.665C57.5014 28.3663 57.3917 28.077 57.3357 27.797C57.2797 27.5123 57.2517 27.23 57.2517 26.95C57.2517 26.6933 57.2727 26.4483 57.3147 26.215C57.352 25.9817 57.4174 25.7437 57.5107 25.501C57.604 25.2537 57.7417 25.0343 57.9237 24.843C58.1104 24.647 58.3344 24.4953 58.5957 24.388C59.053 24.206 60.586 24.115 63.1947 24.115H64.6087C67.46 24.115 69.112 24.206 69.5647 24.388C69.7514 24.4673 69.924 24.57 70.0827 24.696L70.8107 25.207C71.3754 25.6037 71.6577 26.3153 71.6577 27.342C71.6577 27.6593 71.6087 28.028 71.5107 28.448C71.4127 28.868 71.2634 29.2227 71.0627 29.512C70.904 29.7453 70.7174 29.9087 70.5027 30.002C70.2927 30.0907 70.0337 30.135 69.7257 30.135C69.4317 30.135 69.014 30.079 68.4727 29.967C68.1414 29.9017 67.964 29.8667 67.9407 29.862C67.9454 30.7253 67.9594 31.5957 67.9827 32.473C68.0107 33.8543 68.0247 34.895 68.0247 35.595C68.0247 36.5657 67.971 37.31 67.8637 37.828C67.7844 38.136 67.6257 38.4067 67.3877 38.64C67.1497 38.878 66.872 39.06 66.5547 39.186C66.242 39.3167 65.9224 39.4123 65.5957 39.473C65.2737 39.5383 64.9564 39.571 64.6437 39.571C63.771 39.571 63.0897 39.3983 62.5997 39.053L61.8787 38.549C61.6967 38.4417 61.5427 38.3157 61.4167 38.171C61.2954 38.031 61.202 37.8957 61.1367 37.765C61.0714 37.6343 61.0224 37.4663 60.9897 37.261C60.957 37.0603 60.9384 36.8923 60.9337 36.757C60.929 36.6217 60.9267 36.4327 60.9267 36.19C60.9267 34.1553 60.971 32.4077 61.0597 30.947C61.0644 30.8397 61.076 30.681 61.0947 30.471C61.1134 30.2563 61.125 30.1233 61.1297 30.072C61.1344 30.0627 61.1367 30.0487 61.1367 30.03C61.1414 30.0067 61.1437 29.9903 61.1437 29.981C60.6257 30.0603 60.2057 30.1 59.8837 30.1C59.5617 30.1 59.277 30.0137 59.0297 29.841L58.2807 29.323Z" fill="white"/>
</g>
<defs>
<filter id="filter0_diiiii_30_56" x="0.5" y="-1" width="105" height="67.5" filterUnits="userSpaceOnUse" color-interpolation-filters="sRGB">
<feFlood flood-opacity="0" result="BackgroundImageFix"/>
<feColorMatrix in="SourceAlpha" type="matrix" values="0 0 0 0 0 0 0 0 0 0 0 0 0 0 0 0 0 0 127 0" result="hardAlpha"/>
<feOffset dy="2"/>
<feGaussianBlur stdDeviation="1.25"/>
<feComposite in2="hardAlpha" operator="out"/>
<feColorMatrix type="matrix" values="0 0 0 0 0.745833 0 0 0 0 0.0559375 0 0 0 0 0.538864 0 0 0 0.25 0"/>
<feBlend mode="normal" in2="BackgroundImageFix" result="effect1_dropShadow_30_56"/>
<feBlend mode="normal" in="SourceGraphic" in2="effect1_dropShadow_30_56" result="shape"/>
<feColorMatrix in="SourceAlpha" type="matrix" values="0 0 0 0 0 0 0 0 0 0 0 0 0 0 0 0 0 0 127 0" result="hardAlpha"/>
<feMorphology radius="1" operator="erode" in="SourceAlpha" result="effect2_innerShadow_30_56"/>
<feOffset dy="-2"/>
<feGaussianBlur stdDeviation="1"/>
<feComposite in2="hardAlpha" operator="arithmetic" k2="-1" k3="1"/>
<feColorMatrix type="matrix" values="0 0 0 0 0.262745 0 0 0 0 0.0666667 0 0 0 0 0.203922 0 0 0 1 0"/>
<feBlend mode="normal" in2="shape" result="effect2_innerShadow_30_56"/>
<feColorMatrix in="SourceAlpha" type="matrix" values="0 0 0 0 0 0 0 0 0 0 0 0 0 0 0 0 0 0 127 0" result="hardAlpha"/>
<feMorphology radius="1" operator="erode" in="SourceAlpha" result="effect3_innerShadow_30_56"/>
<feOffset dy="2"/>
<feGaussianBlur stdDeviation="1"/>
<feComposite in2="hardAlpha" operator="arithmetic" k2="-1" k3="1"/>
<feColorMatrix type="matrix" values="0 0 0 0 1 0 0 0 0 1 0 0 0 0 1 0 0 0 0.5 0"/>
<feBlend mode="normal" in2="effect2_innerShadow_30_56" result="effect3_innerShadow_30_56"/>
<feColorMatrix in="SourceAlpha" type="matrix" values="0 0 0 0 0 0 0 0 0 0 0 0 0 0 0 0 0 0 127 0" result="hardAlpha"/>
<feMorphology radius="1" operator="erode" in="SourceAlpha" result="effect4_innerShadow_30_56"/>
<feOffset dy="2"/>
<feComposite in2="hardAlpha" operator="arithmetic" k2="-1" k3="1"/>
<feColorMatrix type="matrix" values="0 0 0 0 0.262745 0 0 0 0 0.0666667 0 0 0 0 0.203922 0 0 0 1 0"/>
<feBlend mode="normal" in2="effect3_innerShadow_30_56" result="effect4_innerShadow_30_56"/>
<feColorMatrix in="SourceAlpha" type="matrix" values="0 0 0 0 0 0 0 0 0 0 0 0 0 0 0 0 0 0 127 0" result="hardAlpha"/>
<feOffset dx="2"/>
<feGaussianBlur stdDeviation="0.5"/>
<feComposite in2="hardAlpha" operator="arithmetic" k2="-1" k3="1"/>
<feColorMatrix type="matrix" values="0 0 0 0 0.262745 0 0 0 0 0.0666667 0 0 0 0 0.203922 0 0 0 1 0"/>
<feBlend mode="normal" in2="effect4_innerShadow_30_56" result="effect5_innerShadow_30_56"/>
<feColorMatrix in="SourceAlpha" type="matrix" values="0 0 0 0 0 0 0 0 0 0 0 0 0 0 0 0 0 0 127 0" result="hardAlpha"/>
<feOffset dx="-2"/>
<feGaussianBlur stdDeviation="0.5"/>
<feComposite in2="hardAlpha" operator="arithmetic" k2="-1" k3="1"/>
<feColorMatrix type="matrix" values="0 0 0 0 0.262745 0 0 0 0 0.0666667 0 0 0 0 0.203922 0 0 0 1 0"/>
<feBlend mode="normal" in2="effect5_innerShadow_30_56" result="effect6_innerShadow_30_56"/>
</filter>
<linearGradient id="paint0_linear_30_56" x1="15.2857" y1="49.6094" x2="132.605" y2="34.0806" gradientUnits="userSpaceOnUse">
<stop stop-color="#DA5476"/>
<stop offset="1" stop-color="#FBCAA2"/>
</linearGradient>
</defs>
</svg>
