<svg width="159" height="107" viewBox="0 0 159 107" fill="none" xmlns="http://www.w3.org/2000/svg">
<path d="M81.893 101.187C81.2772 102.993 78.7228 102.993 78.107 101.187L63.5814 58.5802C63.139 57.2826 64.1035 55.9348 65.4744 55.9348L94.5256 55.9348C95.8965 55.9348 96.861 57.2826 96.4186 58.5802L81.893 101.187Z" fill="#E98B8A"/>
<circle cx="80" cy="103" r="3" fill="white"/>
<g filter="url(#filter0_diiiii_30_50)">
<rect x="3" y="1" width="153" height="61" rx="30.5" fill="url(#paint0_linear_30_50)" shape-rendering="crispEdges"/>
<rect x="3.5" y="1.5" width="152" height="60" rx="30" stroke="#431134" shape-rendering="crispEdges"/>
<path d="M41.678 32.333C41.678 32.221 41.7713 32.1277 41.958 32.053C42.1493 31.9737 42.3943 31.906 42.693 31.85C42.9963 31.7893 43.155 31.7567 43.169 31.752C44.933 31.2247 45.815 30.1537 45.815 28.539C45.815 28.0723 45.738 27.6523 45.584 27.279C45.43 26.901 45.2293 26.586 44.982 26.334C44.7393 26.082 44.4337 25.8627 44.065 25.676C43.6963 25.4893 43.33 25.3447 42.966 25.242C42.6067 25.1393 42.1983 25.0577 41.741 24.997C41.2837 24.9317 40.8753 24.892 40.516 24.878C40.1613 24.8593 39.7763 24.85 39.361 24.85C37.6903 24.85 36.7103 25.067 36.421 25.501C36.3323 25.641 36.267 25.8393 36.225 26.096C36.001 27.5987 35.8563 29.1293 35.791 30.688C35.7303 32.242 35.7 34.0923 35.7 36.239C35.7 36.6217 35.714 36.9087 35.742 37.1C35.77 37.2867 35.8353 37.4523 35.938 37.597C36.0453 37.7417 36.169 37.8537 36.309 37.933C36.449 38.017 36.6123 38.0847 36.799 38.136C36.9857 38.1873 37.1607 38.2223 37.324 38.241C37.492 38.2597 37.667 38.269 37.849 38.269C38.073 38.269 38.3087 38.2503 38.556 38.213C38.808 38.1757 39.0693 38.115 39.34 38.031C39.6107 37.947 39.8417 37.8233 40.033 37.66C40.229 37.4967 40.3457 37.303 40.383 37.079C40.4157 36.9017 40.432 36.7127 40.432 36.512C40.4367 36.316 40.432 36.0897 40.418 35.833C40.4087 35.5763 40.404 35.3873 40.404 35.266C40.404 34.972 40.453 34.811 40.551 34.783L40.607 34.825C40.8543 35.049 41.111 35.3523 41.377 35.735C41.6477 36.1177 41.916 36.5003 42.182 36.883C42.448 37.2657 42.7 37.5667 42.938 37.786C43.2227 38.038 43.5073 38.164 43.792 38.164C44.156 38.164 44.5247 38.0217 44.898 37.737C45.2713 37.457 45.5723 37.114 45.801 36.708C46.0297 36.302 46.144 35.9193 46.144 35.56C46.144 35.2567 46.0367 34.9813 45.822 34.734C45.584 34.4587 45.1173 34.118 44.422 33.712C43.7267 33.306 43.148 33.012 42.686 32.83C42.6113 32.802 42.469 32.753 42.259 32.683C42.0537 32.613 41.8997 32.5523 41.797 32.501C41.7177 32.459 41.678 32.403 41.678 32.333ZM40.495 29.904C40.495 29.1947 40.4763 28.553 40.439 27.979C40.4857 27.9743 40.5533 27.972 40.642 27.972C40.936 27.972 41.2137 28.063 41.475 28.245C41.741 28.4223 41.874 28.651 41.874 28.931C41.874 29.197 41.713 29.428 41.391 29.624C41.0737 29.8153 40.775 29.9087 40.495 29.904ZM35.945 38.549C35.7677 38.4463 35.616 38.325 35.49 38.185C35.3687 38.045 35.2753 37.9097 35.21 37.779C35.1447 37.6483 35.0957 37.485 35.063 37.289C35.0303 37.0977 35.0093 36.932 35 36.792C34.9953 36.6567 34.993 36.4723 34.993 36.239C34.993 34.825 35 33.6607 35.014 32.746C35.0327 31.8267 35.0817 30.737 35.161 29.477C35.245 28.2123 35.3663 27.0503 35.525 25.991C35.581 25.6317 35.6813 25.34 35.826 25.116C36.2553 24.4673 37.4337 24.143 39.361 24.143C42.077 24.143 44.0067 24.5957 45.15 25.501L45.815 25.963C46.8557 26.7003 47.376 27.7597 47.376 29.141C47.376 30.9937 46.41 32.2607 44.478 32.942C45.0613 33.2733 45.5257 33.5743 45.871 33.845L46.459 34.251C46.6643 34.3957 46.83 34.524 46.956 34.636C47.082 34.7433 47.208 34.874 47.334 35.028C47.4647 35.1867 47.558 35.357 47.614 35.539C47.6747 35.7257 47.705 35.9333 47.705 36.162C47.705 36.512 47.6117 36.883 47.425 37.275C47.243 37.6717 47.0097 38.0287 46.725 38.346C46.4403 38.668 46.1113 38.934 45.738 39.144C45.3647 39.3587 45.003 39.466 44.653 39.466C44.2843 39.466 43.9343 39.354 43.603 39.13L42.889 38.626C42.6137 38.472 42.2987 38.1803 41.944 37.751C41.9393 37.7557 41.9347 37.765 41.93 37.779C41.93 37.793 41.93 37.8023 41.93 37.807C41.8693 38.1103 41.72 38.381 41.482 38.619C41.244 38.857 40.9617 39.0413 40.635 39.172C40.3083 39.3027 39.9793 39.4007 39.648 39.466C39.3213 39.536 39.0087 39.571 38.71 39.571C37.842 39.571 37.1607 39.4007 36.666 39.06L35.945 38.549ZM42.378 32.333C42.378 32.4777 42.4807 32.55 42.686 32.55L42.378 32.333ZM43.022 32.501C43.0033 32.4963 42.9847 32.487 42.966 32.473L42.973 32.48L43.015 32.501H43.022ZM43.862 33.103L43.127 32.592L43.862 33.103ZM44.233 33.026L44.002 32.865L44.233 33.026ZM52.426 24.759C50.6713 24.759 49.346 25.4427 48.45 26.81C47.932 27.5987 47.5003 28.5973 47.155 29.806C46.8096 31.01 46.637 32.0927 46.637 33.054C46.637 33.7867 46.7303 34.4447 46.917 35.028C47.1036 35.6113 47.3673 36.106 47.708 36.512C48.0486 36.918 48.464 37.2563 48.954 37.527C49.444 37.7977 49.9853 37.9937 50.578 38.115C51.1706 38.241 51.8193 38.304 52.524 38.304C53.2426 38.304 53.9006 38.2387 54.498 38.108C55.0953 37.9773 55.639 37.772 56.129 37.492C56.619 37.212 57.0343 36.862 57.375 36.442C57.7156 36.0267 57.977 35.5227 58.159 34.93C58.3456 34.3373 58.439 33.6723 58.439 32.935C58.439 31.9877 58.2733 30.9377 57.942 29.785C57.6153 28.6277 57.1976 27.6757 56.689 26.929C56.2036 26.2197 55.5923 25.6807 54.855 25.312C54.1176 24.9433 53.308 24.759 52.426 24.759ZM52.496 35.203C52.3373 35.203 52.195 35.147 52.069 35.035C51.9476 34.923 51.8496 34.769 51.775 34.573C51.705 34.377 51.6443 34.1787 51.593 33.978C51.5463 33.7727 51.5136 33.544 51.495 33.292C51.4763 33.04 51.4623 32.837 51.453 32.683C51.4483 32.529 51.446 32.3727 51.446 32.214C51.446 31.99 51.4646 31.6517 51.502 31.199C51.5393 30.7417 51.5953 30.233 51.67 29.673C51.7446 29.113 51.8543 28.63 51.999 28.224C52.1436 27.818 52.307 27.615 52.489 27.615C52.6756 27.615 52.839 27.8133 52.979 28.21C53.1236 28.6067 53.231 29.0827 53.301 29.638C53.371 30.1887 53.4223 30.6857 53.455 31.129C53.4923 31.5677 53.511 31.9013 53.511 32.13C53.511 32.284 53.5063 32.4403 53.497 32.599C53.4923 32.753 53.4806 32.9583 53.462 33.215C53.4433 33.4717 53.4106 33.7073 53.364 33.922C53.3173 34.1367 53.259 34.3467 53.189 34.552C53.119 34.7527 53.0233 34.9113 52.902 35.028C52.7853 35.1447 52.65 35.203 52.496 35.203ZM52.426 24.052C53.8353 24.052 55.0486 24.4487 56.066 25.242L56.703 25.69C57.2536 26.0727 57.7273 26.5557 58.124 27.139C58.67 27.937 59.118 28.952 59.468 30.184C59.8226 31.4113 60 32.529 60 33.537C60 34.5543 59.846 35.4503 59.538 36.225C59.2346 36.9997 58.7936 37.632 58.215 38.122C57.6363 38.6167 56.9433 38.9877 56.136 39.235C55.3286 39.4823 54.4116 39.606 53.385 39.606C51.5323 39.606 50.0506 39.221 48.94 38.451L48.296 37.996C46.7186 37.016 45.93 35.3687 45.93 33.054C45.93 32.032 46.1143 30.8817 46.483 29.603C46.8516 28.3243 47.3113 27.265 47.862 26.425C48.8933 24.843 50.4146 24.052 52.426 24.052ZM53.245 35.028C53.2823 35.0793 53.3196 35.105 53.357 35.105L53.245 35.028ZM64.6037 24.822C63.0963 24.822 62.1513 25.186 61.7687 25.914C61.484 26.46 60.924 28.294 60.0887 31.416C59.2533 34.538 58.8357 36.379 58.8357 36.939C58.8357 37.1817 58.9173 37.3917 59.0807 37.569C59.2487 37.7463 59.461 37.877 59.7177 37.961C59.979 38.0497 60.231 38.1127 60.4737 38.15C60.7163 38.192 60.9497 38.213 61.1737 38.213C62.3123 38.213 63.0263 37.9097 63.3157 37.303C63.4463 37.0323 63.5397 36.6567 63.5957 36.176C63.6563 35.7 63.7053 35.245 63.7427 34.811C63.7847 34.377 63.8453 34.0737 63.9247 33.901C63.9993 33.7377 64.095 33.6303 64.2117 33.579C64.3283 33.523 64.487 33.495 64.6877 33.495C64.8837 33.495 65.04 33.523 65.1567 33.579C65.2733 33.6303 65.3713 33.7377 65.4507 33.901C65.4787 33.957 65.523 34.2183 65.5837 34.685C65.5883 34.7177 65.607 34.8693 65.6397 35.14C65.677 35.4107 65.7073 35.63 65.7307 35.798C65.7587 35.9707 65.7913 36.1783 65.8287 36.421C65.8707 36.6683 65.9127 36.8783 65.9547 37.051C66.0013 37.2237 66.0457 37.3543 66.0877 37.443C66.2417 37.7603 66.482 37.9727 66.8087 38.08C67.1353 38.192 67.518 38.248 67.9567 38.248C68.1293 38.248 68.3183 38.234 68.5237 38.206C68.7337 38.1827 68.9577 38.136 69.1957 38.066C69.4383 38.0007 69.6553 37.919 69.8467 37.821C70.0427 37.7277 70.206 37.5993 70.3367 37.436C70.4673 37.2727 70.5327 37.093 70.5327 36.897C70.5327 36.4397 70.0893 34.6103 69.2027 31.409C68.3207 28.203 67.7583 26.3713 67.5157 25.914C67.399 25.6947 67.2263 25.508 66.9977 25.354C66.769 25.2 66.51 25.088 66.2207 25.018C65.9313 24.9433 65.6583 24.892 65.4017 24.864C65.145 24.836 64.879 24.822 64.6037 24.822ZM64.1137 31.038C64.1137 30.7533 64.13 30.4523 64.1627 30.135C64.1953 29.8177 64.2397 29.463 64.2957 29.071C64.3563 28.6743 64.3983 28.3733 64.4217 28.168C64.4637 28.1073 64.5337 28.077 64.6317 28.077C64.7063 28.077 64.7717 28.1073 64.8277 28.168C64.837 28.182 64.8883 28.6393 64.9817 29.54C65.0797 30.436 65.1287 30.9447 65.1287 31.066C65.1287 31.136 65.0657 31.1873 64.9397 31.22C64.8183 31.248 64.7063 31.262 64.6037 31.262C64.277 31.262 64.1137 31.1873 64.1137 31.038ZM64.6037 24.115C65.9383 24.115 66.9347 24.3857 67.5927 24.927L68.2997 25.417C68.603 25.6317 68.834 25.8883 68.9927 26.187C69.1513 26.481 69.4827 27.4937 69.9867 29.225C70.4953 30.9563 70.9737 32.6923 71.4217 34.433C71.8697 36.1737 72.0937 37.1957 72.0937 37.499C72.0937 37.849 71.9793 38.1617 71.7507 38.437C71.5267 38.717 71.2397 38.934 70.8897 39.088C70.5443 39.242 70.192 39.3563 69.8327 39.431C69.478 39.5103 69.1397 39.55 68.8177 39.55C68.015 39.55 67.392 39.3937 66.9487 39.081L66.2277 38.577C65.887 38.381 65.649 38.143 65.5137 37.863C65.3783 37.5877 65.2663 37.212 65.1777 36.736C65.0937 37.3753 64.97 37.8653 64.8067 38.206C64.4007 39.0787 63.4767 39.515 62.0347 39.515C61.6567 39.515 61.2553 39.466 60.8307 39.368C60.406 39.27 60.0397 39.1113 59.7317 38.892L59.0177 38.395C58.425 38.045 58.1287 37.5597 58.1287 36.939C58.1287 36.3603 58.558 34.4633 59.4167 31.248C60.2753 28.0327 60.8517 26.145 61.1457 25.585C61.659 24.605 62.8117 24.115 64.6037 24.115ZM71.4586 36.295C71.4586 36.6823 71.475 36.9507 71.5076 37.1C71.5496 37.31 71.6313 37.4897 71.7526 37.639C71.874 37.793 72.0046 37.9097 72.1446 37.989C72.2893 38.0683 72.469 38.129 72.6836 38.171C72.8983 38.2177 73.085 38.2457 73.2436 38.255C73.407 38.2643 73.6006 38.269 73.8246 38.269C74.5386 38.269 75.2153 38.2317 75.8546 38.157C76.494 38.0823 77.1193 37.9587 77.7306 37.786C78.3466 37.618 78.9066 37.4033 79.4106 37.142C79.9193 36.8807 80.3883 36.5563 80.8176 36.169C81.247 35.7817 81.6086 35.343 81.9026 34.853C82.2013 34.3583 82.4323 33.7843 82.5956 33.131C82.759 32.4777 82.8406 31.766 82.8406 30.996C82.8406 30.1233 82.7146 29.337 82.4626 28.637C82.2153 27.937 81.87 27.3513 81.4266 26.88C80.988 26.4087 80.4583 26.0167 79.8376 25.704C79.217 25.3867 78.5473 25.158 77.8286 25.018C77.11 24.878 76.3353 24.808 75.5046 24.808C75.3506 24.808 75.1196 24.815 74.8116 24.829C74.5083 24.843 74.2796 24.85 74.1256 24.85C73.617 24.85 73.1666 24.948 72.7746 25.144C72.3873 25.34 72.126 25.6573 71.9906 26.096C71.902 26.39 71.839 26.7003 71.8016 27.027C71.7643 27.349 71.7386 27.762 71.7246 28.266C71.7106 28.77 71.699 29.0873 71.6896 29.218C71.5356 31.6913 71.4586 34.0503 71.4586 36.295ZM76.2886 32.368C76.2886 30.8793 76.2723 29.764 76.2396 29.022C76.1976 28.042 76.1766 27.5497 76.1766 27.545C76.1766 27.475 76.1976 27.419 76.2396 27.377C76.2863 27.335 76.3446 27.314 76.4146 27.314C76.6946 27.314 76.9816 27.384 77.2756 27.524C78.2836 27.9907 78.7876 29.1223 78.7876 30.919C78.7876 31.1803 78.7806 31.4277 78.7666 31.661C78.7573 31.8897 78.734 32.1463 78.6966 32.431C78.6593 32.7157 78.608 32.977 78.5426 33.215C78.482 33.4483 78.3956 33.6863 78.2836 33.929C78.1716 34.1717 78.041 34.384 77.8916 34.566C77.747 34.7433 77.565 34.902 77.3456 35.042C77.1263 35.182 76.8813 35.2823 76.6106 35.343L76.5546 35.35C76.4706 35.35 76.4006 35.3173 76.3446 35.252C76.2886 35.1913 76.2606 35.119 76.2606 35.035C76.2606 34.7363 76.2653 34.293 76.2746 33.705C76.284 33.1123 76.2886 32.6667 76.2886 32.368ZM70.7516 36.456C70.7516 34.0247 70.8286 31.598 70.9826 29.176C70.9966 28.9987 71.0083 28.7397 71.0176 28.399C71.0456 27.2837 71.1436 26.4483 71.3116 25.893C71.4096 25.571 71.5566 25.2933 71.7526 25.06C71.9486 24.8267 72.1773 24.647 72.4386 24.521C72.7 24.3903 72.9683 24.2947 73.2436 24.234C73.5236 24.1733 73.8176 24.143 74.1256 24.143C74.331 24.143 74.5503 24.136 74.7836 24.122C75.2456 24.108 75.486 24.101 75.5046 24.101C77.9406 24.101 79.854 24.64 81.2446 25.718L81.8746 26.152C83.5593 27.3373 84.4016 29.1527 84.4016 31.598C84.4016 32.424 84.3176 33.187 84.1496 33.887C83.9816 34.587 83.7413 35.2077 83.4286 35.749C83.1206 36.2903 82.7426 36.7733 82.2946 37.198C81.8466 37.6273 81.3496 37.989 80.8036 38.283C80.2576 38.577 79.6556 38.8197 78.9976 39.011C78.3396 39.207 77.656 39.3493 76.9466 39.438C76.2373 39.5267 75.4836 39.571 74.6856 39.571C73.687 39.571 72.9496 39.403 72.4736 39.067L71.7526 38.563C71.3746 38.3437 71.1133 38.059 70.9686 37.709C70.824 37.359 70.7516 36.9413 70.7516 36.456ZM77.7726 29.099C77.824 30.317 77.8496 31.647 77.8496 33.089C78.0036 32.5383 78.0806 31.815 78.0806 30.919C78.0806 30.135 77.978 29.505 77.7726 29.029V29.099ZM97.3534 38.269C97.5867 38.269 97.806 38.2527 98.0114 38.22C98.2214 38.1873 98.4337 38.1313 98.6484 38.052C98.863 37.9773 99.0427 37.8583 99.1874 37.695C99.332 37.5317 99.423 37.3333 99.4604 37.1C99.4884 36.9133 99.5024 36.6263 99.5024 36.239C99.5024 33.6817 99.4277 31.2993 99.2784 29.092C99.269 28.952 99.2527 28.7117 99.2294 28.371C99.2107 28.0257 99.1944 27.7573 99.1804 27.566C99.1664 27.3747 99.1407 27.139 99.1034 26.859C99.0707 26.579 99.0287 26.3247 98.9774 26.096C98.926 25.8767 98.8257 25.683 98.6764 25.515C98.527 25.347 98.3497 25.2163 98.1444 25.123C97.939 25.0297 97.7267 24.962 97.5074 24.92C97.2927 24.8733 97.0734 24.85 96.8494 24.85C96.126 24.85 95.58 25.053 95.2114 25.459C95.0387 25.6457 94.656 26.4437 94.0634 27.853C93.4707 29.2577 92.997 30.415 92.6424 31.325C92.5957 31.451 92.5327 31.633 92.4534 31.871C92.3787 32.109 92.304 32.3237 92.2294 32.515C92.1547 32.7063 92.073 32.879 91.9844 33.033C91.9237 33.1497 91.842 33.208 91.7394 33.208C91.6414 33.208 91.5574 33.1497 91.4874 33.033C91.4127 32.9023 91.3427 32.7577 91.2774 32.599C91.2167 32.4357 91.1537 32.256 91.0884 32.06C91.0277 31.8593 90.9764 31.7053 90.9344 31.598C90.5984 30.7347 90.106 29.5447 89.4574 28.028C88.8087 26.5067 88.398 25.6503 88.2254 25.459C87.8567 25.053 87.3107 24.85 86.5874 24.85C86.3634 24.85 86.1417 24.8733 85.9224 24.92C85.7077 24.962 85.4977 25.0297 85.2924 25.123C85.087 25.2163 84.9097 25.347 84.7604 25.515C84.611 25.683 84.5107 25.8767 84.4594 26.096C84.408 26.3247 84.3637 26.579 84.3264 26.859C84.2937 27.139 84.2704 27.3747 84.2564 27.566C84.2424 27.7573 84.2237 28.0257 84.2004 28.371C84.1817 28.7117 84.1677 28.952 84.1584 29.092C84.009 31.2993 83.9344 33.6817 83.9344 36.239C83.9344 36.6263 83.9484 36.9133 83.9764 37.1C84.0137 37.3333 84.1047 37.5317 84.2494 37.695C84.394 37.8583 84.5737 37.9773 84.7884 38.052C85.003 38.1313 85.213 38.1873 85.4184 38.22C85.6284 38.2527 85.85 38.269 86.0834 38.269C86.312 38.269 86.55 38.2503 86.7974 38.213C87.0447 38.1757 87.3014 38.115 87.5674 38.031C87.838 37.947 88.069 37.8233 88.2604 37.66C88.4517 37.4967 88.5707 37.303 88.6174 37.079C88.6454 36.939 88.664 36.7967 88.6734 36.652C88.6874 36.5073 88.6944 36.316 88.6944 36.078C88.699 35.84 88.7014 35.6953 88.7014 35.644C88.7387 34.2067 88.7574 33.131 88.7574 32.417C88.7574 32.4077 88.755 32.382 88.7504 32.34C88.7504 32.2933 88.7504 32.2513 88.7504 32.214C88.7504 32.1767 88.7504 32.137 88.7504 32.095C88.755 32.053 88.7667 32.0203 88.7854 31.997C88.804 31.9737 88.8274 31.962 88.8554 31.962C88.8927 31.962 88.923 31.983 88.9464 32.025C89.161 32.4543 89.4294 33.082 89.7514 33.908C90.0734 34.734 90.295 35.2847 90.4164 35.56C90.449 35.6347 90.505 35.7653 90.5844 35.952C90.6637 36.1433 90.7337 36.3043 90.7944 36.435C90.8597 36.5703 90.9297 36.6963 91.0044 36.813C91.2377 37.191 91.4804 37.38 91.7324 37.38C91.8864 37.38 92.017 37.3287 92.1244 37.226C92.2317 37.1233 92.3344 36.9857 92.4324 36.813C92.4884 36.715 92.542 36.6123 92.5934 36.505C92.6447 36.3977 92.703 36.2647 92.7684 36.106C92.8384 35.9473 92.885 35.8423 92.9084 35.791C93.473 34.5123 93.83 33.6863 93.9794 33.313C94.0167 33.2197 94.0937 33.0213 94.2104 32.718C94.327 32.4147 94.4204 32.1837 94.4904 32.025L94.5814 31.962C94.6514 31.9667 94.6864 32.046 94.6864 32.2C94.6864 33.4227 94.7027 34.5707 94.7354 35.644C94.74 35.7233 94.7424 35.84 94.7424 35.994C94.7424 36.1527 94.7424 36.2787 94.7424 36.372C94.747 36.47 94.754 36.5843 94.7634 36.715C94.7774 36.8503 94.796 36.9717 94.8194 37.079C94.866 37.303 94.985 37.4967 95.1764 37.66C95.3677 37.8233 95.5964 37.947 95.8624 38.031C96.133 38.115 96.392 38.1757 96.6394 38.213C96.8867 38.2503 97.1247 38.269 97.3534 38.269ZM89.6044 25.592C89.9124 25.9373 90.7244 27.7177 92.0404 30.933C92.4324 29.9297 92.92 28.7513 93.5034 27.398C94.0867 26.04 94.4834 25.235 94.6934 24.983C95.216 24.423 95.9347 24.143 96.8494 24.143C97.2274 24.143 97.6054 24.199 97.9834 24.311C98.3614 24.4183 98.6904 24.5863 98.9704 24.815L99.6774 25.312C100.13 25.6293 100.41 26.04 100.517 26.544C100.639 27.0807 100.732 27.8973 100.797 28.994C100.975 31.7567 101.063 34.3723 101.063 36.841C101.063 37.261 101.047 37.583 101.014 37.807C100.954 38.143 100.835 38.43 100.657 38.668C100.48 38.906 100.258 39.088 99.9924 39.214C99.7264 39.34 99.4487 39.431 99.1594 39.487C98.87 39.543 98.555 39.571 98.2144 39.571C97.8177 39.571 97.3884 39.5173 96.9264 39.41C96.469 39.3027 96.0747 39.1323 95.7434 38.899L95.0364 38.402C94.5557 38.122 94.257 37.751 94.1404 37.289C94.047 37.4897 93.9607 37.6577 93.8814 37.793C93.802 37.933 93.6994 38.0777 93.5734 38.227C93.4474 38.3763 93.3027 38.4883 93.1394 38.563C92.976 38.6423 92.794 38.682 92.5934 38.682C92.3227 38.682 92.0754 38.605 91.8514 38.451L91.1094 37.926C90.9414 37.8373 90.7804 37.6973 90.6264 37.506C90.477 37.3193 90.3534 37.1233 90.2554 36.918C90.246 37.2633 90.2157 37.5643 90.1644 37.821C90.0944 38.1383 89.9427 38.416 89.7094 38.654C89.476 38.892 89.1984 39.074 88.8764 39.2C88.5544 39.326 88.23 39.4193 87.9034 39.48C87.5814 39.5407 87.2617 39.571 86.9444 39.571C86.0717 39.571 85.3927 39.4007 84.9074 39.06L84.1864 38.556C83.967 38.4253 83.7874 38.276 83.6474 38.108C83.512 37.9447 83.414 37.751 83.3534 37.527C83.2974 37.3077 83.2624 37.1093 83.2484 36.932C83.2344 36.7593 83.2274 36.5283 83.2274 36.239C83.2274 33.7703 83.316 31.1547 83.4934 28.392C83.5587 27.2953 83.6497 26.4787 83.7664 25.942C83.841 25.6247 83.9787 25.3447 84.1794 25.102C84.38 24.8593 84.6157 24.6727 84.8864 24.542C85.157 24.4067 85.4347 24.3063 85.7194 24.241C86.004 24.1757 86.2934 24.143 86.5874 24.143C87.3714 24.143 88.0107 24.346 88.5054 24.752L89.2194 25.249C89.3594 25.347 89.4877 25.4613 89.6044 25.592ZM106.207 24.822C104.7 24.822 103.755 25.186 103.372 25.914C103.088 26.46 102.528 28.294 101.692 31.416C100.857 34.538 100.439 36.379 100.439 36.939C100.439 37.1817 100.521 37.3917 100.684 37.569C100.852 37.7463 101.065 37.877 101.321 37.961C101.583 38.0497 101.835 38.1127 102.077 38.15C102.32 38.192 102.553 38.213 102.777 38.213C103.916 38.213 104.63 37.9097 104.919 37.303C105.05 37.0323 105.143 36.6567 105.199 36.176C105.26 35.7 105.309 35.245 105.346 34.811C105.388 34.377 105.449 34.0737 105.528 33.901C105.603 33.7377 105.699 33.6303 105.815 33.579C105.932 33.523 106.091 33.495 106.291 33.495C106.487 33.495 106.644 33.523 106.76 33.579C106.877 33.6303 106.975 33.7377 107.054 33.901C107.082 33.957 107.127 34.2183 107.187 34.685C107.192 34.7177 107.211 34.8693 107.243 35.14C107.281 35.4107 107.311 35.63 107.334 35.798C107.362 35.9707 107.395 36.1783 107.432 36.421C107.474 36.6683 107.516 36.8783 107.558 37.051C107.605 37.2237 107.649 37.3543 107.691 37.443C107.845 37.7603 108.086 37.9727 108.412 38.08C108.739 38.192 109.122 38.248 109.56 38.248C109.733 38.248 109.922 38.234 110.127 38.206C110.337 38.1827 110.561 38.136 110.799 38.066C111.042 38.0007 111.259 37.919 111.45 37.821C111.646 37.7277 111.81 37.5993 111.94 37.436C112.071 37.2727 112.136 37.093 112.136 36.897C112.136 36.4397 111.693 34.6103 110.806 31.409C109.924 28.203 109.362 26.3713 109.119 25.914C109.003 25.6947 108.83 25.508 108.601 25.354C108.373 25.2 108.114 25.088 107.824 25.018C107.535 24.9433 107.262 24.892 107.005 24.864C106.749 24.836 106.483 24.822 106.207 24.822ZM105.717 31.038C105.717 30.7533 105.734 30.4523 105.766 30.135C105.799 29.8177 105.843 29.463 105.899 29.071C105.96 28.6743 106.002 28.3733 106.025 28.168C106.067 28.1073 106.137 28.077 106.235 28.077C106.31 28.077 106.375 28.1073 106.431 28.168C106.441 28.182 106.492 28.6393 106.585 29.54C106.683 30.436 106.732 30.9447 106.732 31.066C106.732 31.136 106.669 31.1873 106.543 31.22C106.422 31.248 106.31 31.262 106.207 31.262C105.881 31.262 105.717 31.1873 105.717 31.038ZM106.207 24.115C107.542 24.115 108.538 24.3857 109.196 24.927L109.903 25.417C110.207 25.6317 110.438 25.8883 110.596 26.187C110.755 26.481 111.086 27.4937 111.59 29.225C112.099 30.9563 112.577 32.6923 113.025 34.433C113.473 36.1737 113.697 37.1957 113.697 37.499C113.697 37.849 113.583 38.1617 113.354 38.437C113.13 38.717 112.843 38.934 112.493 39.088C112.148 39.242 111.796 39.3563 111.436 39.431C111.082 39.5103 110.743 39.55 110.421 39.55C109.619 39.55 108.996 39.3937 108.552 39.081L107.831 38.577C107.491 38.381 107.253 38.143 107.117 37.863C106.982 37.5877 106.87 37.212 106.781 36.736C106.697 37.3753 106.574 37.8653 106.41 38.206C106.004 39.0787 105.08 39.515 103.638 39.515C103.26 39.515 102.859 39.466 102.434 39.368C102.01 39.27 101.643 39.1113 101.335 38.892L100.621 38.395C100.029 38.045 99.7322 37.5597 99.7322 36.939C99.7322 36.3603 100.162 34.4633 101.02 31.248C101.879 28.0327 102.455 26.145 102.749 25.585C103.263 24.605 104.415 24.115 106.207 24.115ZM113.062 36.078C113.062 36.5867 113.078 36.9273 113.111 37.1C113.26 37.8793 113.963 38.269 115.218 38.269C115.451 38.269 115.692 38.2503 115.939 38.213C116.186 38.1757 116.441 38.115 116.702 38.031C116.968 37.9517 117.197 37.828 117.388 37.66C117.579 37.4967 117.701 37.303 117.752 37.079C117.78 36.9577 117.799 36.8317 117.808 36.701C117.822 36.5703 117.829 36.4 117.829 36.19C117.834 35.98 117.836 35.8517 117.836 35.805C117.873 34.6617 117.892 33.593 117.892 32.599C118.415 32.5943 118.921 32.5477 119.411 32.459C119.906 32.3657 120.384 32.2163 120.846 32.011C121.308 31.801 121.709 31.5443 122.05 31.241C122.391 30.933 122.664 30.548 122.869 30.086C123.079 29.624 123.184 29.1107 123.184 28.546C123.184 28.1773 123.135 27.8367 123.037 27.524C122.944 27.2113 122.818 26.9407 122.659 26.712C122.5 26.4787 122.3 26.2687 122.057 26.082C121.819 25.8907 121.572 25.732 121.315 25.606C121.058 25.48 120.767 25.3703 120.44 25.277C120.118 25.179 119.808 25.1043 119.509 25.053C119.215 24.997 118.891 24.955 118.536 24.927C118.181 24.8943 117.866 24.8733 117.591 24.864C117.316 24.8547 117.017 24.85 116.695 24.85C115.043 24.85 114.068 25.0763 113.769 25.529C113.69 25.6503 113.631 25.8393 113.594 26.096C113.435 27.1273 113.314 28.2613 113.23 29.498C113.146 30.73 113.097 31.7847 113.083 32.662C113.069 33.5393 113.062 34.678 113.062 36.078ZM117.864 29.904C117.841 28.91 117.822 28.2683 117.808 27.979L117.941 27.972C118.254 27.972 118.548 28.0583 118.823 28.231C119.103 28.4037 119.243 28.637 119.243 28.931C119.243 29.2017 119.084 29.4303 118.767 29.617C118.454 29.8037 118.153 29.8993 117.864 29.904ZM112.355 36.393C112.355 34.9277 112.362 33.74 112.376 32.83C112.39 31.92 112.439 30.821 112.523 29.533C112.607 28.245 112.731 27.0643 112.894 25.991C112.95 25.6223 113.046 25.34 113.181 25.144C113.652 24.4767 114.824 24.143 116.695 24.143C117.236 24.143 117.733 24.1593 118.186 24.192C118.643 24.22 119.147 24.2783 119.698 24.367C120.249 24.451 120.767 24.5887 121.252 24.78C121.737 24.9713 122.16 25.2093 122.519 25.494L123.184 25.956C124.225 26.6933 124.745 27.7573 124.745 29.148C124.745 29.7453 124.652 30.2937 124.465 30.793C124.278 31.2923 124.022 31.7193 123.695 32.074C123.368 32.4287 122.979 32.7367 122.526 32.998C122.078 33.2547 121.597 33.453 121.084 33.593C120.571 33.733 120.025 33.8263 119.446 33.873C119.446 34.587 119.43 35.4387 119.397 36.428C119.392 36.498 119.39 36.5983 119.39 36.729C119.39 37.2003 119.357 37.5713 119.292 37.842C119.217 38.1453 119.061 38.4137 118.823 38.647C118.585 38.8803 118.305 39.06 117.983 39.186C117.666 39.3167 117.344 39.4123 117.017 39.473C116.695 39.5383 116.382 39.571 116.079 39.571C115.234 39.571 114.567 39.4007 114.077 39.06L113.356 38.556C112.959 38.3227 112.693 38.031 112.558 37.681C112.423 37.3357 112.355 36.9063 112.355 36.393Z" fill="white"/>
</g>
<defs>
<filter id="filter0_diiiii_30_50" x="0.5" y="-1" width="158" height="67.5" filterUnits="userSpaceOnUse" color-interpolation-filters="sRGB">
<feFlood flood-opacity="0" result="BackgroundImageFix"/>
<feColorMatrix in="SourceAlpha" type="matrix" values="0 0 0 0 0 0 0 0 0 0 0 0 0 0 0 0 0 0 127 0" result="hardAlpha"/>
<feOffset dy="2"/>
<feGaussianBlur stdDeviation="1.25"/>
<feComposite in2="hardAlpha" operator="out"/>
<feColorMatrix type="matrix" values="0 0 0 0 0.745833 0 0 0 0 0.0559375 0 0 0 0 0.538864 0 0 0 0.25 0"/>
<feBlend mode="normal" in2="BackgroundImageFix" result="effect1_dropShadow_30_50"/>
<feBlend mode="normal" in="SourceGraphic" in2="effect1_dropShadow_30_50" result="shape"/>
<feColorMatrix in="SourceAlpha" type="matrix" values="0 0 0 0 0 0 0 0 0 0 0 0 0 0 0 0 0 0 127 0" result="hardAlpha"/>
<feMorphology radius="1" operator="erode" in="SourceAlpha" result="effect2_innerShadow_30_50"/>
<feOffset dy="-2"/>
<feGaussianBlur stdDeviation="1"/>
<feComposite in2="hardAlpha" operator="arithmetic" k2="-1" k3="1"/>
<feColorMatrix type="matrix" values="0 0 0 0 0.262745 0 0 0 0 0.0666667 0 0 0 0 0.203922 0 0 0 1 0"/>
<feBlend mode="normal" in2="shape" result="effect2_innerShadow_30_50"/>
<feColorMatrix in="SourceAlpha" type="matrix" values="0 0 0 0 0 0 0 0 0 0 0 0 0 0 0 0 0 0 127 0" result="hardAlpha"/>
<feMorphology radius="1" operator="erode" in="SourceAlpha" result="effect3_innerShadow_30_50"/>
<feOffset dy="2"/>
<feGaussianBlur stdDeviation="1"/>
<feComposite in2="hardAlpha" operator="arithmetic" k2="-1" k3="1"/>
<feColorMatrix type="matrix" values="0 0 0 0 1 0 0 0 0 1 0 0 0 0 1 0 0 0 0.5 0"/>
<feBlend mode="normal" in2="effect2_innerShadow_30_50" result="effect3_innerShadow_30_50"/>
<feColorMatrix in="SourceAlpha" type="matrix" values="0 0 0 0 0 0 0 0 0 0 0 0 0 0 0 0 0 0 127 0" result="hardAlpha"/>
<feMorphology radius="1" operator="erode" in="SourceAlpha" result="effect4_innerShadow_30_50"/>
<feOffset dy="2"/>
<feComposite in2="hardAlpha" operator="arithmetic" k2="-1" k3="1"/>
<feColorMatrix type="matrix" values="0 0 0 0 0.262745 0 0 0 0 0.0666667 0 0 0 0 0.203922 0 0 0 1 0"/>
<feBlend mode="normal" in2="effect3_innerShadow_30_50" result="effect4_innerShadow_30_50"/>
<feColorMatrix in="SourceAlpha" type="matrix" values="0 0 0 0 0 0 0 0 0 0 0 0 0 0 0 0 0 0 127 0" result="hardAlpha"/>
<feOffset dx="2"/>
<feGaussianBlur stdDeviation="0.5"/>
<feComposite in2="hardAlpha" operator="arithmetic" k2="-1" k3="1"/>
<feColorMatrix type="matrix" values="0 0 0 0 0.262745 0 0 0 0 0.0666667 0 0 0 0 0.203922 0 0 0 1 0"/>
<feBlend mode="normal" in2="effect4_innerShadow_30_50" result="effect5_innerShadow_30_50"/>
<feColorMatrix in="SourceAlpha" type="matrix" values="0 0 0 0 0 0 0 0 0 0 0 0 0 0 0 0 0 0 127 0" result="hardAlpha"/>
<feOffset dx="-2"/>
<feGaussianBlur stdDeviation="0.5"/>
<feComposite in2="hardAlpha" operator="arithmetic" k2="-1" k3="1"/>
<feColorMatrix type="matrix" values="0 0 0 0 0.262745 0 0 0 0 0.0666667 0 0 0 0 0.203922 0 0 0 1 0"/>
<feBlend mode="normal" in2="effect5_innerShadow_30_50" result="effect6_innerShadow_30_50"/>
</filter>
<linearGradient id="paint0_linear_30_50" x1="21.7971" y1="49.6094" x2="197.245" y2="14.0783" gradientUnits="userSpaceOnUse">
<stop stop-color="#DA5476"/>
<stop offset="1" stop-color="#FBCAA2"/>
</linearGradient>
</defs>
</svg>
