<svg width="157" height="59" viewBox="0 0 157 59" fill="none" xmlns="http://www.w3.org/2000/svg">
<g filter="url(#filter0_diiiii_30_78)">
<rect x="3" y="1" width="151" height="53" rx="26.5" fill="url(#paint0_linear_30_78)" shape-rendering="crispEdges"/>
<rect x="3.5" y="1.5" width="150" height="52" rx="26" stroke="#431134" shape-rendering="crispEdges"/>
<path d="M42.06 24.833C42.242 24.833 42.396 24.812 42.522 24.77C42.704 24.7093 42.858 24.5437 42.984 24.273C43.11 23.9977 43.1917 23.7293 43.229 23.468C43.271 23.2067 43.292 22.964 43.292 22.74C43.292 21.83 43.026 21.2653 42.494 21.046C42.1253 20.8967 40.562 20.822 37.804 20.822H36.544C33.926 20.822 32.4303 20.8967 32.057 21.046C31.455 21.2933 31.154 21.928 31.154 22.95C31.154 23.1367 31.1703 23.328 31.203 23.524C31.2357 23.7153 31.2893 23.9137 31.364 24.119C31.4387 24.3197 31.5483 24.483 31.693 24.609C31.8423 24.735 32.0173 24.798 32.218 24.798C32.512 24.798 32.9507 24.7537 33.534 24.665C34.122 24.5717 34.563 24.525 34.857 24.525C34.9363 24.525 34.9993 24.5507 35.046 24.602C35.0927 24.6487 35.116 24.7093 35.116 24.784C35.116 25.0687 35.0927 25.4723 35.046 25.995C34.9993 26.5177 34.9713 26.849 34.962 26.989C34.8733 28.4497 34.829 30.1833 34.829 32.19C34.829 32.596 34.843 32.8993 34.871 33.1C34.9037 33.3333 34.9923 33.5317 35.137 33.695C35.2817 33.8583 35.4613 33.9773 35.676 34.052C35.8953 34.1313 36.1077 34.1873 36.313 34.22C36.523 34.2527 36.7447 34.269 36.978 34.269C37.2113 34.269 37.4493 34.2503 37.692 34.213C37.9393 34.1757 38.196 34.115 38.462 34.031C38.7327 33.9517 38.9637 33.828 39.155 33.66C39.3463 33.4967 39.4653 33.303 39.512 33.079C39.61 32.631 39.659 31.9357 39.659 30.993C39.659 30.3023 39.645 29.2663 39.617 27.885C39.589 26.499 39.575 25.4607 39.575 24.77C39.575 24.6067 39.666 24.525 39.848 24.525C40.1 24.525 40.4687 24.5763 40.954 24.679C41.4393 24.7817 41.808 24.833 42.06 24.833ZM31.476 25.323C31.2287 25.183 31.0233 24.9637 30.86 24.665C30.6967 24.3663 30.587 24.077 30.531 23.797C30.475 23.5123 30.447 23.23 30.447 22.95C30.447 22.6933 30.468 22.4483 30.51 22.215C30.5473 21.9817 30.6127 21.7437 30.706 21.501C30.7993 21.2537 30.937 21.0343 31.119 20.843C31.3057 20.647 31.5297 20.4953 31.791 20.388C32.2483 20.206 33.7813 20.115 36.39 20.115H37.804C40.6553 20.115 42.3073 20.206 42.76 20.388C42.9467 20.4673 43.1193 20.57 43.278 20.696L44.006 21.207C44.5707 21.6037 44.853 22.3153 44.853 23.342C44.853 23.6593 44.804 24.028 44.706 24.448C44.608 24.868 44.4587 25.2227 44.258 25.512C44.0993 25.7453 43.9127 25.9087 43.698 26.002C43.488 26.0907 43.229 26.135 42.921 26.135C42.627 26.135 42.2093 26.079 41.668 25.967C41.3367 25.9017 41.1593 25.8667 41.136 25.862C41.1407 26.7253 41.1547 27.5957 41.178 28.473C41.206 29.8543 41.22 30.895 41.22 31.595C41.22 32.5657 41.1663 33.31 41.059 33.828C40.9797 34.136 40.821 34.4067 40.583 34.64C40.345 34.878 40.0673 35.06 39.75 35.186C39.4373 35.3167 39.1177 35.4123 38.791 35.473C38.469 35.5383 38.1517 35.571 37.839 35.571C36.9663 35.571 36.285 35.3983 35.795 35.053L35.074 34.549C34.892 34.4417 34.738 34.3157 34.612 34.171C34.4907 34.031 34.3973 33.8957 34.332 33.765C34.2667 33.6343 34.2177 33.4663 34.185 33.261C34.1523 33.0603 34.1337 32.8923 34.129 32.757C34.1243 32.6217 34.122 32.4327 34.122 32.19C34.122 30.1553 34.1663 28.4077 34.255 26.947C34.2597 26.8397 34.2713 26.681 34.29 26.471C34.3087 26.2563 34.3203 26.1233 34.325 26.072C34.3297 26.0627 34.332 26.0487 34.332 26.03C34.3367 26.0067 34.339 25.9903 34.339 25.981C33.821 26.0603 33.401 26.1 33.079 26.1C32.757 26.1 32.4723 26.0137 32.225 25.841L31.476 25.323ZM53.105 32.246C53.105 31.9613 53.0583 31.6393 52.965 31.28C52.8717 30.9207 52.748 30.6547 52.594 30.482C52.482 30.356 52.3257 30.2603 52.125 30.195C51.929 30.125 51.7563 30.0853 51.607 30.076C51.4577 30.062 51.2687 30.055 51.04 30.055C50.816 30.055 50.48 30.076 50.032 30.118C49.5887 30.1553 49.255 30.174 49.031 30.174C48.891 30.174 48.8047 30.1553 48.772 30.118C48.7253 30.0713 48.702 29.6817 48.702 28.949C48.702 28.8323 48.7277 28.7553 48.779 28.718C48.835 28.676 48.9237 28.655 49.045 28.655C49.269 28.655 49.605 28.6783 50.053 28.725C50.501 28.767 50.8393 28.788 51.068 28.788C51.502 28.788 51.796 28.6947 51.95 28.508C52.104 28.3167 52.181 27.9993 52.181 27.556C52.181 27.094 52.1063 26.765 51.957 26.569C51.8123 26.373 51.516 26.275 51.068 26.275C50.8393 26.275 50.501 26.2983 50.053 26.345C49.605 26.387 49.269 26.408 49.045 26.408C48.919 26.408 48.8303 26.3893 48.779 26.352C48.7277 26.3147 48.702 26.2353 48.702 26.114C48.702 26.0813 48.6973 26.009 48.688 25.897C48.6833 25.785 48.681 25.694 48.681 25.624C48.6857 25.554 48.695 25.4747 48.709 25.386C48.7277 25.2973 48.765 25.232 48.821 25.19C48.877 25.1433 48.9493 25.12 49.038 25.12C49.262 25.12 49.5957 25.141 50.039 25.183C50.4823 25.2203 50.816 25.239 51.04 25.239C51.264 25.239 51.4507 25.2343 51.6 25.225C51.754 25.211 51.929 25.169 52.125 25.099C52.3257 25.029 52.482 24.931 52.594 24.805C52.7433 24.6323 52.8577 24.3687 52.937 24.014C53.0163 23.6593 53.056 23.3327 53.056 23.034C53.056 22.334 52.8833 21.8183 52.538 21.487C52.3653 21.319 52.0037 21.179 51.453 21.067C50.9023 20.955 50.3843 20.8803 49.899 20.843C49.4137 20.8057 48.9937 20.787 48.639 20.787C46.035 20.787 44.6187 21.452 44.39 22.782C44.3293 23.146 44.278 23.5543 44.236 24.007C44.1987 24.4597 44.173 24.826 44.159 25.106C44.145 25.386 44.1287 25.8153 44.11 26.394C44.096 26.9727 44.0867 27.353 44.082 27.535C44.0167 29.4857 43.984 30.9487 43.984 31.924C43.984 32.3767 44.0027 32.7103 44.04 32.925C44.082 33.1677 44.236 33.38 44.502 33.562C44.7727 33.7487 45.0783 33.891 45.419 33.989C45.7643 34.087 46.154 34.1663 46.588 34.227C47.0267 34.2877 47.3977 34.325 47.701 34.339C48.0043 34.3577 48.2867 34.367 48.548 34.367C49.2527 34.367 49.997 34.304 50.781 34.178C51.5697 34.0567 52.1553 33.856 52.538 33.576C52.916 33.3007 53.105 32.8573 53.105 32.246ZM44.236 34.192C43.7227 33.8747 43.4263 33.4943 43.347 33.051C43.3003 32.7943 43.277 32.4187 43.277 31.924C43.277 30.9347 43.3097 29.4647 43.375 27.514C43.3843 27.2947 43.3937 26.975 43.403 26.555C43.4497 24.8143 43.5453 23.517 43.69 22.663C43.746 22.341 43.851 22.0517 44.005 21.795C44.159 21.5337 44.3387 21.3143 44.544 21.137C44.754 20.9597 44.999 20.8057 45.279 20.675C45.5637 20.5443 45.8413 20.4417 46.112 20.367C46.3827 20.2923 46.679 20.234 47.001 20.192C47.323 20.1453 47.6077 20.115 47.855 20.101C48.107 20.087 48.3683 20.08 48.639 20.08C49.0637 20.08 49.5467 20.1057 50.088 20.157C50.6293 20.2037 51.2033 20.3017 51.81 20.451C52.4213 20.6003 52.8367 20.7847 53.056 21.004L53.882 21.585C54.372 22.0563 54.617 22.74 54.617 23.636C54.617 24 54.561 24.406 54.449 24.854C54.3417 25.2973 54.1853 25.6357 53.98 25.869C53.7607 26.121 53.4713 26.3007 53.112 26.408L53.196 26.464C53.406 26.6087 53.5483 26.8163 53.623 27.087C53.7023 27.3577 53.742 27.7147 53.742 28.158C53.742 28.3633 53.735 28.536 53.721 28.676C53.707 28.816 53.6767 28.9723 53.63 29.145C53.588 29.3177 53.5157 29.467 53.413 29.593C53.3103 29.719 53.1797 29.8217 53.021 29.901L53.693 30.37C54.001 30.5753 54.239 30.93 54.407 31.434C54.5797 31.938 54.666 32.4093 54.666 32.848C54.666 33.674 54.3813 34.3063 53.812 34.745C53.3547 35.0623 52.6897 35.2957 51.817 35.445C50.949 35.5943 50.1463 35.669 49.409 35.669C49.0077 35.669 48.576 35.648 48.114 35.606C47.652 35.5687 47.099 35.4707 46.455 35.312C45.8157 35.1533 45.3117 34.9433 44.943 34.682L44.236 34.192ZM53.882 21.585C53.8027 21.5103 53.707 21.4427 53.595 21.382L53.882 21.585ZM58.7962 34.297C59.1789 34.297 59.5686 34.283 59.9652 34.255C60.3619 34.227 60.8029 34.1547 61.2882 34.038C61.7736 33.9213 62.1049 33.7673 62.2822 33.576C62.6136 33.2213 62.7792 32.7243 62.7792 32.085C62.7792 31.3897 62.6416 30.8787 62.3662 30.552C62.0956 30.2207 61.6196 30.055 60.9382 30.055C60.7889 30.055 60.5696 30.0713 60.2802 30.104C59.9909 30.1367 59.7716 30.153 59.6222 30.153C59.4776 30.153 59.3562 30.1157 59.2582 30.041C59.1649 29.9617 59.0949 29.8707 59.0482 29.768C59.0016 29.6607 58.9666 29.523 58.9432 29.355C58.9246 29.1823 58.9152 29.0377 58.9152 28.921C58.9199 28.7997 58.9246 28.6503 58.9292 28.473C58.9386 28.291 58.9432 28.172 58.9432 28.116C58.9432 27.794 58.9339 27.4347 58.9152 27.038C58.8966 26.6367 58.8779 26.3193 58.8592 26.086C58.8452 25.8527 58.8172 25.4747 58.7752 24.952C58.7332 24.4247 58.7076 24.0933 58.6982 23.958C58.6889 23.86 58.6772 23.7083 58.6632 23.503C58.6539 23.2977 58.6446 23.1343 58.6352 23.013C58.6259 22.887 58.6096 22.7377 58.5862 22.565C58.5629 22.3923 58.5349 22.236 58.5022 22.096C58.4322 21.802 58.2759 21.5593 58.0332 21.368C57.7952 21.172 57.5362 21.039 57.2562 20.969C56.9762 20.8943 56.6822 20.857 56.3742 20.857C55.8796 20.857 55.4572 20.955 55.1072 21.151C54.7619 21.347 54.5402 21.6667 54.4422 22.11C54.3769 22.3993 54.3279 22.7237 54.2952 23.083C54.2626 23.4423 54.2439 23.7433 54.2392 23.986C54.2346 24.2287 54.2322 24.5717 54.2322 25.015C54.2322 25.4583 54.2299 25.7663 54.2252 25.939C54.1972 27.577 54.1832 29.215 54.1832 30.853C54.1832 31.819 54.2322 32.5143 54.3302 32.939C54.3769 33.1303 54.4936 33.303 54.6802 33.457C54.8716 33.611 55.1096 33.7347 55.3942 33.828C55.6789 33.9213 55.9752 34.0007 56.2832 34.066C56.5912 34.136 56.9156 34.185 57.2562 34.213C57.5969 34.2457 57.8862 34.2667 58.1242 34.276C58.3669 34.29 58.5909 34.297 58.7962 34.297ZM60.4902 29.061C60.4902 29.0937 60.4879 29.145 60.4832 29.215C60.4832 29.285 60.4832 29.3363 60.4832 29.369C60.6279 29.355 60.7796 29.348 60.9382 29.348C61.7549 29.348 62.3616 29.5183 62.7582 29.859L63.4932 30.37C63.7966 30.5847 64.0136 30.881 64.1442 31.259C64.2749 31.6417 64.3402 32.1177 64.3402 32.687C64.3402 33.051 64.2819 33.4127 64.1652 33.772C64.0532 34.1313 63.8829 34.4253 63.6542 34.654C63.4676 34.8407 63.1946 34.9993 62.8352 35.13C62.4806 35.2653 62.0979 35.3633 61.6872 35.424C61.2766 35.4893 60.9056 35.5337 60.5742 35.557C60.2429 35.585 59.9372 35.599 59.6572 35.599C59.3726 35.599 59.0622 35.5873 58.7262 35.564C58.3949 35.5407 58.0052 35.4963 57.5572 35.431C57.1139 35.3703 56.6799 35.27 56.2552 35.13C55.8306 34.99 55.4782 34.822 55.1982 34.626L54.4912 34.129C54.0199 33.8443 53.7376 33.5013 53.6442 33.1C53.5322 32.624 53.4762 31.9333 53.4762 31.028V30.853C53.4762 29.2057 53.4902 27.563 53.5182 25.925C53.5229 25.771 53.5252 25.5377 53.5252 25.225V24.98C53.5252 23.6547 53.5999 22.6467 53.7492 21.956C53.8939 21.3167 54.2019 20.857 54.6732 20.577C55.1446 20.2923 55.7116 20.15 56.3742 20.15C57.2469 20.15 57.9539 20.3717 58.4952 20.815L59.2092 21.312C59.6479 21.62 59.9256 22.0283 60.0422 22.537C60.1262 22.9103 60.1869 23.419 60.2242 24.063C60.2289 24.1143 60.2336 24.189 60.2382 24.287C60.2476 24.3803 60.2546 24.4527 60.2592 24.504C60.2592 24.518 60.2802 24.7863 60.3222 25.309C60.4436 26.8117 60.5042 27.948 60.5042 28.718C60.5042 28.788 60.4996 28.9023 60.4902 29.061ZM72.7515 32.246C72.7515 31.9613 72.7048 31.6393 72.6115 31.28C72.5182 30.9207 72.3945 30.6547 72.2405 30.482C72.1285 30.356 71.9722 30.2603 71.7715 30.195C71.5755 30.125 71.4028 30.0853 71.2535 30.076C71.1042 30.062 70.9152 30.055 70.6865 30.055C70.4625 30.055 70.1265 30.076 69.6785 30.118C69.2352 30.1553 68.9015 30.174 68.6775 30.174C68.5375 30.174 68.4512 30.1553 68.4185 30.118C68.3718 30.0713 68.3485 29.6817 68.3485 28.949C68.3485 28.8323 68.3742 28.7553 68.4255 28.718C68.4815 28.676 68.5702 28.655 68.6915 28.655C68.9155 28.655 69.2515 28.6783 69.6995 28.725C70.1475 28.767 70.4858 28.788 70.7145 28.788C71.1485 28.788 71.4425 28.6947 71.5965 28.508C71.7505 28.3167 71.8275 27.9993 71.8275 27.556C71.8275 27.094 71.7528 26.765 71.6035 26.569C71.4588 26.373 71.1625 26.275 70.7145 26.275C70.4858 26.275 70.1475 26.2983 69.6995 26.345C69.2515 26.387 68.9155 26.408 68.6915 26.408C68.5655 26.408 68.4768 26.3893 68.4255 26.352C68.3742 26.3147 68.3485 26.2353 68.3485 26.114C68.3485 26.0813 68.3438 26.009 68.3345 25.897C68.3298 25.785 68.3275 25.694 68.3275 25.624C68.3322 25.554 68.3415 25.4747 68.3555 25.386C68.3742 25.2973 68.4115 25.232 68.4675 25.19C68.5235 25.1433 68.5958 25.12 68.6845 25.12C68.9085 25.12 69.2422 25.141 69.6855 25.183C70.1288 25.2203 70.4625 25.239 70.6865 25.239C70.9105 25.239 71.0972 25.2343 71.2465 25.225C71.4005 25.211 71.5755 25.169 71.7715 25.099C71.9722 25.029 72.1285 24.931 72.2405 24.805C72.3898 24.6323 72.5042 24.3687 72.5835 24.014C72.6628 23.6593 72.7025 23.3327 72.7025 23.034C72.7025 22.334 72.5298 21.8183 72.1845 21.487C72.0118 21.319 71.6502 21.179 71.0995 21.067C70.5488 20.955 70.0308 20.8803 69.5455 20.843C69.0602 20.8057 68.6402 20.787 68.2855 20.787C65.6815 20.787 64.2652 21.452 64.0365 22.782C63.9758 23.146 63.9245 23.5543 63.8825 24.007C63.8452 24.4597 63.8195 24.826 63.8055 25.106C63.7915 25.386 63.7752 25.8153 63.7565 26.394C63.7425 26.9727 63.7332 27.353 63.7285 27.535C63.6632 29.4857 63.6305 30.9487 63.6305 31.924C63.6305 32.3767 63.6492 32.7103 63.6865 32.925C63.7285 33.1677 63.8825 33.38 64.1485 33.562C64.4192 33.7487 64.7248 33.891 65.0655 33.989C65.4108 34.087 65.8005 34.1663 66.2345 34.227C66.6732 34.2877 67.0442 34.325 67.3475 34.339C67.6508 34.3577 67.9332 34.367 68.1945 34.367C68.8992 34.367 69.6435 34.304 70.4275 34.178C71.2162 34.0567 71.8018 33.856 72.1845 33.576C72.5625 33.3007 72.7515 32.8573 72.7515 32.246ZM63.8825 34.192C63.3692 33.8747 63.0728 33.4943 62.9935 33.051C62.9468 32.7943 62.9235 32.4187 62.9235 31.924C62.9235 30.9347 62.9562 29.4647 63.0215 27.514C63.0308 27.2947 63.0402 26.975 63.0495 26.555C63.0962 24.8143 63.1918 23.517 63.3365 22.663C63.3925 22.341 63.4975 22.0517 63.6515 21.795C63.8055 21.5337 63.9852 21.3143 64.1905 21.137C64.4005 20.9597 64.6455 20.8057 64.9255 20.675C65.2102 20.5443 65.4878 20.4417 65.7585 20.367C66.0292 20.2923 66.3255 20.234 66.6475 20.192C66.9695 20.1453 67.2542 20.115 67.5015 20.101C67.7535 20.087 68.0148 20.08 68.2855 20.08C68.7102 20.08 69.1932 20.1057 69.7345 20.157C70.2758 20.2037 70.8498 20.3017 71.4565 20.451C72.0678 20.6003 72.4832 20.7847 72.7025 21.004L73.5285 21.585C74.0185 22.0563 74.2635 22.74 74.2635 23.636C74.2635 24 74.2075 24.406 74.0955 24.854C73.9882 25.2973 73.8318 25.6357 73.6265 25.869C73.4072 26.121 73.1178 26.3007 72.7585 26.408L72.8425 26.464C73.0525 26.6087 73.1948 26.8163 73.2695 27.087C73.3488 27.3577 73.3885 27.7147 73.3885 28.158C73.3885 28.3633 73.3815 28.536 73.3675 28.676C73.3535 28.816 73.3232 28.9723 73.2765 29.145C73.2345 29.3177 73.1622 29.467 73.0595 29.593C72.9568 29.719 72.8262 29.8217 72.6675 29.901L73.3395 30.37C73.6475 30.5753 73.8855 30.93 74.0535 31.434C74.2262 31.938 74.3125 32.4093 74.3125 32.848C74.3125 33.674 74.0278 34.3063 73.4585 34.745C73.0012 35.0623 72.3362 35.2957 71.4635 35.445C70.5955 35.5943 69.7928 35.669 69.0555 35.669C68.6542 35.669 68.2225 35.648 67.7605 35.606C67.2985 35.5687 66.7455 35.4707 66.1015 35.312C65.4622 35.1533 64.9582 34.9433 64.5895 34.682L63.8825 34.192ZM73.5285 21.585C73.4492 21.5103 73.3535 21.4427 73.2415 21.382L73.5285 21.585ZM69.0555 26.107V26.051V26.107ZM79.3387 34.276C80.4121 34.276 81.3174 34.0777 82.0547 33.681C82.7967 33.289 83.4407 32.6427 83.9867 31.742C84.4721 30.9393 84.7147 30.195 84.7147 29.509C84.7147 29.173 84.6634 28.8813 84.5607 28.634C84.4627 28.382 84.3321 28.1813 84.1687 28.032C84.0054 27.8827 83.8001 27.7637 83.5527 27.675C83.3054 27.5817 83.0557 27.5187 82.8037 27.486C82.5517 27.4533 82.2694 27.437 81.9567 27.437C81.6067 27.437 81.1424 27.472 80.5637 27.542C79.9897 27.612 79.6351 27.7053 79.4997 27.822C79.3737 27.934 79.2897 28.0553 79.2477 28.186C79.2057 28.3167 79.1847 28.48 79.1847 28.676C79.1847 28.774 79.1871 28.8557 79.1917 28.921C79.1964 28.9863 79.2104 29.0587 79.2337 29.138C79.2571 29.2127 79.2874 29.2733 79.3247 29.32C79.3621 29.3667 79.4157 29.4063 79.4857 29.439C79.5604 29.467 79.6467 29.481 79.7447 29.481C79.7774 29.481 79.8474 29.4787 79.9547 29.474C80.0667 29.4647 80.1554 29.46 80.2207 29.46C80.6034 29.46 80.7947 29.5673 80.7947 29.782C80.7947 29.922 80.7014 30.195 80.5147 30.601C80.3327 31.0023 80.1857 31.28 80.0737 31.434C79.9477 31.602 79.8334 31.7187 79.7307 31.784C79.6327 31.8493 79.4904 31.882 79.3037 31.882C79.1637 31.882 79.0377 31.8283 78.9257 31.721C78.8137 31.6137 78.7204 31.4783 78.6457 31.315C78.5757 31.1563 78.5127 30.9603 78.4567 30.727C78.4054 30.489 78.3657 30.2673 78.3377 30.062C78.3144 29.8567 78.2957 29.6303 78.2817 29.383C78.2677 29.131 78.2584 28.9373 78.2537 28.802C78.2537 28.6667 78.2537 28.5267 78.2537 28.382C78.2537 28.1253 78.2724 27.731 78.3097 27.199C78.3471 26.667 78.4031 26.0743 78.4777 25.421C78.5524 24.763 78.6621 24.196 78.8067 23.72C78.9514 23.2393 79.1147 22.999 79.2967 22.999C79.3807 22.999 79.4601 23.055 79.5347 23.167C79.6094 23.279 79.6654 23.3957 79.7027 23.517C79.7447 23.6383 79.7867 23.783 79.8287 23.951C79.8754 24.1143 79.9034 24.2123 79.9127 24.245C79.9781 24.4317 80.0621 24.5927 80.1647 24.728C80.2721 24.8587 80.3817 24.9613 80.4937 25.036C80.6057 25.106 80.7457 25.1597 80.9137 25.197C81.0864 25.2343 81.2404 25.2577 81.3757 25.267C81.5157 25.2763 81.6931 25.281 81.9077 25.281C83.1864 25.281 83.8257 24.9683 83.8257 24.343L83.8187 24.245C83.7021 23.6757 83.4874 23.1693 83.1747 22.726C82.8667 22.278 82.4911 21.9163 82.0477 21.641C81.6091 21.361 81.1284 21.1487 80.6057 21.004C80.0831 20.8593 79.5371 20.787 78.9677 20.787C78.1977 20.787 77.5024 20.9177 76.8817 21.179C76.2611 21.4357 75.7454 21.781 75.3347 22.215C74.9241 22.649 74.5811 23.1647 74.3057 23.762C74.0304 24.3593 73.8321 24.9847 73.7107 25.638C73.5894 26.2867 73.5287 26.9703 73.5287 27.689C73.5287 28.431 73.6034 29.1287 73.7527 29.782C73.9021 30.4353 74.1307 31.0373 74.4387 31.588C74.7514 32.1387 75.1341 32.6123 75.5867 33.009C76.0394 33.4103 76.5854 33.7207 77.2247 33.94C77.8641 34.164 78.5687 34.276 79.3387 34.276ZM79.9407 25.512C79.9174 25.792 79.8917 26.2797 79.8637 26.975C80.1997 26.9003 80.5777 26.842 80.9977 26.8C81.4177 26.7533 81.7374 26.73 81.9567 26.73C83.1701 26.73 84.0521 26.9587 84.6027 27.416L85.3167 27.92C85.9561 28.3633 86.2757 29.0937 86.2757 30.111C86.2757 30.9183 85.9981 31.784 85.4427 32.708C84.8267 33.7253 84.1034 34.458 83.2727 34.906C82.4421 35.354 81.4177 35.578 80.1997 35.578C78.7017 35.578 77.4347 35.214 76.3987 34.486L75.7617 34.038C74.7957 33.4313 74.0631 32.5727 73.5637 31.462C73.0691 30.3513 72.8217 29.0937 72.8217 27.689C72.8217 26.8957 72.8894 26.142 73.0247 25.428C73.1601 24.7093 73.3841 24.021 73.6967 23.363C74.0094 22.7003 74.3967 22.131 74.8587 21.655C75.3254 21.1743 75.9087 20.7917 76.6087 20.507C77.3134 20.2223 78.0997 20.08 78.9677 20.08C80.4704 20.08 81.7397 20.4837 82.7757 21.291L83.4197 21.739C84.4604 22.467 85.1114 23.4703 85.3727 24.749L85.3867 24.917C85.3867 26.0277 84.5141 26.583 82.7687 26.583C81.9054 26.583 81.2777 26.4453 80.8857 26.17L80.1577 25.659C80.0877 25.6217 80.0154 25.5727 79.9407 25.512ZM91.6272 28.333C91.6272 28.221 91.7206 28.1277 91.9072 28.053C92.0986 27.9737 92.3436 27.906 92.6422 27.85C92.9456 27.7893 93.1042 27.7567 93.1182 27.752C94.8822 27.2247 95.7642 26.1537 95.7642 24.539C95.7642 24.0723 95.6872 23.6523 95.5332 23.279C95.3792 22.901 95.1786 22.586 94.9312 22.334C94.6886 22.082 94.3829 21.8627 94.0142 21.676C93.6456 21.4893 93.2792 21.3447 92.9152 21.242C92.5559 21.1393 92.1476 21.0577 91.6902 20.997C91.2329 20.9317 90.8246 20.892 90.4652 20.878C90.1106 20.8593 89.7256 20.85 89.3102 20.85C87.6396 20.85 86.6596 21.067 86.3702 21.501C86.2816 21.641 86.2162 21.8393 86.1742 22.096C85.9502 23.5987 85.8056 25.1293 85.7402 26.688C85.6796 28.242 85.6492 30.0923 85.6492 32.239C85.6492 32.6217 85.6632 32.9087 85.6912 33.1C85.7192 33.2867 85.7846 33.4523 85.8872 33.597C85.9946 33.7417 86.1182 33.8537 86.2582 33.933C86.3982 34.017 86.5616 34.0847 86.7482 34.136C86.9349 34.1873 87.1099 34.2223 87.2732 34.241C87.4412 34.2597 87.6162 34.269 87.7982 34.269C88.0222 34.269 88.2579 34.2503 88.5052 34.213C88.7572 34.1757 89.0186 34.115 89.2892 34.031C89.5599 33.947 89.7909 33.8233 89.9822 33.66C90.1782 33.4967 90.2949 33.303 90.3322 33.079C90.3649 32.9017 90.3812 32.7127 90.3812 32.512C90.3859 32.316 90.3812 32.0897 90.3672 31.833C90.3579 31.5763 90.3532 31.3873 90.3532 31.266C90.3532 30.972 90.4022 30.811 90.5002 30.783L90.5562 30.825C90.8036 31.049 91.0602 31.3523 91.3262 31.735C91.5969 32.1177 91.8652 32.5003 92.1312 32.883C92.3972 33.2657 92.6492 33.5667 92.8872 33.786C93.1719 34.038 93.4566 34.164 93.7412 34.164C94.1052 34.164 94.4739 34.0217 94.8472 33.737C95.2206 33.457 95.5216 33.114 95.7502 32.708C95.9789 32.302 96.0932 31.9193 96.0932 31.56C96.0932 31.2567 95.9859 30.9813 95.7712 30.734C95.5332 30.4587 95.0666 30.118 94.3712 29.712C93.6759 29.306 93.0972 29.012 92.6352 28.83C92.5606 28.802 92.4182 28.753 92.2082 28.683C92.0029 28.613 91.8489 28.5523 91.7462 28.501C91.6669 28.459 91.6272 28.403 91.6272 28.333ZM90.4442 25.904C90.4442 25.1947 90.4256 24.553 90.3882 23.979C90.4349 23.9743 90.5026 23.972 90.5912 23.972C90.8852 23.972 91.1629 24.063 91.4242 24.245C91.6902 24.4223 91.8232 24.651 91.8232 24.931C91.8232 25.197 91.6622 25.428 91.3402 25.624C91.0229 25.8153 90.7242 25.9087 90.4442 25.904ZM85.8942 34.549C85.7169 34.4463 85.5652 34.325 85.4392 34.185C85.3179 34.045 85.2246 33.9097 85.1592 33.779C85.0939 33.6483 85.0449 33.485 85.0122 33.289C84.9796 33.0977 84.9586 32.932 84.9492 32.792C84.9446 32.6567 84.9422 32.4723 84.9422 32.239C84.9422 30.825 84.9492 29.6607 84.9632 28.746C84.9819 27.8267 85.0309 26.737 85.1102 25.477C85.1942 24.2123 85.3156 23.0503 85.4742 21.991C85.5302 21.6317 85.6306 21.34 85.7752 21.116C86.2046 20.4673 87.3829 20.143 89.3102 20.143C92.0262 20.143 93.9559 20.5957 95.0992 21.501L95.7642 21.963C96.8049 22.7003 97.3252 23.7597 97.3252 25.141C97.3252 26.9937 96.3592 28.2607 94.4272 28.942C95.0106 29.2733 95.4749 29.5743 95.8202 29.845L96.4082 30.251C96.6136 30.3957 96.7792 30.524 96.9052 30.636C97.0312 30.7433 97.1572 30.874 97.2832 31.028C97.4139 31.1867 97.5072 31.357 97.5632 31.539C97.6239 31.7257 97.6542 31.9333 97.6542 32.162C97.6542 32.512 97.5609 32.883 97.3742 33.275C97.1922 33.6717 96.9589 34.0287 96.6742 34.346C96.3896 34.668 96.0606 34.934 95.6872 35.144C95.3139 35.3587 94.9522 35.466 94.6022 35.466C94.2336 35.466 93.8836 35.354 93.5522 35.13L92.8382 34.626C92.5629 34.472 92.2479 34.1803 91.8932 33.751C91.8886 33.7557 91.8839 33.765 91.8792 33.779C91.8792 33.793 91.8792 33.8023 91.8792 33.807C91.8186 34.1103 91.6692 34.381 91.4312 34.619C91.1932 34.857 90.9109 35.0413 90.5842 35.172C90.2576 35.3027 89.9286 35.4007 89.5972 35.466C89.2706 35.536 88.9579 35.571 88.6592 35.571C87.7912 35.571 87.1099 35.4007 86.6152 35.06L85.8942 34.549ZM102.344 20.822C100.837 20.822 99.8916 21.186 99.5089 21.914C99.2242 22.46 98.6642 24.294 97.8289 27.416C96.9936 30.538 96.5759 32.379 96.5759 32.939C96.5759 33.1817 96.6576 33.3917 96.8209 33.569C96.9889 33.7463 97.2012 33.877 97.4579 33.961C97.7192 34.0497 97.9712 34.1127 98.2139 34.15C98.4566 34.192 98.6899 34.213 98.9139 34.213C100.053 34.213 100.767 33.9097 101.056 33.303C101.187 33.0323 101.28 32.6567 101.336 32.176C101.397 31.7 101.446 31.245 101.483 30.811C101.525 30.377 101.586 30.0737 101.665 29.901C101.74 29.7377 101.835 29.6303 101.952 29.579C102.069 29.523 102.227 29.495 102.428 29.495C102.624 29.495 102.78 29.523 102.897 29.579C103.014 29.6303 103.112 29.7377 103.191 29.901C103.219 29.957 103.263 30.2183 103.324 30.685C103.329 30.7177 103.347 30.8693 103.38 31.14C103.417 31.4107 103.448 31.63 103.471 31.798C103.499 31.9707 103.532 32.1783 103.569 32.421C103.611 32.6683 103.653 32.8783 103.695 33.051C103.742 33.2237 103.786 33.3543 103.828 33.443C103.982 33.7603 104.222 33.9727 104.549 34.08C104.876 34.192 105.258 34.248 105.697 34.248C105.87 34.248 106.059 34.234 106.264 34.206C106.474 34.1827 106.698 34.136 106.936 34.066C107.179 34.0007 107.396 33.919 107.587 33.821C107.783 33.7277 107.946 33.5993 108.077 33.436C108.208 33.2727 108.273 33.093 108.273 32.897C108.273 32.4397 107.83 30.6103 106.943 27.409C106.061 24.203 105.499 22.3713 105.256 21.914C105.139 21.6947 104.967 21.508 104.738 21.354C104.509 21.2 104.25 21.088 103.961 21.018C103.672 20.9433 103.399 20.892 103.142 20.864C102.885 20.836 102.619 20.822 102.344 20.822ZM101.854 27.038C101.854 26.7533 101.87 26.4523 101.903 26.135C101.936 25.8177 101.98 25.463 102.036 25.071C102.097 24.6743 102.139 24.3733 102.162 24.168C102.204 24.1073 102.274 24.077 102.372 24.077C102.447 24.077 102.512 24.1073 102.568 24.168C102.577 24.182 102.629 24.6393 102.722 25.54C102.82 26.436 102.869 26.9447 102.869 27.066C102.869 27.136 102.806 27.1873 102.68 27.22C102.559 27.248 102.447 27.262 102.344 27.262C102.017 27.262 101.854 27.1873 101.854 27.038ZM102.344 20.115C103.679 20.115 104.675 20.3857 105.333 20.927L106.04 21.417C106.343 21.6317 106.574 21.8883 106.733 22.187C106.892 22.481 107.223 23.4937 107.727 25.225C108.236 26.9563 108.714 28.6923 109.162 30.433C109.61 32.1737 109.834 33.1957 109.834 33.499C109.834 33.849 109.72 34.1617 109.491 34.437C109.267 34.717 108.98 34.934 108.63 35.088C108.285 35.242 107.932 35.3563 107.573 35.431C107.218 35.5103 106.88 35.55 106.558 35.55C105.755 35.55 105.132 35.3937 104.689 35.081L103.968 34.577C103.627 34.381 103.389 34.143 103.254 33.863C103.119 33.5877 103.007 33.212 102.918 32.736C102.834 33.3753 102.71 33.8653 102.547 34.206C102.141 35.0787 101.217 35.515 99.7749 35.515C99.3969 35.515 98.9956 35.466 98.5709 35.368C98.1462 35.27 97.7799 35.1113 97.4719 34.892L96.7579 34.395C96.1652 34.045 95.8689 33.5597 95.8689 32.939C95.8689 32.3603 96.2982 30.4633 97.1569 27.248C98.0156 24.0327 98.5919 22.145 98.8859 21.585C99.3992 20.605 100.552 20.115 102.344 20.115ZM122.625 34.269C122.858 34.269 123.078 34.2527 123.283 34.22C123.493 34.1873 123.705 34.1313 123.92 34.052C124.135 33.9773 124.314 33.8583 124.459 33.695C124.604 33.5317 124.695 33.3333 124.732 33.1C124.76 32.9133 124.774 32.6263 124.774 32.239C124.774 29.6817 124.699 27.2993 124.55 25.092C124.541 24.952 124.524 24.7117 124.501 24.371C124.482 24.0257 124.466 23.7573 124.452 23.566C124.438 23.3747 124.412 23.139 124.375 22.859C124.342 22.579 124.3 22.3247 124.249 22.096C124.198 21.8767 124.097 21.683 123.948 21.515C123.799 21.347 123.621 21.2163 123.416 21.123C123.211 21.0297 122.998 20.962 122.779 20.92C122.564 20.8733 122.345 20.85 122.121 20.85C121.398 20.85 120.852 21.053 120.483 21.459C120.31 21.6457 119.928 22.4437 119.335 23.853C118.742 25.2577 118.269 26.415 117.914 27.325C117.867 27.451 117.804 27.633 117.725 27.871C117.65 28.109 117.576 28.3237 117.501 28.515C117.426 28.7063 117.345 28.879 117.256 29.033C117.195 29.1497 117.114 29.208 117.011 29.208C116.913 29.208 116.829 29.1497 116.759 29.033C116.684 28.9023 116.614 28.7577 116.549 28.599C116.488 28.4357 116.425 28.256 116.36 28.06C116.299 27.8593 116.248 27.7053 116.206 27.598C115.87 26.7347 115.378 25.5447 114.729 24.028C114.08 22.5067 113.67 21.6503 113.497 21.459C113.128 21.053 112.582 20.85 111.859 20.85C111.635 20.85 111.413 20.8733 111.194 20.92C110.979 20.962 110.769 21.0297 110.564 21.123C110.359 21.2163 110.181 21.347 110.032 21.515C109.883 21.683 109.782 21.8767 109.731 22.096C109.68 22.3247 109.635 22.579 109.598 22.859C109.565 23.139 109.542 23.3747 109.528 23.566C109.514 23.7573 109.495 24.0257 109.472 24.371C109.453 24.7117 109.439 24.952 109.43 25.092C109.281 27.2993 109.206 29.6817 109.206 32.239C109.206 32.6263 109.22 32.9133 109.248 33.1C109.285 33.3333 109.376 33.5317 109.521 33.695C109.666 33.8583 109.845 33.9773 110.06 34.052C110.275 34.1313 110.485 34.1873 110.69 34.22C110.9 34.2527 111.122 34.269 111.355 34.269C111.584 34.269 111.822 34.2503 112.069 34.213C112.316 34.1757 112.573 34.115 112.839 34.031C113.11 33.947 113.341 33.8233 113.532 33.66C113.723 33.4967 113.842 33.303 113.889 33.079C113.917 32.939 113.936 32.7967 113.945 32.652C113.959 32.5073 113.966 32.316 113.966 32.078C113.971 31.84 113.973 31.6953 113.973 31.644C114.01 30.2067 114.029 29.131 114.029 28.417C114.029 28.4077 114.027 28.382 114.022 28.34C114.022 28.2933 114.022 28.2513 114.022 28.214C114.022 28.1767 114.022 28.137 114.022 28.095C114.027 28.053 114.038 28.0203 114.057 27.997C114.076 27.9737 114.099 27.962 114.127 27.962C114.164 27.962 114.195 27.983 114.218 28.025C114.433 28.4543 114.701 29.082 115.023 29.908C115.345 30.734 115.567 31.2847 115.688 31.56C115.721 31.6347 115.777 31.7653 115.856 31.952C115.935 32.1433 116.005 32.3043 116.066 32.435C116.131 32.5703 116.201 32.6963 116.276 32.813C116.509 33.191 116.752 33.38 117.004 33.38C117.158 33.38 117.289 33.3287 117.396 33.226C117.503 33.1233 117.606 32.9857 117.704 32.813C117.76 32.715 117.814 32.6123 117.865 32.505C117.916 32.3977 117.975 32.2647 118.04 32.106C118.11 31.9473 118.157 31.8423 118.18 31.791C118.745 30.5123 119.102 29.6863 119.251 29.313C119.288 29.2197 119.365 29.0213 119.482 28.718C119.599 28.4147 119.692 28.1837 119.762 28.025L119.853 27.962C119.923 27.9667 119.958 28.046 119.958 28.2C119.958 29.4227 119.974 30.5707 120.007 31.644C120.012 31.7233 120.014 31.84 120.014 31.994C120.014 32.1527 120.014 32.2787 120.014 32.372C120.019 32.47 120.026 32.5843 120.035 32.715C120.049 32.8503 120.068 32.9717 120.091 33.079C120.138 33.303 120.257 33.4967 120.448 33.66C120.639 33.8233 120.868 33.947 121.134 34.031C121.405 34.115 121.664 34.1757 121.911 34.213C122.158 34.2503 122.396 34.269 122.625 34.269ZM114.876 21.592C115.184 21.9373 115.996 23.7177 117.312 26.933C117.704 25.9297 118.192 24.7513 118.775 23.398C119.358 22.04 119.755 21.235 119.965 20.983C120.488 20.423 121.206 20.143 122.121 20.143C122.499 20.143 122.877 20.199 123.255 20.311C123.633 20.4183 123.962 20.5863 124.242 20.815L124.949 21.312C125.402 21.6293 125.682 22.04 125.789 22.544C125.91 23.0807 126.004 23.8973 126.069 24.994C126.246 27.7567 126.335 30.3723 126.335 32.841C126.335 33.261 126.319 33.583 126.286 33.807C126.225 34.143 126.106 34.43 125.929 34.668C125.752 34.906 125.53 35.088 125.264 35.214C124.998 35.34 124.72 35.431 124.431 35.487C124.142 35.543 123.827 35.571 123.486 35.571C123.089 35.571 122.66 35.5173 122.198 35.41C121.741 35.3027 121.346 35.1323 121.015 34.899L120.308 34.402C119.827 34.122 119.529 33.751 119.412 33.289C119.319 33.4897 119.232 33.6577 119.153 33.793C119.074 33.933 118.971 34.0777 118.845 34.227C118.719 34.3763 118.574 34.4883 118.411 34.563C118.248 34.6423 118.066 34.682 117.865 34.682C117.594 34.682 117.347 34.605 117.123 34.451L116.381 33.926C116.213 33.8373 116.052 33.6973 115.898 33.506C115.749 33.3193 115.625 33.1233 115.527 32.918C115.518 33.2633 115.487 33.5643 115.436 33.821C115.366 34.1383 115.214 34.416 114.981 34.654C114.748 34.892 114.47 35.074 114.148 35.2C113.826 35.326 113.502 35.4193 113.175 35.48C112.853 35.5407 112.533 35.571 112.216 35.571C111.343 35.571 110.664 35.4007 110.179 35.06L109.458 34.556C109.239 34.4253 109.059 34.276 108.919 34.108C108.784 33.9447 108.686 33.751 108.625 33.527C108.569 33.3077 108.534 33.1093 108.52 32.932C108.506 32.7593 108.499 32.5283 108.499 32.239C108.499 29.7703 108.588 27.1547 108.765 24.392C108.83 23.2953 108.921 22.4787 109.038 21.942C109.113 21.6247 109.25 21.3447 109.451 21.102C109.652 20.8593 109.887 20.6727 110.158 20.542C110.429 20.4067 110.706 20.3063 110.991 20.241C111.276 20.1757 111.565 20.143 111.859 20.143C112.643 20.143 113.282 20.346 113.777 20.752L114.491 21.249C114.631 21.347 114.759 21.4613 114.876 21.592Z" fill="white"/>
</g>
<defs>
<filter id="filter0_diiiii_30_78" x="0.5" y="-1" width="156" height="59.5" filterUnits="userSpaceOnUse" color-interpolation-filters="sRGB">
<feFlood flood-opacity="0" result="BackgroundImageFix"/>
<feColorMatrix in="SourceAlpha" type="matrix" values="0 0 0 0 0 0 0 0 0 0 0 0 0 0 0 0 0 0 127 0" result="hardAlpha"/>
<feOffset dy="2"/>
<feGaussianBlur stdDeviation="1.25"/>
<feComposite in2="hardAlpha" operator="out"/>
<feColorMatrix type="matrix" values="0 0 0 0 0.745833 0 0 0 0 0.0559375 0 0 0 0 0.538864 0 0 0 0.25 0"/>
<feBlend mode="normal" in2="BackgroundImageFix" result="effect1_dropShadow_30_78"/>
<feBlend mode="normal" in="SourceGraphic" in2="effect1_dropShadow_30_78" result="shape"/>
<feColorMatrix in="SourceAlpha" type="matrix" values="0 0 0 0 0 0 0 0 0 0 0 0 0 0 0 0 0 0 127 0" result="hardAlpha"/>
<feMorphology radius="1" operator="erode" in="SourceAlpha" result="effect2_innerShadow_30_78"/>
<feOffset dy="-2"/>
<feGaussianBlur stdDeviation="1"/>
<feComposite in2="hardAlpha" operator="arithmetic" k2="-1" k3="1"/>
<feColorMatrix type="matrix" values="0 0 0 0 0.262745 0 0 0 0 0.0666667 0 0 0 0 0.203922 0 0 0 1 0"/>
<feBlend mode="normal" in2="shape" result="effect2_innerShadow_30_78"/>
<feColorMatrix in="SourceAlpha" type="matrix" values="0 0 0 0 0 0 0 0 0 0 0 0 0 0 0 0 0 0 127 0" result="hardAlpha"/>
<feMorphology radius="1" operator="erode" in="SourceAlpha" result="effect3_innerShadow_30_78"/>
<feOffset dy="2"/>
<feGaussianBlur stdDeviation="1"/>
<feComposite in2="hardAlpha" operator="arithmetic" k2="-1" k3="1"/>
<feColorMatrix type="matrix" values="0 0 0 0 1 0 0 0 0 1 0 0 0 0 1 0 0 0 0.5 0"/>
<feBlend mode="normal" in2="effect2_innerShadow_30_78" result="effect3_innerShadow_30_78"/>
<feColorMatrix in="SourceAlpha" type="matrix" values="0 0 0 0 0 0 0 0 0 0 0 0 0 0 0 0 0 0 127 0" result="hardAlpha"/>
<feMorphology radius="1" operator="erode" in="SourceAlpha" result="effect4_innerShadow_30_78"/>
<feOffset dy="2"/>
<feComposite in2="hardAlpha" operator="arithmetic" k2="-1" k3="1"/>
<feColorMatrix type="matrix" values="0 0 0 0 0.262745 0 0 0 0 0.0666667 0 0 0 0 0.203922 0 0 0 1 0"/>
<feBlend mode="normal" in2="effect3_innerShadow_30_78" result="effect4_innerShadow_30_78"/>
<feColorMatrix in="SourceAlpha" type="matrix" values="0 0 0 0 0 0 0 0 0 0 0 0 0 0 0 0 0 0 127 0" result="hardAlpha"/>
<feOffset dx="2"/>
<feGaussianBlur stdDeviation="0.5"/>
<feComposite in2="hardAlpha" operator="arithmetic" k2="-1" k3="1"/>
<feColorMatrix type="matrix" values="0 0 0 0 0.262745 0 0 0 0 0.0666667 0 0 0 0 0.203922 0 0 0 1 0"/>
<feBlend mode="normal" in2="effect4_innerShadow_30_78" result="effect5_innerShadow_30_78"/>
<feColorMatrix in="SourceAlpha" type="matrix" values="0 0 0 0 0 0 0 0 0 0 0 0 0 0 0 0 0 0 127 0" result="hardAlpha"/>
<feOffset dx="-2"/>
<feGaussianBlur stdDeviation="0.5"/>
<feComposite in2="hardAlpha" operator="arithmetic" k2="-1" k3="1"/>
<feColorMatrix type="matrix" values="0 0 0 0 0.262745 0 0 0 0 0.0666667 0 0 0 0 0.203922 0 0 0 1 0"/>
<feBlend mode="normal" in2="effect5_innerShadow_30_78" result="effect6_innerShadow_30_78"/>
</filter>
<linearGradient id="paint0_linear_30_78" x1="21.5514" y1="43.2344" x2="192.748" y2="3.85264" gradientUnits="userSpaceOnUse">
<stop stop-color="#DA5476"/>
<stop offset="1" stop-color="#FBCAA2"/>
</linearGradient>
</defs>
</svg>
