<svg width="145" height="59" viewBox="0 0 145 59" fill="none" xmlns="http://www.w3.org/2000/svg">
<g filter="url(#filter0_diiiii_30_80)">
<rect x="3" y="1" width="139" height="53" rx="26.5" fill="url(#paint0_linear_30_80)" shape-rendering="crispEdges"/>
<rect x="3.5" y="1.5" width="138" height="52" rx="26" stroke="#431134" shape-rendering="crispEdges"/>
<path d="M42.06 24.833C42.242 24.833 42.396 24.812 42.522 24.77C42.704 24.7093 42.858 24.5437 42.984 24.273C43.11 23.9977 43.1917 23.7293 43.229 23.468C43.271 23.2067 43.292 22.964 43.292 22.74C43.292 21.83 43.026 21.2653 42.494 21.046C42.1253 20.8967 40.562 20.822 37.804 20.822H36.544C33.926 20.822 32.4303 20.8967 32.057 21.046C31.455 21.2933 31.154 21.928 31.154 22.95C31.154 23.1367 31.1703 23.328 31.203 23.524C31.2357 23.7153 31.2893 23.9137 31.364 24.119C31.4387 24.3197 31.5483 24.483 31.693 24.609C31.8423 24.735 32.0173 24.798 32.218 24.798C32.512 24.798 32.9507 24.7537 33.534 24.665C34.122 24.5717 34.563 24.525 34.857 24.525C34.9363 24.525 34.9993 24.5507 35.046 24.602C35.0927 24.6487 35.116 24.7093 35.116 24.784C35.116 25.0687 35.0927 25.4723 35.046 25.995C34.9993 26.5177 34.9713 26.849 34.962 26.989C34.8733 28.4497 34.829 30.1833 34.829 32.19C34.829 32.596 34.843 32.8993 34.871 33.1C34.9037 33.3333 34.9923 33.5317 35.137 33.695C35.2817 33.8583 35.4613 33.9773 35.676 34.052C35.8953 34.1313 36.1077 34.1873 36.313 34.22C36.523 34.2527 36.7447 34.269 36.978 34.269C37.2113 34.269 37.4493 34.2503 37.692 34.213C37.9393 34.1757 38.196 34.115 38.462 34.031C38.7327 33.9517 38.9637 33.828 39.155 33.66C39.3463 33.4967 39.4653 33.303 39.512 33.079C39.61 32.631 39.659 31.9357 39.659 30.993C39.659 30.3023 39.645 29.2663 39.617 27.885C39.589 26.499 39.575 25.4607 39.575 24.77C39.575 24.6067 39.666 24.525 39.848 24.525C40.1 24.525 40.4687 24.5763 40.954 24.679C41.4393 24.7817 41.808 24.833 42.06 24.833ZM31.476 25.323C31.2287 25.183 31.0233 24.9637 30.86 24.665C30.6967 24.3663 30.587 24.077 30.531 23.797C30.475 23.5123 30.447 23.23 30.447 22.95C30.447 22.6933 30.468 22.4483 30.51 22.215C30.5473 21.9817 30.6127 21.7437 30.706 21.501C30.7993 21.2537 30.937 21.0343 31.119 20.843C31.3057 20.647 31.5297 20.4953 31.791 20.388C32.2483 20.206 33.7813 20.115 36.39 20.115H37.804C40.6553 20.115 42.3073 20.206 42.76 20.388C42.9467 20.4673 43.1193 20.57 43.278 20.696L44.006 21.207C44.5707 21.6037 44.853 22.3153 44.853 23.342C44.853 23.6593 44.804 24.028 44.706 24.448C44.608 24.868 44.4587 25.2227 44.258 25.512C44.0993 25.7453 43.9127 25.9087 43.698 26.002C43.488 26.0907 43.229 26.135 42.921 26.135C42.627 26.135 42.2093 26.079 41.668 25.967C41.3367 25.9017 41.1593 25.8667 41.136 25.862C41.1407 26.7253 41.1547 27.5957 41.178 28.473C41.206 29.8543 41.22 30.895 41.22 31.595C41.22 32.5657 41.1663 33.31 41.059 33.828C40.9797 34.136 40.821 34.4067 40.583 34.64C40.345 34.878 40.0673 35.06 39.75 35.186C39.4373 35.3167 39.1177 35.4123 38.791 35.473C38.469 35.5383 38.1517 35.571 37.839 35.571C36.9663 35.571 36.285 35.3983 35.795 35.053L35.074 34.549C34.892 34.4417 34.738 34.3157 34.612 34.171C34.4907 34.031 34.3973 33.8957 34.332 33.765C34.2667 33.6343 34.2177 33.4663 34.185 33.261C34.1523 33.0603 34.1337 32.8923 34.129 32.757C34.1243 32.6217 34.122 32.4327 34.122 32.19C34.122 30.1553 34.1663 28.4077 34.255 26.947C34.2597 26.8397 34.2713 26.681 34.29 26.471C34.3087 26.2563 34.3203 26.1233 34.325 26.072C34.3297 26.0627 34.332 26.0487 34.332 26.03C34.3367 26.0067 34.339 25.9903 34.339 25.981C33.821 26.0603 33.401 26.1 33.079 26.1C32.757 26.1 32.4723 26.0137 32.225 25.841L31.476 25.323ZM55.3252 34.227C55.5632 34.2597 55.8059 34.276 56.0532 34.276C56.3006 34.276 56.5386 34.2597 56.7672 34.227C56.9959 34.1943 57.2316 34.1407 57.4742 34.066C57.7169 33.9913 57.9316 33.8793 58.1182 33.73C58.3096 33.5807 58.4542 33.3987 58.5522 33.184C58.6829 32.8993 58.7996 32.5703 58.9022 32.197C59.0049 31.8237 59.0796 31.511 59.1262 31.259C59.1776 31.0117 59.2406 30.65 59.3152 30.174C59.3946 29.698 59.4506 29.376 59.4832 29.208C59.9732 26.492 60.3349 24.1867 60.5682 22.292L60.5752 22.145C60.5752 21.907 60.4959 21.7017 60.3372 21.529C60.1832 21.3517 59.9826 21.221 59.7352 21.137C59.4879 21.0483 59.2452 20.9853 59.0072 20.948C58.7739 20.906 58.5476 20.885 58.3282 20.885C57.8616 20.885 57.4276 20.9527 57.0262 21.088C56.6296 21.2187 56.3496 21.4497 56.1862 21.781C56.0789 22.0003 55.9739 22.642 55.8712 23.706C55.7686 24.77 55.6939 25.694 55.6472 26.478C55.6052 27.262 55.5702 27.997 55.5422 28.683C55.5422 28.7157 55.5422 28.8253 55.5422 29.012C55.5469 29.194 55.5446 29.362 55.5352 29.516C55.5306 29.67 55.5166 29.838 55.4932 30.02C55.4699 30.1973 55.4256 30.3397 55.3602 30.447C55.2996 30.5497 55.2202 30.601 55.1222 30.601C55.0989 30.601 55.0756 30.5987 55.0522 30.594C55.0289 30.5893 55.0102 30.5847 54.9962 30.58C54.9822 30.5753 54.9659 30.566 54.9472 30.552C54.9332 30.538 54.9216 30.5287 54.9122 30.524C54.9029 30.5193 54.8912 30.5053 54.8772 30.482C54.8679 30.4587 54.8609 30.4447 54.8562 30.44C54.8516 30.4307 54.8446 30.412 54.8352 30.384C54.8306 30.356 54.8259 30.3397 54.8212 30.335C54.8212 30.3303 54.8166 30.3117 54.8072 30.279C54.7979 30.2463 54.7932 30.2277 54.7932 30.223C54.6719 29.7843 54.4946 29.1263 54.2612 28.249C54.0326 27.367 53.8599 26.7067 53.7432 26.268C53.7106 26.1373 53.6639 25.9437 53.6032 25.687C53.5472 25.4257 53.4912 25.1923 53.4352 24.987C53.3792 24.7817 53.3162 24.5927 53.2462 24.42C53.1529 24.196 53.0292 24.035 52.8752 23.937C52.7259 23.8343 52.5276 23.783 52.2802 23.783C51.7529 23.783 51.3959 24.035 51.2092 24.539C51.1532 24.6883 51.0926 24.9123 51.0272 25.211C50.9666 25.505 50.9316 25.673 50.9222 25.715L50.1172 28.97C50.1079 29.0027 50.0682 29.1847 49.9982 29.516C49.9282 29.8427 49.8652 30.0877 49.8092 30.251C49.7812 30.3303 49.7579 30.3887 49.7392 30.426C49.7252 30.4633 49.6926 30.503 49.6412 30.545C49.5946 30.5823 49.5362 30.601 49.4662 30.601C49.3636 30.601 49.2772 30.5333 49.2072 30.398C49.1419 30.2627 49.0976 30.097 49.0742 29.901C49.0556 29.7003 49.0392 29.488 49.0252 29.264C49.0159 29.04 49.0136 28.8417 49.0182 28.669C49.0276 28.4917 49.0276 28.3587 49.0182 28.27C48.9576 27.2013 48.8526 25.9087 48.7032 24.392C48.5586 22.8707 48.4116 21.9607 48.2622 21.662C47.9962 21.1347 47.3639 20.871 46.3652 20.871C46.1412 20.871 45.9009 20.8943 45.6442 20.941C45.3876 20.983 45.1216 21.0507 44.8462 21.144C44.5756 21.2373 44.3516 21.375 44.1742 21.557C43.9969 21.739 43.9082 21.9513 43.9082 22.194C43.9082 22.2313 43.9129 22.2873 43.9222 22.362C44.2302 24.378 44.6199 26.6787 45.0912 29.264C45.1239 29.446 45.1776 29.7657 45.2522 30.223C45.3269 30.6803 45.3876 31.035 45.4342 31.287C45.4856 31.5437 45.5626 31.854 45.6652 32.218C45.7679 32.582 45.8846 32.904 46.0152 33.184C46.1132 33.394 46.2602 33.5737 46.4562 33.723C46.6569 33.877 46.8832 33.9913 47.1352 34.066C47.3872 34.1407 47.6299 34.1943 47.8632 34.227C48.1012 34.2597 48.3416 34.276 48.5842 34.276C49.9049 34.276 50.7379 33.912 51.0832 33.184C51.2792 32.778 51.4659 32.1713 51.6432 31.364C51.8252 30.5613 51.9722 30.006 52.0842 29.698C52.1216 29.586 52.1822 29.53 52.2662 29.53C52.3409 29.53 52.4016 29.5813 52.4482 29.684C52.5882 30.0247 52.7469 30.594 52.9242 31.392C53.1062 32.1947 53.2952 32.792 53.4912 33.184C53.5939 33.394 53.7432 33.5737 53.9392 33.723C54.1399 33.877 54.3616 33.9913 54.6042 34.066C54.8516 34.1407 55.0919 34.1943 55.3252 34.227ZM54.1632 23.958C54.3172 24.0653 54.4526 24.2193 54.5692 24.42C54.6906 24.616 54.7769 24.7933 54.8282 24.952C54.8842 25.1107 54.9449 25.3113 55.0102 25.554C55.1782 23.2207 55.3579 21.8603 55.5492 21.473C55.6752 21.221 55.8479 21.0063 56.0672 20.829C56.2866 20.647 56.5292 20.5117 56.7952 20.423C57.0612 20.3343 57.3179 20.2713 57.5652 20.234C57.8126 20.1967 58.0669 20.178 58.3282 20.178C58.7202 20.178 59.1356 20.2363 59.5742 20.353C60.0129 20.465 60.3792 20.6423 60.6732 20.885L61.3942 21.389C61.8889 21.7343 62.1362 22.1917 62.1362 22.761L62.1222 22.957C61.9076 24.6883 61.4969 27.29 60.8902 30.762C60.8062 31.2753 60.7386 31.6627 60.6872 31.924C60.6406 32.1853 60.5589 32.526 60.4422 32.946C60.3302 33.3707 60.1996 33.7463 60.0502 34.073C59.9242 34.3577 59.7446 34.6003 59.5112 34.801C59.2779 35.0063 59.0142 35.1627 58.7202 35.27C58.4262 35.3773 58.1299 35.4543 57.8312 35.501C57.5372 35.5523 57.2316 35.578 56.9142 35.578C55.9016 35.578 55.0826 35.3563 54.4572 34.913L53.7572 34.423C53.3559 34.1897 53.0572 33.8817 52.8612 33.499C52.8519 33.485 52.8426 33.4687 52.8332 33.45C52.7399 33.7067 52.6536 33.919 52.5742 34.087C52.4389 34.3577 52.2522 34.5933 52.0142 34.794C51.7809 34.9947 51.5196 35.1487 51.2302 35.256C50.9409 35.368 50.6492 35.4497 50.3552 35.501C50.0612 35.5523 49.7579 35.578 49.4452 35.578C48.4139 35.578 47.5879 35.3633 46.9672 34.934L46.2602 34.437C45.8449 34.185 45.5486 33.8653 45.3712 33.478C45.2266 33.1607 45.0959 32.7943 44.9792 32.379C44.8672 31.9683 44.7856 31.6347 44.7342 31.378C44.6876 31.126 44.6222 30.748 44.5382 30.244C44.5196 30.104 44.4729 29.8193 44.3982 29.39C43.9129 26.744 43.5209 24.434 43.2222 22.46C43.2082 22.376 43.2012 22.2873 43.2012 22.194C43.2012 21.8953 43.2806 21.6247 43.4392 21.382C43.5932 21.1347 43.7869 20.9387 44.0202 20.794C44.2582 20.6493 44.5242 20.528 44.8182 20.43C45.1122 20.3273 45.3876 20.2573 45.6442 20.22C45.9009 20.1827 46.1412 20.164 46.3652 20.164C47.2706 20.164 47.9566 20.36 48.4232 20.752L49.1512 21.263C49.4126 21.445 49.6109 21.6737 49.7462 21.949C49.9236 22.299 50.1056 23.4167 50.2922 25.302C50.2922 25.2833 50.2946 25.2577 50.2992 25.225C50.3086 25.1923 50.3156 25.169 50.3202 25.155C50.3716 24.903 50.4252 24.686 50.4812 24.504C50.5372 24.3173 50.6142 24.1307 50.7122 23.944C50.8149 23.7527 50.9316 23.5987 51.0622 23.482C51.1976 23.3607 51.3679 23.2627 51.5732 23.188C51.7786 23.1133 52.0142 23.076 52.2802 23.076C52.7702 23.076 53.1482 23.195 53.4142 23.433L54.1632 23.958ZM63.9303 20.871C63.6176 20.871 63.3283 20.9083 63.0623 20.983C62.801 21.053 62.5583 21.1837 62.3343 21.375C62.115 21.5617 61.9633 21.802 61.8793 22.096C61.814 22.32 61.7626 22.5697 61.7253 22.845C61.688 23.1203 61.6623 23.3607 61.6483 23.566C61.639 23.7667 61.6273 24.0327 61.6133 24.364C61.5993 24.6907 61.5876 24.9333 61.5783 25.092C61.4243 27.598 61.3473 29.9943 61.3473 32.281C61.3473 32.6497 61.3636 32.9227 61.3963 33.1C61.5456 33.8793 62.248 34.269 63.5033 34.269C63.746 34.269 63.9886 34.2503 64.2313 34.213C64.474 34.1803 64.7236 34.122 64.9803 34.038C65.2416 33.9587 65.468 33.835 65.6593 33.667C65.8506 33.5037 65.9766 33.3077 66.0373 33.079C66.1166 32.7757 66.1563 32.2717 66.1563 31.567C66.1563 29.1823 66.112 26.8583 66.0233 24.595C66.0186 24.4643 66.0116 24.266 66.0023 24C65.9976 23.7293 65.993 23.5123 65.9883 23.349C65.9836 23.181 65.9673 22.985 65.9393 22.761C65.916 22.5323 65.881 22.3247 65.8343 22.138C65.6243 21.2933 64.9896 20.871 63.9303 20.871ZM63.9303 20.164C64.7283 20.164 65.3466 20.3483 65.7853 20.717L66.5133 21.221C66.7093 21.361 66.875 21.5407 67.0103 21.76C67.1503 21.9747 67.253 22.18 67.3183 22.376C67.3883 22.572 67.442 22.824 67.4793 23.132C67.5166 23.44 67.5376 23.6803 67.5423 23.853C67.5516 24.021 67.5586 24.2637 67.5633 24.581C67.666 27.6703 67.7173 30.1997 67.7173 32.169C67.7173 32.9297 67.6706 33.4943 67.5773 33.863C67.484 34.1803 67.3206 34.4557 67.0873 34.689C66.8586 34.9223 66.588 35.0997 66.2753 35.221C65.9673 35.3423 65.6546 35.431 65.3373 35.487C65.02 35.543 64.6956 35.571 64.3643 35.571C63.4916 35.571 62.8173 35.4053 62.3413 35.074L61.6203 34.57C61.219 34.3367 60.9553 34.0357 60.8293 33.667C60.7033 33.2983 60.6403 32.8363 60.6403 32.281C60.6403 29.9663 60.7173 27.556 60.8713 25.05C60.89 24.7093 60.9016 24.469 60.9063 24.329C60.9436 23.265 61.0416 22.4553 61.2003 21.9C61.3776 21.2933 61.716 20.8523 62.2153 20.577C62.7146 20.3017 63.2863 20.164 63.9303 20.164ZM77.894 24.833C78.076 24.833 78.23 24.812 78.356 24.77C78.538 24.7093 78.692 24.5437 78.818 24.273C78.944 23.9977 79.0257 23.7293 79.063 23.468C79.105 23.2067 79.126 22.964 79.126 22.74C79.126 21.83 78.86 21.2653 78.328 21.046C77.9593 20.8967 76.396 20.822 73.638 20.822H72.378C69.76 20.822 68.2643 20.8967 67.891 21.046C67.289 21.2933 66.988 21.928 66.988 22.95C66.988 23.1367 67.0043 23.328 67.037 23.524C67.0697 23.7153 67.1233 23.9137 67.198 24.119C67.2727 24.3197 67.3823 24.483 67.527 24.609C67.6763 24.735 67.8513 24.798 68.052 24.798C68.346 24.798 68.7847 24.7537 69.368 24.665C69.956 24.5717 70.397 24.525 70.691 24.525C70.7703 24.525 70.8333 24.5507 70.88 24.602C70.9267 24.6487 70.95 24.7093 70.95 24.784C70.95 25.0687 70.9267 25.4723 70.88 25.995C70.8333 26.5177 70.8053 26.849 70.796 26.989C70.7073 28.4497 70.663 30.1833 70.663 32.19C70.663 32.596 70.677 32.8993 70.705 33.1C70.7377 33.3333 70.8263 33.5317 70.971 33.695C71.1157 33.8583 71.2953 33.9773 71.51 34.052C71.7293 34.1313 71.9417 34.1873 72.147 34.22C72.357 34.2527 72.5787 34.269 72.812 34.269C73.0453 34.269 73.2833 34.2503 73.526 34.213C73.7733 34.1757 74.03 34.115 74.296 34.031C74.5667 33.9517 74.7977 33.828 74.989 33.66C75.1803 33.4967 75.2993 33.303 75.346 33.079C75.444 32.631 75.493 31.9357 75.493 30.993C75.493 30.3023 75.479 29.2663 75.451 27.885C75.423 26.499 75.409 25.4607 75.409 24.77C75.409 24.6067 75.5 24.525 75.682 24.525C75.934 24.525 76.3027 24.5763 76.788 24.679C77.2733 24.7817 77.642 24.833 77.894 24.833ZM67.31 25.323C67.0627 25.183 66.8573 24.9637 66.694 24.665C66.5307 24.3663 66.421 24.077 66.365 23.797C66.309 23.5123 66.281 23.23 66.281 22.95C66.281 22.6933 66.302 22.4483 66.344 22.215C66.3813 21.9817 66.4467 21.7437 66.54 21.501C66.6333 21.2537 66.771 21.0343 66.953 20.843C67.1397 20.647 67.3637 20.4953 67.625 20.388C68.0823 20.206 69.6153 20.115 72.224 20.115H73.638C76.4893 20.115 78.1413 20.206 78.594 20.388C78.7807 20.4673 78.9533 20.57 79.112 20.696L79.84 21.207C80.4047 21.6037 80.687 22.3153 80.687 23.342C80.687 23.6593 80.638 24.028 80.54 24.448C80.442 24.868 80.2927 25.2227 80.092 25.512C79.9333 25.7453 79.7467 25.9087 79.532 26.002C79.322 26.0907 79.063 26.135 78.755 26.135C78.461 26.135 78.0433 26.079 77.502 25.967C77.1707 25.9017 76.9933 25.8667 76.97 25.862C76.9747 26.7253 76.9887 27.5957 77.012 28.473C77.04 29.8543 77.054 30.895 77.054 31.595C77.054 32.5657 77.0003 33.31 76.893 33.828C76.8137 34.136 76.655 34.4067 76.417 34.64C76.179 34.878 75.9013 35.06 75.584 35.186C75.2713 35.3167 74.9517 35.4123 74.625 35.473C74.303 35.5383 73.9857 35.571 73.673 35.571C72.8003 35.571 72.119 35.3983 71.629 35.053L70.908 34.549C70.726 34.4417 70.572 34.3157 70.446 34.171C70.3247 34.031 70.2313 33.8957 70.166 33.765C70.1007 33.6343 70.0517 33.4663 70.019 33.261C69.9863 33.0603 69.9677 32.8923 69.963 32.757C69.9583 32.6217 69.956 32.4327 69.956 32.19C69.956 30.1553 70.0003 28.4077 70.089 26.947C70.0937 26.8397 70.1053 26.681 70.124 26.471C70.1427 26.2563 70.1543 26.1233 70.159 26.072C70.1637 26.0627 70.166 26.0487 70.166 26.03C70.1707 26.0067 70.173 25.9903 70.173 25.981C69.655 26.0603 69.235 26.1 68.913 26.1C68.591 26.1 68.3063 26.0137 68.059 25.841L67.31 25.323ZM90.6498 24.833C90.8318 24.833 90.9858 24.812 91.1118 24.77C91.2938 24.7093 91.4478 24.5437 91.5738 24.273C91.6998 23.9977 91.7815 23.7293 91.8188 23.468C91.8608 23.2067 91.8818 22.964 91.8818 22.74C91.8818 21.83 91.6158 21.2653 91.0838 21.046C90.7152 20.8967 89.1518 20.822 86.3938 20.822H85.1338C82.5158 20.822 81.0202 20.8967 80.6468 21.046C80.0448 21.2933 79.7438 21.928 79.7438 22.95C79.7438 23.1367 79.7602 23.328 79.7928 23.524C79.8255 23.7153 79.8792 23.9137 79.9538 24.119C80.0285 24.3197 80.1382 24.483 80.2828 24.609C80.4322 24.735 80.6072 24.798 80.8078 24.798C81.1018 24.798 81.5405 24.7537 82.1238 24.665C82.7118 24.5717 83.1528 24.525 83.4468 24.525C83.5262 24.525 83.5892 24.5507 83.6358 24.602C83.6825 24.6487 83.7058 24.7093 83.7058 24.784C83.7058 25.0687 83.6825 25.4723 83.6358 25.995C83.5892 26.5177 83.5612 26.849 83.5518 26.989C83.4632 28.4497 83.4188 30.1833 83.4188 32.19C83.4188 32.596 83.4328 32.8993 83.4608 33.1C83.4935 33.3333 83.5822 33.5317 83.7268 33.695C83.8715 33.8583 84.0512 33.9773 84.2658 34.052C84.4852 34.1313 84.6975 34.1873 84.9028 34.22C85.1128 34.2527 85.3345 34.269 85.5678 34.269C85.8012 34.269 86.0392 34.2503 86.2818 34.213C86.5292 34.1757 86.7858 34.115 87.0518 34.031C87.3225 33.9517 87.5535 33.828 87.7448 33.66C87.9362 33.4967 88.0552 33.303 88.1018 33.079C88.1998 32.631 88.2488 31.9357 88.2488 30.993C88.2488 30.3023 88.2348 29.2663 88.2068 27.885C88.1788 26.499 88.1648 25.4607 88.1648 24.77C88.1648 24.6067 88.2558 24.525 88.4378 24.525C88.6898 24.525 89.0585 24.5763 89.5438 24.679C90.0292 24.7817 90.3978 24.833 90.6498 24.833ZM80.0658 25.323C79.8185 25.183 79.6132 24.9637 79.4498 24.665C79.2865 24.3663 79.1768 24.077 79.1208 23.797C79.0648 23.5123 79.0368 23.23 79.0368 22.95C79.0368 22.6933 79.0578 22.4483 79.0998 22.215C79.1372 21.9817 79.2025 21.7437 79.2958 21.501C79.3892 21.2537 79.5268 21.0343 79.7088 20.843C79.8955 20.647 80.1195 20.4953 80.3808 20.388C80.8382 20.206 82.3712 20.115 84.9798 20.115H86.3938C89.2452 20.115 90.8972 20.206 91.3498 20.388C91.5365 20.4673 91.7092 20.57 91.8678 20.696L92.5958 21.207C93.1605 21.6037 93.4428 22.3153 93.4428 23.342C93.4428 23.6593 93.3938 24.028 93.2958 24.448C93.1978 24.868 93.0485 25.2227 92.8478 25.512C92.6892 25.7453 92.5025 25.9087 92.2878 26.002C92.0778 26.0907 91.8188 26.135 91.5108 26.135C91.2168 26.135 90.7992 26.079 90.2578 25.967C89.9265 25.9017 89.7492 25.8667 89.7258 25.862C89.7305 26.7253 89.7445 27.5957 89.7678 28.473C89.7958 29.8543 89.8098 30.895 89.8098 31.595C89.8098 32.5657 89.7562 33.31 89.6488 33.828C89.5695 34.136 89.4108 34.4067 89.1728 34.64C88.9348 34.878 88.6572 35.06 88.3398 35.186C88.0272 35.3167 87.7075 35.4123 87.3808 35.473C87.0588 35.5383 86.7415 35.571 86.4288 35.571C85.5562 35.571 84.8748 35.3983 84.3848 35.053L83.6638 34.549C83.4818 34.4417 83.3278 34.3157 83.2018 34.171C83.0805 34.031 82.9872 33.8957 82.9218 33.765C82.8565 33.6343 82.8075 33.4663 82.7748 33.261C82.7422 33.0603 82.7235 32.8923 82.7188 32.757C82.7142 32.6217 82.7118 32.4327 82.7118 32.19C82.7118 30.1553 82.7562 28.4077 82.8448 26.947C82.8495 26.8397 82.8612 26.681 82.8798 26.471C82.8985 26.2563 82.9102 26.1233 82.9148 26.072C82.9195 26.0627 82.9218 26.0487 82.9218 26.03C82.9265 26.0067 82.9288 25.9903 82.9288 25.981C82.4108 26.0603 81.9908 26.1 81.6688 26.1C81.3468 26.1 81.0622 26.0137 80.8148 25.841L80.0658 25.323ZM101.695 32.246C101.695 31.9613 101.648 31.6393 101.555 31.28C101.462 30.9207 101.338 30.6547 101.184 30.482C101.072 30.356 100.916 30.2603 100.715 30.195C100.519 30.125 100.346 30.0853 100.197 30.076C100.048 30.062 99.8585 30.055 99.6299 30.055C99.4059 30.055 99.0699 30.076 98.6219 30.118C98.1785 30.1553 97.8449 30.174 97.6209 30.174C97.4809 30.174 97.3945 30.1553 97.3619 30.118C97.3152 30.0713 97.2919 29.6817 97.2919 28.949C97.2919 28.8323 97.3175 28.7553 97.3689 28.718C97.4249 28.676 97.5135 28.655 97.6349 28.655C97.8589 28.655 98.1949 28.6783 98.6429 28.725C99.0909 28.767 99.4292 28.788 99.6579 28.788C100.092 28.788 100.386 28.6947 100.54 28.508C100.694 28.3167 100.771 27.9993 100.771 27.556C100.771 27.094 100.696 26.765 100.547 26.569C100.402 26.373 100.106 26.275 99.6579 26.275C99.4292 26.275 99.0909 26.2983 98.6429 26.345C98.1949 26.387 97.8589 26.408 97.6349 26.408C97.5089 26.408 97.4202 26.3893 97.3689 26.352C97.3175 26.3147 97.2919 26.2353 97.2919 26.114C97.2919 26.0813 97.2872 26.009 97.2779 25.897C97.2732 25.785 97.2709 25.694 97.2709 25.624C97.2755 25.554 97.2849 25.4747 97.2989 25.386C97.3175 25.2973 97.3549 25.232 97.4109 25.19C97.4669 25.1433 97.5392 25.12 97.6279 25.12C97.8519 25.12 98.1855 25.141 98.6289 25.183C99.0722 25.2203 99.4059 25.239 99.6299 25.239C99.8539 25.239 100.041 25.2343 100.19 25.225C100.344 25.211 100.519 25.169 100.715 25.099C100.916 25.029 101.072 24.931 101.184 24.805C101.333 24.6323 101.448 24.3687 101.527 24.014C101.606 23.6593 101.646 23.3327 101.646 23.034C101.646 22.334 101.473 21.8183 101.128 21.487C100.955 21.319 100.594 21.179 100.043 21.067C99.4922 20.955 98.9742 20.8803 98.4889 20.843C98.0035 20.8057 97.5835 20.787 97.2289 20.787C94.6249 20.787 93.2085 21.452 92.9799 22.782C92.9192 23.146 92.8679 23.5543 92.8259 24.007C92.7885 24.4597 92.7629 24.826 92.7489 25.106C92.7349 25.386 92.7185 25.8153 92.6999 26.394C92.6859 26.9727 92.6765 27.353 92.6719 27.535C92.6065 29.4857 92.5739 30.9487 92.5739 31.924C92.5739 32.3767 92.5925 32.7103 92.6299 32.925C92.6719 33.1677 92.8259 33.38 93.0919 33.562C93.3625 33.7487 93.6682 33.891 94.0089 33.989C94.3542 34.087 94.7439 34.1663 95.1779 34.227C95.6165 34.2877 95.9875 34.325 96.2909 34.339C96.5942 34.3577 96.8765 34.367 97.1379 34.367C97.8425 34.367 98.5869 34.304 99.3709 34.178C100.16 34.0567 100.745 33.856 101.128 33.576C101.506 33.3007 101.695 32.8573 101.695 32.246ZM92.8259 34.192C92.3125 33.8747 92.0162 33.4943 91.9369 33.051C91.8902 32.7943 91.8669 32.4187 91.8669 31.924C91.8669 30.9347 91.8995 29.4647 91.9649 27.514C91.9742 27.2947 91.9835 26.975 91.9929 26.555C92.0395 24.8143 92.1352 23.517 92.2799 22.663C92.3359 22.341 92.4409 22.0517 92.5949 21.795C92.7489 21.5337 92.9285 21.3143 93.1339 21.137C93.3439 20.9597 93.5889 20.8057 93.8689 20.675C94.1535 20.5443 94.4312 20.4417 94.7019 20.367C94.9725 20.2923 95.2689 20.234 95.5909 20.192C95.9129 20.1453 96.1975 20.115 96.4449 20.101C96.6969 20.087 96.9582 20.08 97.2289 20.08C97.6535 20.08 98.1365 20.1057 98.6779 20.157C99.2192 20.2037 99.7932 20.3017 100.4 20.451C101.011 20.6003 101.427 20.7847 101.646 21.004L102.472 21.585C102.962 22.0563 103.207 22.74 103.207 23.636C103.207 24 103.151 24.406 103.039 24.854C102.932 25.2973 102.775 25.6357 102.57 25.869C102.351 26.121 102.061 26.3007 101.702 26.408L101.786 26.464C101.996 26.6087 102.138 26.8163 102.213 27.087C102.292 27.3577 102.332 27.7147 102.332 28.158C102.332 28.3633 102.325 28.536 102.311 28.676C102.297 28.816 102.267 28.9723 102.22 29.145C102.178 29.3177 102.106 29.467 102.003 29.593C101.9 29.719 101.77 29.8217 101.611 29.901L102.283 30.37C102.591 30.5753 102.829 30.93 102.997 31.434C103.17 31.938 103.256 32.4093 103.256 32.848C103.256 33.674 102.971 34.3063 102.402 34.745C101.945 35.0623 101.28 35.2957 100.407 35.445C99.5389 35.5943 98.7362 35.669 97.9989 35.669C97.5975 35.669 97.1659 35.648 96.7039 35.606C96.2419 35.5687 95.6889 35.4707 95.0449 35.312C94.4055 35.1533 93.9015 34.9433 93.5329 34.682L92.8259 34.192ZM102.472 21.585C102.393 21.5103 102.297 21.4427 102.185 21.382L102.472 21.585ZM108.758 28.333C108.758 28.221 108.851 28.1277 109.038 28.053C109.229 27.9737 109.474 27.906 109.773 27.85C110.076 27.7893 110.235 27.7567 110.249 27.752C112.013 27.2247 112.895 26.1537 112.895 24.539C112.895 24.0723 112.818 23.6523 112.664 23.279C112.51 22.901 112.309 22.586 112.062 22.334C111.819 22.082 111.514 21.8627 111.145 21.676C110.776 21.4893 110.41 21.3447 110.046 21.242C109.687 21.1393 109.278 21.0577 108.821 20.997C108.364 20.9317 107.955 20.892 107.596 20.878C107.241 20.8593 106.856 20.85 106.441 20.85C104.77 20.85 103.79 21.067 103.501 21.501C103.412 21.641 103.347 21.8393 103.305 22.096C103.081 23.5987 102.936 25.1293 102.871 26.688C102.81 28.242 102.78 30.0923 102.78 32.239C102.78 32.6217 102.794 32.9087 102.822 33.1C102.85 33.2867 102.915 33.4523 103.018 33.597C103.125 33.7417 103.249 33.8537 103.389 33.933C103.529 34.017 103.692 34.0847 103.879 34.136C104.066 34.1873 104.241 34.2223 104.404 34.241C104.572 34.2597 104.747 34.269 104.929 34.269C105.153 34.269 105.389 34.2503 105.636 34.213C105.888 34.1757 106.149 34.115 106.42 34.031C106.691 33.947 106.922 33.8233 107.113 33.66C107.309 33.4967 107.426 33.303 107.463 33.079C107.496 32.9017 107.512 32.7127 107.512 32.512C107.517 32.316 107.512 32.0897 107.498 31.833C107.489 31.5763 107.484 31.3873 107.484 31.266C107.484 30.972 107.533 30.811 107.631 30.783L107.687 30.825C107.934 31.049 108.191 31.3523 108.457 31.735C108.728 32.1177 108.996 32.5003 109.262 32.883C109.528 33.2657 109.78 33.5667 110.018 33.786C110.303 34.038 110.587 34.164 110.872 34.164C111.236 34.164 111.605 34.0217 111.978 33.737C112.351 33.457 112.652 33.114 112.881 32.708C113.11 32.302 113.224 31.9193 113.224 31.56C113.224 31.2567 113.117 30.9813 112.902 30.734C112.664 30.4587 112.197 30.118 111.502 29.712C110.807 29.306 110.228 29.012 109.766 28.83C109.691 28.802 109.549 28.753 109.339 28.683C109.134 28.613 108.98 28.5523 108.877 28.501C108.798 28.459 108.758 28.403 108.758 28.333ZM107.575 25.904C107.575 25.1947 107.556 24.553 107.519 23.979C107.566 23.9743 107.633 23.972 107.722 23.972C108.016 23.972 108.294 24.063 108.555 24.245C108.821 24.4223 108.954 24.651 108.954 24.931C108.954 25.197 108.793 25.428 108.471 25.624C108.154 25.8153 107.855 25.9087 107.575 25.904ZM103.025 34.549C102.848 34.4463 102.696 34.325 102.57 34.185C102.449 34.045 102.355 33.9097 102.29 33.779C102.225 33.6483 102.176 33.485 102.143 33.289C102.11 33.0977 102.089 32.932 102.08 32.792C102.075 32.6567 102.073 32.4723 102.073 32.239C102.073 30.825 102.08 29.6607 102.094 28.746C102.113 27.8267 102.162 26.737 102.241 25.477C102.325 24.2123 102.446 23.0503 102.605 21.991C102.661 21.6317 102.761 21.34 102.906 21.116C103.335 20.4673 104.514 20.143 106.441 20.143C109.157 20.143 111.087 20.5957 112.23 21.501L112.895 21.963C113.936 22.7003 114.456 23.7597 114.456 25.141C114.456 26.9937 113.49 28.2607 111.558 28.942C112.141 29.2733 112.606 29.5743 112.951 29.845L113.539 30.251C113.744 30.3957 113.91 30.524 114.036 30.636C114.162 30.7433 114.288 30.874 114.414 31.028C114.545 31.1867 114.638 31.357 114.694 31.539C114.755 31.7257 114.785 31.9333 114.785 32.162C114.785 32.512 114.692 32.883 114.505 33.275C114.323 33.6717 114.09 34.0287 113.805 34.346C113.52 34.668 113.191 34.934 112.818 35.144C112.445 35.3587 112.083 35.466 111.733 35.466C111.364 35.466 111.014 35.354 110.683 35.13L109.969 34.626C109.694 34.472 109.379 34.1803 109.024 33.751C109.019 33.7557 109.015 33.765 109.01 33.779C109.01 33.793 109.01 33.8023 109.01 33.807C108.949 34.1103 108.8 34.381 108.562 34.619C108.324 34.857 108.042 35.0413 107.715 35.172C107.388 35.3027 107.059 35.4007 106.728 35.466C106.401 35.536 106.089 35.571 105.79 35.571C104.922 35.571 104.241 35.4007 103.746 35.06L103.025 34.549Z" fill="white"/>
</g>
<defs>
<filter id="filter0_diiiii_30_80" x="0.5" y="-1" width="144" height="59.5" filterUnits="userSpaceOnUse" color-interpolation-filters="sRGB">
<feFlood flood-opacity="0" result="BackgroundImageFix"/>
<feColorMatrix in="SourceAlpha" type="matrix" values="0 0 0 0 0 0 0 0 0 0 0 0 0 0 0 0 0 0 127 0" result="hardAlpha"/>
<feOffset dy="2"/>
<feGaussianBlur stdDeviation="1.25"/>
<feComposite in2="hardAlpha" operator="out"/>
<feColorMatrix type="matrix" values="0 0 0 0 0.745833 0 0 0 0 0.0559375 0 0 0 0 0.538864 0 0 0 0.25 0"/>
<feBlend mode="normal" in2="BackgroundImageFix" result="effect1_dropShadow_30_80"/>
<feBlend mode="normal" in="SourceGraphic" in2="effect1_dropShadow_30_80" result="shape"/>
<feColorMatrix in="SourceAlpha" type="matrix" values="0 0 0 0 0 0 0 0 0 0 0 0 0 0 0 0 0 0 127 0" result="hardAlpha"/>
<feMorphology radius="1" operator="erode" in="SourceAlpha" result="effect2_innerShadow_30_80"/>
<feOffset dy="-2"/>
<feGaussianBlur stdDeviation="1"/>
<feComposite in2="hardAlpha" operator="arithmetic" k2="-1" k3="1"/>
<feColorMatrix type="matrix" values="0 0 0 0 0.262745 0 0 0 0 0.0666667 0 0 0 0 0.203922 0 0 0 1 0"/>
<feBlend mode="normal" in2="shape" result="effect2_innerShadow_30_80"/>
<feColorMatrix in="SourceAlpha" type="matrix" values="0 0 0 0 0 0 0 0 0 0 0 0 0 0 0 0 0 0 127 0" result="hardAlpha"/>
<feMorphology radius="1" operator="erode" in="SourceAlpha" result="effect3_innerShadow_30_80"/>
<feOffset dy="2"/>
<feGaussianBlur stdDeviation="1"/>
<feComposite in2="hardAlpha" operator="arithmetic" k2="-1" k3="1"/>
<feColorMatrix type="matrix" values="0 0 0 0 1 0 0 0 0 1 0 0 0 0 1 0 0 0 0.5 0"/>
<feBlend mode="normal" in2="effect2_innerShadow_30_80" result="effect3_innerShadow_30_80"/>
<feColorMatrix in="SourceAlpha" type="matrix" values="0 0 0 0 0 0 0 0 0 0 0 0 0 0 0 0 0 0 127 0" result="hardAlpha"/>
<feMorphology radius="1" operator="erode" in="SourceAlpha" result="effect4_innerShadow_30_80"/>
<feOffset dy="2"/>
<feComposite in2="hardAlpha" operator="arithmetic" k2="-1" k3="1"/>
<feColorMatrix type="matrix" values="0 0 0 0 0.262745 0 0 0 0 0.0666667 0 0 0 0 0.203922 0 0 0 1 0"/>
<feBlend mode="normal" in2="effect3_innerShadow_30_80" result="effect4_innerShadow_30_80"/>
<feColorMatrix in="SourceAlpha" type="matrix" values="0 0 0 0 0 0 0 0 0 0 0 0 0 0 0 0 0 0 127 0" result="hardAlpha"/>
<feOffset dx="2"/>
<feGaussianBlur stdDeviation="0.5"/>
<feComposite in2="hardAlpha" operator="arithmetic" k2="-1" k3="1"/>
<feColorMatrix type="matrix" values="0 0 0 0 0.262745 0 0 0 0 0.0666667 0 0 0 0 0.203922 0 0 0 1 0"/>
<feBlend mode="normal" in2="effect4_innerShadow_30_80" result="effect5_innerShadow_30_80"/>
<feColorMatrix in="SourceAlpha" type="matrix" values="0 0 0 0 0 0 0 0 0 0 0 0 0 0 0 0 0 0 127 0" result="hardAlpha"/>
<feOffset dx="-2"/>
<feGaussianBlur stdDeviation="0.5"/>
<feComposite in2="hardAlpha" operator="arithmetic" k2="-1" k3="1"/>
<feColorMatrix type="matrix" values="0 0 0 0 0.262745 0 0 0 0 0.0666667 0 0 0 0 0.203922 0 0 0 1 0"/>
<feBlend mode="normal" in2="effect5_innerShadow_30_80" result="effect6_innerShadow_30_80"/>
</filter>
<linearGradient id="paint0_linear_30_80" x1="20.0771" y1="43.2344" x2="178.887" y2="9.60532" gradientUnits="userSpaceOnUse">
<stop stop-color="#DA5476"/>
<stop offset="1" stop-color="#FBCAA2"/>
</linearGradient>
</defs>
</svg>
